SeanSans-CondensedSemibold.ufo
<glyph name="exclam" format="1">
  <advance width="248"/>
  <unicode hex="0021"/>
  <outline>
    <contour>
      <point x="175" y="229" type="line"/>
      <point x="182" y="722" type="line"/>
      <point x="66" y="722" type="line"/>
      <point x="74" y="229" type="line"/>
    </contour>
    <contour>
      <point x="178" y="44" type="curve"/>
      <point x="178" y="79"/>
      <point x="155" y="97"/>
      <point x="124" y="97" type="curve"/>
      <point x="91" y="97"/>
      <point x="70" y="77"/>
      <point x="70" y="44" type="curve"/>
      <point x="178" y="44"/>
      <point x="70" y="44"/>
      <point x="178" y="44" type="curve"/>
      <point x="178" y="9"/>
      <point x="156" y="-8"/>
      <point x="124" y="-8" type="curve"/>
      <point x="91" y="-8"/>
      <point x="70" y="10"/>
      <point x="70" y="44" type="curve"/>
      <point x="178" y="44"/>
      <point x="70" y="44"/>
    </contour>
  </outline>
</glyph>
<glyph name="quotedbl" format="1">
  <advance width="374"/>
  <unicode hex="0022"/>
  <outline>
    <contour>
      <point x="148" y="622" type="line"/>
      <point x="155" y="829" type="line"/>
      <point x="52" y="829" type="line"/>
      <point x="60" y="622" type="line"/>
    </contour>
    <contour>
      <point x="315" y="622" type="line"/>
      <point x="322" y="829" type="line"/>
      <point x="219" y="829" type="line"/>
      <point x="227" y="622" type="line"/>
    </contour>
  </outline>
</glyph>
<glyph name="numbersign" format="1">
  <advance width="542"/>
  <unicode hex="0023"/>
  <outline>
    <contour>
      <point x="38" y="228" type="curve"/>
      <point x="436" y="228" type="curve"/>
      <point x="456" y="307" type="curve"/>
      <point x="58" y="307" type="curve"/>
    </contour>
    <contour>
      <point x="87" y="451" type="curve"/>
      <point x="486" y="451" type="curve"/>
      <point x="506" y="530" type="curve"/>
      <point x="106" y="530" type="curve"/>
    </contour>
    <contour>
      <point x="343" y="39" type="curve"/>
      <point x="501" y="722" type="curve"/>
      <point x="400" y="722" type="curve"/>
      <point x="242" y="39" type="curve"/>
    </contour>
    <contour>
      <point x="143" y="46" type="curve"/>
      <point x="300" y="722" type="curve"/>
      <point x="200" y="722" type="curve"/>
      <point x="46" y="46" type="curve"/>
    </contour>
  </outline>
</glyph>
<glyph name="dollar" format="1">
  <advance width="457"/>
  <unicode hex="0024"/>
  <outline>
    <contour>
      <point x="263" y="-42" type="curve"/>
      <point x="263" y="-11"/>
      <point x="263" y="52"/>
      <point x="263" y="83" type="curve"/>
      <point x="162" y="83"/>
      <point x="263" y="83"/>
      <point x="162" y="83" type="curve"/>
      <point x="162" y="52"/>
      <point x="162" y="-11"/>
      <point x="162" y="-42" type="curve"/>
      <point x="263" y="-42"/>
      <point x="162" y="-42"/>
    </contour>
    <contour>
      <point x="271" y="646" type="curve"/>
      <point x="271" y="677"/>
      <point x="271" y="742"/>
      <point x="271" y="773" type="curve"/>
      <point x="171" y="773"/>
      <point x="271" y="773"/>
      <point x="171" y="773" type="curve"/>
      <point x="171" y="742"/>
      <point x="171" y="677"/>
      <point x="171" y="646" type="curve"/>
      <point x="271" y="646"/>
      <point x="171" y="646"/>
    </contour>
    <contour>
      <point x="46" y="94" type="curve"/>
      <point x="90" y="67"/>
      <point x="144" y="44"/>
      <point x="208" y="44" type="curve"/>
      <point x="330" y="44"/>
      <point x="420" y="110"/>
      <point x="420" y="213" type="curve"/>
      <point x="420" y="304"/>
      <point x="344" y="360"/>
      <point x="252" y="409" type="curve"/>
      <point x="193" y="442"/>
      <point x="146" y="469"/>
      <point x="146" y="528" type="curve"/>
      <point x="146" y="572"/>
      <point x="174" y="608"/>
      <point x="223" y="608" type="curve"/>
      <point x="269" y="608"/>
      <point x="299" y="592"/>
      <point x="337" y="567" type="curve"/>
      <point x="387" y="634"/>
      <point x="337" y="567"/>
      <point x="387" y="634" type="curve"/>
      <point x="335" y="668"/>
      <point x="291" y="686"/>
      <point x="227" y="686" type="curve"/>
      <point x="118" y="686"/>
      <point x="45" y="623"/>
      <point x="45" y="528" type="curve"/>
      <point x="45" y="438"/>
      <point x="105" y="385"/>
      <point x="193" y="338" type="curve"/>
      <point x="257" y="305"/>
      <point x="319" y="273"/>
      <point x="319" y="209" type="curve"/>
      <point x="319" y="157"/>
      <point x="277" y="122"/>
      <point x="217" y="122" type="curve"/>
      <point x="170" y="122"/>
      <point x="132" y="145"/>
      <point x="101" y="164" type="curve"/>
      <point x="46" y="94"/>
      <point x="101" y="164"/>
    </contour>
  </outline>
</glyph>
<glyph name="percent" format="1">
  <advance width="895"/>
  <unicode hex="0025"/>
  <outline>
    <contour>
      <point x="342" y="-56" type="line"/>
      <point x="654" y="725" type="line"/>
      <point x="561" y="725" type="line"/>
      <point x="248" y="-56" type="line"/>
    </contour>
    <contour>
      <point x="116" y="516" type="curve"/>
      <point x="116" y="593"/>
      <point x="130" y="657"/>
      <point x="197" y="657" type="curve"/>
      <point x="265" y="658"/>
      <point x="280" y="593"/>
      <point x="280" y="515" type="curve"/>
      <point x="280" y="437"/>
      <point x="270" y="370"/>
      <point x="202" y="370" type="curve"/>
      <point x="133" y="370"/>
      <point x="116" y="436"/>
      <point x="116" y="516" type="curve"/>
      <point x="85" y="516"/>
      <point x="63" y="516"/>
      <point x="31" y="516" type="curve"/>
      <point x="31" y="391"/>
      <point x="83" y="299"/>
      <point x="198" y="299" type="curve"/>
      <point x="316" y="299"/>
      <point x="369" y="392"/>
      <point x="369" y="518" type="curve"/>
      <point x="369" y="641"/>
      <point x="316" y="730"/>
      <point x="201" y="729" type="curve"/>
      <point x="85" y="729"/>
      <point x="31" y="639"/>
      <point x="31" y="516" type="curve"/>
      <point x="63" y="516"/>
      <point x="85" y="516"/>
    </contour>
    <contour>
      <point x="611" y="159" type="curve"/>
      <point x="611" y="236"/>
      <point x="625" y="301"/>
      <point x="692" y="301" type="curve"/>
      <point x="760" y="302"/>
      <point x="775" y="237"/>
      <point x="775" y="158" type="curve"/>
      <point x="775" y="80"/>
      <point x="765" y="13"/>
      <point x="698" y="13" type="curve"/>
      <point x="628" y="13"/>
      <point x="611" y="79"/>
      <point x="611" y="159" type="curve"/>
      <point x="580" y="159"/>
      <point x="558" y="159"/>
      <point x="527" y="159" type="curve"/>
      <point x="527" y="34"/>
      <point x="578" y="-58"/>
      <point x="693" y="-58" type="curve"/>
      <point x="811" y="-58"/>
      <point x="864" y="35"/>
      <point x="864" y="162" type="curve"/>
      <point x="864" y="285"/>
      <point x="811" y="373"/>
      <point x="697" y="372" type="curve"/>
      <point x="580" y="372"/>
      <point x="527" y="283"/>
      <point x="527" y="159" type="curve"/>
      <point x="558" y="159"/>
      <point x="580" y="159"/>
    </contour>
  </outline>
</glyph>
<glyph name="ampersand" format="1">
  <advance width="567"/>
  <unicode hex="0026"/>
  <outline>
    <contour>
      <point x="541" y="31" type="line"/>
      <point x="464" y="134"/>
      <point x="379" y="261"/>
      <point x="297" y="368" type="curve"/>
      <point x="254" y="429"/>
      <point x="196" y="482"/>
      <point x="196" y="559" type="curve"/>
      <point x="196" y="604"/>
      <point x="208" y="648"/>
      <point x="246" y="648" type="curve"/>
      <point x="286" y="648"/>
      <point x="300" y="608"/>
      <point x="300" y="561" type="curve"/>
      <point x="300" y="493"/>
      <point x="262" y="449"/>
      <point x="206" y="409" type="curve"/>
      <point x="123" y="348"/>
      <point x="52" y="294"/>
      <point x="52" y="192" type="curve"/>
      <point x="52" y="76"/>
      <point x="126" y="-5"/>
      <point x="240" y="-5" type="curve"/>
      <point x="408" y="-5"/>
      <point x="478" y="140"/>
      <point x="520" y="314" type="curve"/>
      <point x="434" y="334"/>
      <point x="520" y="314"/>
      <point x="434" y="334" type="curve"/>
      <point x="401" y="201"/>
      <point x="368" y="75"/>
      <point x="245" y="75" type="curve"/>
      <point x="184" y="75"/>
      <point x="153" y="126"/>
      <point x="153" y="192" type="curve"/>
      <point x="153" y="261"/>
      <point x="194" y="303"/>
      <point x="250" y="345" type="curve"/>
      <point x="331" y="405"/>
      <point x="400" y="461"/>
      <point x="401" y="561" type="curve"/>
      <point x="401" y="659"/>
      <point x="343" y="727"/>
      <point x="250" y="727" type="curve"/>
      <point x="156" y="727"/>
      <point x="102" y="656"/>
      <point x="102" y="559" type="curve"/>
      <point x="102" y="461"/>
      <point x="167" y="397"/>
      <point x="225" y="320" type="curve"/>
      <point x="302" y="216"/>
      <point x="394" y="83"/>
      <point x="467" y="-16" type="curve"/>
    </contour>
  </outline>
</glyph>
<glyph name="parenleft" format="1">
  <advance width="303"/>
  <unicode hex="0028"/>
  <outline>
    <contour>
      <point x="301" y="-216" type="curve"/>
      <point x="173" y="-43"/>
      <point x="141" y="112"/>
      <point x="141" y="326" type="curve"/>
      <point x="141" y="541"/>
      <point x="174" y="695"/>
      <point x="300" y="871" type="curve"/>
      <point x="240" y="921"/>
      <point x="300" y="871"/>
      <point x="240" y="921" type="curve"/>
      <point x="97" y="730"/>
      <point x="42" y="565"/>
      <point x="42" y="326" type="curve"/>
      <point x="42" y="86"/>
      <point x="98" y="-78"/>
      <point x="240" y="-271" type="curve"/>
      <point x="301" y="-216"/>
      <point x="240" y="-271"/>
    </contour>
  </outline>
</glyph>
<glyph name="parenright" format="1">
  <advance width="312"/>
  <unicode hex="0029"/>
  <outline>
    <contour>
      <point x="60" y="-285" type="curve"/>
      <point x="204" y="-85"/>
      <point x="269" y="81"/>
      <point x="269" y="328" type="curve"/>
      <point x="269" y="569"/>
      <point x="211" y="733"/>
      <point x="63" y="923" type="curve"/>
      <point x="3" y="868"/>
      <point x="63" y="923"/>
      <point x="3" y="868" type="curve"/>
      <point x="133" y="694"/>
      <point x="170" y="541"/>
      <point x="170" y="325" type="curve"/>
      <point x="170" y="104"/>
      <point x="125" y="-51"/>
      <point x="0" y="-234" type="curve"/>
      <point x="60" y="-285"/>
      <point x="0" y="-234"/>
    </contour>
  </outline>
</glyph>
<glyph name="asterisk" format="1">
  <advance width="570"/>
  <unicode hex="002A"/>
  <outline>
    <contour>
      <point x="317" y="564" type="line"/>
      <point x="322" y="771" type="line"/>
      <point x="247" y="771" type="line"/>
      <point x="253" y="564" type="line"/>
    </contour>
    <contour>
      <point x="321" y="514" type="line"/>
      <point x="519" y="578" type="line"/>
      <point x="493" y="648" type="line"/>
      <point x="300" y="575" type="line"/>
    </contour>
    <contour>
      <point x="276" y="494" type="line"/>
      <point x="402" y="328" type="line"/>
      <point x="459" y="376" type="line"/>
      <point x="326" y="534" type="line"/>
    </contour>
    <contour>
      <point x="244" y="535" type="line"/>
      <point x="110" y="376" type="line"/>
      <point x="168" y="329" type="line"/>
      <point x="293" y="494" type="line"/>
    </contour>
    <contour>
      <point x="269" y="575" type="line"/>
      <point x="75" y="648" type="line"/>
      <point x="50" y="578" type="line"/>
      <point x="248" y="514" type="line"/>
    </contour>
  </outline>
</glyph>
<glyph name="plus" format="1">
  <advance width="583"/>
  <unicode hex="002B"/>
  <outline>
    <contour>
      <point x="38" y="270" type="curve"/>
      <point x="545" y="270" type="line"/>
      <point x="545" y="356"/>
      <point x="545" y="270"/>
      <point x="545" y="356" type="curve"/>
      <point x="38" y="356" type="line"/>
      <point x="38" y="270"/>
      <point x="38" y="356"/>
    </contour>
    <contour>
      <point x="338" y="44" type="curve"/>
      <point x="338" y="582" type="line"/>
      <point x="238" y="582"/>
      <point x="345" y="582"/>
      <point x="244" y="582" type="curve"/>
      <point x="244" y="44" type="line"/>
      <point x="345" y="44"/>
      <point x="238" y="44"/>
    </contour>
  </outline>
</glyph>
<glyph name="comma" format="1">
  <advance width="183"/>
  <unicode hex="002C"/>
  <outline>
    <contour>
      <point x="19" y="-113" type="line"/>
      <point x="90" y="-104"/>
      <point x="138" y="-50"/>
      <point x="138" y="36" type="curve"/>
      <point x="138" y="100"/>
      <point x="115" y="136"/>
      <point x="78" y="136" type="curve"/>
      <point x="45" y="136"/>
      <point x="24" y="118"/>
      <point x="24" y="83" type="curve"/>
      <point x="24" y="55"/>
      <point x="39" y="34"/>
      <point x="68" y="32" type="curve"/>
      <point x="68" y="7"/>
      <point x="63" y="-41"/>
      <point x="13" y="-57" type="curve"/>
    </contour>
  </outline>
</glyph>
<glyph name="hyphen" format="1">
  <advance width="342"/>
  <unicode hex="002D"/>
  <outline>
    <contour>
      <point x="64" y="236" type="curve"/>
      <point x="135" y="236"/>
      <point x="207" y="236"/>
      <point x="277" y="236" type="curve"/>
      <point x="277" y="323"/>
      <point x="277" y="236"/>
      <point x="277" y="323" type="curve"/>
      <point x="207" y="323"/>
      <point x="135" y="323"/>
      <point x="64" y="323" type="curve"/>
      <point x="64" y="236"/>
      <point x="64" y="323"/>
    </contour>
  </outline>
</glyph>
<glyph name="period" format="1">
  <advance width="217"/>
  <unicode hex="002E"/>
  <outline>
    <contour>
      <point x="163" y="44" type="curve"/>
      <point x="163" y="79"/>
      <point x="140" y="97"/>
      <point x="108" y="97" type="curve"/>
      <point x="76" y="97"/>
      <point x="55" y="77"/>
      <point x="55" y="44" type="curve"/>
      <point x="163" y="44"/>
      <point x="55" y="44"/>
      <point x="163" y="44" type="curve"/>
      <point x="163" y="9"/>
      <point x="140" y="-8"/>
      <point x="108" y="-8" type="curve"/>
      <point x="75" y="-8"/>
      <point x="55" y="10"/>
      <point x="55" y="44" type="curve"/>
      <point x="163" y="44"/>
      <point x="55" y="44"/>
    </contour>
  </outline>
</glyph>
<glyph name="slash" format="1">
  <advance width="457"/>
  <unicode hex="002F"/>
  <outline>
    <contour>
      <point x="123" y="-32" type="curve"/>
      <point x="227" y="246"/>
      <point x="331" y="525"/>
      <point x="435" y="804" type="curve"/>
      <point x="334" y="804"/>
      <point x="435" y="804"/>
      <point x="334" y="804" type="curve"/>
      <point x="230" y="525"/>
      <point x="126" y="246"/>
      <point x="22" y="-32" type="curve"/>
      <point x="123" y="-32"/>
      <point x="22" y="-32"/>
    </contour>
  </outline>
</glyph>
<glyph name="zero" format="1">
  <advance width="576"/>
  <unicode hex="0030"/>
  <outline>
    <contour>
      <point x="151" y="360" type="curve"/>
      <point x="151" y="514"/>
      <point x="169" y="645"/>
      <point x="285" y="645" type="curve"/>
      <point x="406" y="645"/>
      <point x="426" y="517"/>
      <point x="426" y="363" type="curve"/>
      <point x="426" y="209"/>
      <point x="408" y="78"/>
      <point x="293" y="78" type="curve"/>
      <point x="174" y="78"/>
      <point x="151" y="206"/>
      <point x="151" y="360" type="curve"/>
      <point x="53" y="360"/>
      <point x="150" y="360"/>
      <point x="52" y="360" type="curve"/>
      <point x="52" y="154"/>
      <point x="110" y="-5"/>
      <point x="288" y="-5" type="curve"/>
      <point x="468" y="-5"/>
      <point x="525" y="154"/>
      <point x="525" y="363" type="curve"/>
      <point x="525" y="568"/>
      <point x="471" y="727"/>
      <point x="295" y="727" type="curve"/>
      <point x="113" y="727"/>
      <point x="52" y="569"/>
      <point x="52" y="360" type="curve"/>
      <point x="150" y="360"/>
      <point x="53" y="360"/>
    </contour>
  </outline>
</glyph>
<glyph name="one" format="1">
  <advance width="334"/>
  <unicode hex="0031"/>
  <outline>
    <contour>
      <point x="74" y="499" type="curve"/>
      <point x="239" y="671"/>
      <point x="74" y="499"/>
      <point x="239" y="671" type="curve"/>
      <point x="164" y="722"/>
      <point x="239" y="671"/>
      <point x="164" y="722" type="curve"/>
      <point x="13" y="562"/>
      <point x="164" y="722"/>
      <point x="13" y="562" type="curve"/>
      <point x="74" y="499"/>
      <point x="13" y="562"/>
    </contour>
    <contour>
      <point x="262" y="0" type="curve"/>
      <point x="262" y="241"/>
      <point x="262" y="481"/>
      <point x="262" y="722" type="curve"/>
      <point x="164" y="722"/>
      <point x="262" y="722"/>
      <point x="164" y="722" type="curve"/>
      <point x="164" y="481"/>
      <point x="164" y="241"/>
      <point x="164" y="0" type="curve"/>
      <point x="262" y="0"/>
      <point x="164" y="0"/>
    </contour>
  </outline>
</glyph>
<glyph name="two" format="1">
  <advance width="461"/>
  <unicode hex="0032"/>
  <outline>
    <contour>
      <point x="39" y="0" type="curve"/>
      <point x="188" y="0"/>
      <point x="316" y="0"/>
      <point x="417" y="0" type="curve"/>
      <point x="417" y="79"/>
      <point x="417" y="0"/>
      <point x="417" y="79" type="curve"/>
      <point x="300" y="79"/>
      <point x="158" y="79"/>
      <point x="40" y="79" type="curve"/>
      <point x="39" y="0"/>
      <point x="40" y="79"/>
    </contour>
    <contour>
      <point x="113" y="534" type="curve"/>
      <point x="143" y="594"/>
      <point x="164" y="645"/>
      <point x="225" y="645" type="curve"/>
      <point x="290" y="645"/>
      <point x="310" y="587"/>
      <point x="310" y="511" type="curve"/>
      <point x="310" y="409"/>
      <point x="256" y="328"/>
      <point x="201" y="266" type="curve"/>
      <point x="147" y="202"/>
      <point x="96" y="143"/>
      <point x="40" y="79" type="curve"/>
      <point x="43" y="0"/>
      <point x="40" y="79"/>
      <point x="43" y="0" type="curve"/>
      <point x="147" y="61"/>
      <point x="207" y="138"/>
      <point x="266" y="208" type="curve"/>
      <point x="341" y="290"/>
      <point x="407" y="384"/>
      <point x="407" y="515" type="curve"/>
      <point x="407" y="643"/>
      <point x="350" y="727"/>
      <point x="229" y="727" type="curve"/>
      <point x="134" y="727"/>
      <point x="76" y="664"/>
      <point x="42" y="575" type="curve"/>
      <point x="113" y="534"/>
      <point x="42" y="575"/>
    </contour>
  </outline>
</glyph>
<glyph name="three" format="1">
  <advance width="450"/>
  <unicode hex="0033"/>
  <outline>
    <contour>
      <point x="40" y="59" type="curve"/>
      <point x="89" y="20"/>
      <point x="130" y="-5"/>
      <point x="193" y="-5" type="curve"/>
      <point x="325" y="-5"/>
      <point x="400" y="70"/>
      <point x="400" y="204" type="curve"/>
      <point x="400" y="327"/>
      <point x="294" y="401"/>
      <point x="129" y="401" type="curve"/>
      <point x="129" y="339"/>
      <point x="129" y="397"/>
      <point x="129" y="335" type="curve"/>
      <point x="232" y="335"/>
      <point x="303" y="281"/>
      <point x="303" y="200" type="curve"/>
      <point x="303" y="126"/>
      <point x="261" y="78"/>
      <point x="197" y="78" type="curve"/>
      <point x="156" y="78"/>
      <point x="128" y="93"/>
      <point x="94" y="118" type="curve"/>
      <point x="40" y="59"/>
      <point x="94" y="118"/>
    </contour>
    <contour>
      <point x="106" y="585" type="curve"/>
      <point x="121" y="611"/>
      <point x="151" y="645"/>
      <point x="191" y="645" type="curve"/>
      <point x="251" y="645"/>
      <point x="280" y="600"/>
      <point x="280" y="534" type="curve"/>
      <point x="280" y="464"/>
      <point x="219" y="416"/>
      <point x="129" y="416" type="curve"/>
      <point x="129" y="354"/>
      <point x="129" y="412"/>
      <point x="129" y="349" type="curve"/>
      <point x="273" y="349"/>
      <point x="376" y="418"/>
      <point x="376" y="537" type="curve"/>
      <point x="376" y="654"/>
      <point x="312" y="727"/>
      <point x="200" y="727" type="curve"/>
      <point x="128" y="727"/>
      <point x="69" y="683"/>
      <point x="41" y="635" type="curve"/>
      <point x="106" y="585"/>
      <point x="41" y="635"/>
    </contour>
  </outline>
</glyph>
<glyph name="four" format="1">
  <advance width="474"/>
  <unicode hex="0034"/>
  <outline>
    <contour>
      <point x="59" y="258" type="line"/>
      <point x="331" y="703" type="line"/>
      <point x="246" y="705" type="line"/>
      <point x="15" y="326" type="line"/>
    </contour>
    <contour>
      <point x="440" y="326" type="line"/>
      <point x="15" y="326" type="line"/>
      <point x="16" y="240" type="line"/>
      <point x="440" y="240" type="line"/>
    </contour>
    <contour>
      <point x="347" y="0" type="line"/>
      <point x="347" y="705" type="line"/>
      <point x="248" y="705" type="line"/>
      <point x="248" y="0" type="line"/>
    </contour>
  </outline>
</glyph>
<glyph name="five" format="1">
  <advance width="442"/>
  <unicode hex="0035"/>
  <outline>
    <contour>
      <point x="64" y="722" type="curve"/>
      <point x="64" y="623"/>
      <point x="64" y="517"/>
      <point x="64" y="388" type="curve"/>
      <point x="160" y="357"/>
      <point x="64" y="388"/>
      <point x="160" y="357" type="curve"/>
      <point x="160" y="450"/>
      <point x="160" y="550"/>
      <point x="160" y="643" type="curve"/>
      <point x="64" y="722"/>
      <point x="160" y="643"/>
    </contour>
    <contour>
      <point x="160" y="357" type="curve"/>
      <point x="170" y="366"/>
      <point x="190" y="377"/>
      <point x="214" y="377" type="curve"/>
      <point x="281" y="377"/>
      <point x="301" y="311"/>
      <point x="301" y="234" type="curve"/>
      <point x="301" y="153"/>
      <point x="270" y="77"/>
      <point x="199" y="77" type="curve"/>
      <point x="157" y="77"/>
      <point x="130" y="89"/>
      <point x="95" y="114" type="curve"/>
      <point x="44" y="43"/>
      <point x="95" y="114"/>
      <point x="44" y="43" type="curve"/>
      <point x="86" y="13"/>
      <point x="142" y="-5"/>
      <point x="204" y="-5" type="curve"/>
      <point x="324" y="-5"/>
      <point x="398" y="100"/>
      <point x="398" y="236" type="curve"/>
      <point x="398" y="362"/>
      <point x="343" y="461"/>
      <point x="228" y="461" type="curve"/>
      <point x="179" y="461"/>
      <point x="134" y="444"/>
      <point x="88" y="388" type="curve"/>
      <point x="162" y="363"/>
      <point x="85" y="382"/>
    </contour>
    <contour>
      <point x="375" y="722" type="curve"/>
      <point x="278" y="722"/>
      <point x="160" y="722"/>
      <point x="64" y="722" type="curve"/>
      <point x="160" y="643"/>
      <point x="64" y="722"/>
      <point x="160" y="643" type="curve"/>
      <point x="224" y="643"/>
      <point x="310" y="643"/>
      <point x="375" y="643" type="curve"/>
      <point x="375" y="722"/>
      <point x="375" y="643"/>
    </contour>
  </outline>
</glyph>
<glyph name="six" format="1">
  <advance width="490"/>
  <unicode hex="0036"/>
  <outline>
    <contour>
      <point x="130" y="216" type="curve"/>
      <point x="146" y="287"/>
      <point x="183" y="353"/>
      <point x="253" y="353" type="curve"/>
      <point x="323" y="353"/>
      <point x="346" y="295"/>
      <point x="346" y="217" type="curve"/>
      <point x="346" y="147"/>
      <point x="322" y="84"/>
      <point x="257" y="84" type="curve"/>
      <point x="174" y="84"/>
      <point x="145" y="158"/>
      <point x="145" y="254" type="curve"/>
      <point x="145" y="452"/>
      <point x="240" y="586"/>
      <point x="429" y="657" type="curve"/>
      <point x="400" y="730"/>
      <point x="429" y="657"/>
      <point x="400" y="730" type="curve"/>
      <point x="175" y="650"/>
      <point x="48" y="494"/>
      <point x="48" y="249" type="curve"/>
      <point x="48" y="98"/>
      <point x="115" y="-10"/>
      <point x="255" y="-10" type="curve"/>
      <point x="382" y="-10"/>
      <point x="447" y="84"/>
      <point x="447" y="218" type="curve"/>
      <point x="447" y="348"/>
      <point x="387" y="436"/>
      <point x="271" y="436" type="curve"/>
      <point x="153" y="436"/>
      <point x="90" y="325"/>
      <point x="81" y="238" type="curve"/>
      <point x="130" y="216"/>
      <point x="82" y="238"/>
    </contour>
  </outline>
</glyph>
<glyph name="seven" format="1">
  <advance width="433"/>
  <unicode hex="0037"/>
  <outline>
    <contour>
      <point x="43" y="643" type="curve"/>
      <point x="417" y="643" type="curve"/>
      <point x="417" y="722" type="curve"/>
      <point x="43" y="722" type="curve"/>
    </contour>
    <contour>
      <point x="352" y="722" type="curve"/>
      <point x="40" y="0" type="curve"/>
      <point x="148" y="0" type="curve"/>
      <point x="417" y="643" type="curve"/>
    </contour>
  </outline>
</glyph>
<glyph name="eight" format="1">
  <advance width="486"/>
  <unicode hex="0038"/>
  <outline>
    <contour>
      <point x="66" y="546" type="curve"/>
      <point x="66" y="446"/>
      <point x="127" y="402"/>
      <point x="214" y="349" type="curve"/>
      <point x="286" y="303"/>
      <point x="336" y="263"/>
      <point x="336" y="185" type="curve"/>
      <point x="336" y="121"/>
      <point x="306" y="78"/>
      <point x="244" y="78" type="curve"/>
      <point x="180" y="78"/>
      <point x="150" y="121"/>
      <point x="150" y="185" type="curve"/>
      <point x="150" y="265"/>
      <point x="201" y="302"/>
      <point x="274" y="348" type="curve"/>
      <point x="358" y="402"/>
      <point x="420" y="446"/>
      <point x="420" y="544" type="curve"/>
      <point x="420" y="660"/>
      <point x="359" y="727"/>
      <point x="244" y="727" type="curve"/>
      <point x="131" y="727"/>
      <point x="66" y="659"/>
      <point x="66" y="546" type="curve"/>
      <point x="164" y="546"/>
      <point x="66" y="546"/>
      <point x="164" y="546" type="curve"/>
      <point x="164" y="602"/>
      <point x="186" y="645"/>
      <point x="241" y="645" type="curve"/>
      <point x="298" y="645"/>
      <point x="322" y="604"/>
      <point x="322" y="544" type="curve"/>
      <point x="322" y="477"/>
      <point x="275" y="444"/>
      <point x="213" y="406" type="curve"/>
      <point x="118" y="346"/>
      <point x="52" y="296"/>
      <point x="52" y="185" type="curve"/>
      <point x="52" y="66"/>
      <point x="119" y="-5"/>
      <point x="239" y="-5" type="curve"/>
      <point x="361" y="-5"/>
      <point x="434" y="64"/>
      <point x="434" y="185" type="curve"/>
      <point x="434" y="295"/>
      <point x="368" y="347"/>
      <point x="275" y="406" type="curve"/>
      <point x="212" y="447"/>
      <point x="164" y="477"/>
      <point x="164" y="546" type="curve"/>
      <point x="66" y="546"/>
      <point x="164" y="546"/>
    </contour>
  </outline>
</glyph>
<glyph name="nine" format="1">
  <advance width="488"/>
  <unicode hex="0039"/>
  <outline>
    <contour>
      <point x="365" y="480" type="curve"/>
      <point x="342" y="413"/>
      <point x="308" y="369"/>
      <point x="238" y="369" type="curve"/>
      <point x="167" y="369"/>
      <point x="138" y="430"/>
      <point x="138" y="508" type="curve"/>
      <point x="138" y="580"/>
      <point x="166" y="638"/>
      <point x="229" y="638" type="curve"/>
      <point x="314" y="638"/>
      <point x="343" y="563"/>
      <point x="343" y="468" type="curve"/>
      <point x="343" y="270"/>
      <point x="255" y="137"/>
      <point x="69" y="63" type="curve"/>
      <point x="107" y="-15"/>
      <point x="69" y="63"/>
      <point x="107" y="-15" type="curve"/>
      <point x="315" y="65"/>
      <point x="440" y="228"/>
      <point x="440" y="473" type="curve"/>
      <point x="440" y="624"/>
      <point x="374" y="732"/>
      <point x="233" y="732" type="curve"/>
      <point x="105" y="732"/>
      <point x="41" y="638"/>
      <point x="41" y="504" type="curve"/>
      <point x="41" y="374"/>
      <point x="105" y="286"/>
      <point x="228" y="286" type="curve"/>
      <point x="335" y="286"/>
      <point x="387" y="379"/>
      <point x="414" y="460" type="curve"/>
      <point x="365" y="480"/>
      <point x="414" y="460"/>
    </contour>
  </outline>
</glyph>
<glyph name="colon" format="1">
  <advance width="233"/>
  <unicode hex="003A"/>
  <outline>
    <contour>
      <point x="169" y="383" type="curve"/>
      <point x="169" y="418"/>
      <point x="146" y="435"/>
      <point x="114" y="435" type="curve"/>
      <point x="82" y="435"/>
      <point x="61" y="416"/>
      <point x="61" y="383" type="curve"/>
      <point x="169" y="383"/>
      <point x="61" y="383"/>
      <point x="169" y="383" type="curve"/>
      <point x="169" y="348"/>
      <point x="146" y="331"/>
      <point x="114" y="331" type="curve"/>
      <point x="81" y="331"/>
      <point x="61" y="349"/>
      <point x="61" y="383" type="curve"/>
      <point x="169" y="383"/>
      <point x="61" y="383"/>
    </contour>
    <contour>
      <point x="169" y="47" type="curve"/>
      <point x="169" y="82"/>
      <point x="146" y="100"/>
      <point x="114" y="100" type="curve"/>
      <point x="82" y="100"/>
      <point x="61" y="80"/>
      <point x="61" y="47" type="curve"/>
      <point x="169" y="47"/>
      <point x="61" y="47"/>
      <point x="169" y="47" type="curve"/>
      <point x="169" y="12"/>
      <point x="146" y="-5"/>
      <point x="114" y="-5" type="curve"/>
      <point x="81" y="-5"/>
      <point x="61" y="13"/>
      <point x="61" y="47" type="curve"/>
      <point x="169" y="47"/>
      <point x="61" y="47"/>
    </contour>
  </outline>
</glyph>
<glyph name="semicolon" format="1">
  <advance width="203"/>
  <unicode hex="003B"/>
  <outline>
    <contour>
      <point x="24" y="-175" type="line"/>
      <point x="101" y="-167"/>
      <point x="152" y="-112"/>
      <point x="152" y="-27" type="curve"/>
      <point x="152" y="38"/>
      <point x="127" y="74"/>
      <point x="88" y="74" type="curve"/>
      <point x="52" y="74"/>
      <point x="29" y="55"/>
      <point x="29" y="21" type="curve"/>
      <point x="29" y="-7"/>
      <point x="45" y="-29"/>
      <point x="77" y="-30" type="curve"/>
      <point x="77" y="-55"/>
      <point x="72" y="-103"/>
      <point x="18" y="-119" type="curve"/>
    </contour>
    <contour>
      <point x="142" y="395" type="curve"/>
      <point x="142" y="429"/>
      <point x="118" y="447"/>
      <point x="87" y="447" type="curve"/>
      <point x="55" y="447"/>
      <point x="34" y="428"/>
      <point x="34" y="395" type="curve"/>
      <point x="142" y="395"/>
      <point x="34" y="395"/>
      <point x="142" y="395" type="curve"/>
      <point x="142" y="359"/>
      <point x="119" y="343"/>
      <point x="87" y="343" type="curve"/>
      <point x="54" y="343"/>
      <point x="34" y="360"/>
      <point x="34" y="395" type="curve"/>
      <point x="142" y="395"/>
      <point x="34" y="395"/>
    </contour>
  </outline>
</glyph>
<glyph name="less" format="1">
  <advance width="532"/>
  <unicode hex="003C"/>
  <outline>
    <contour>
      <point x="476" y="614" type="curve"/>
      <point x="327" y="524"/>
      <point x="179" y="434"/>
      <point x="30" y="344" type="curve"/>
      <point x="30" y="256"/>
      <point x="30" y="344"/>
      <point x="30" y="256" type="curve"/>
      <point x="179" y="346"/>
      <point x="327" y="436"/>
      <point x="476" y="526" type="curve"/>
      <point x="476" y="614"/>
      <point x="476" y="526"/>
    </contour>
    <contour>
      <point x="483" y="80" type="curve"/>
      <point x="332" y="168"/>
      <point x="181" y="256"/>
      <point x="30" y="344" type="curve"/>
      <point x="30" y="256"/>
      <point x="30" y="344"/>
      <point x="30" y="256" type="curve"/>
      <point x="181" y="168"/>
      <point x="332" y="80"/>
      <point x="483" y="-8" type="curve"/>
      <point x="483" y="80"/>
      <point x="483" y="-8"/>
    </contour>
  </outline>
</glyph>
<glyph name="equal" format="1">
  <advance width="565"/>
  <unicode hex="003D"/>
  <outline>
    <contour>
      <point x="57" y="176" type="curve"/>
      <point x="210" y="176"/>
      <point x="364" y="176"/>
      <point x="517" y="176" type="curve"/>
      <point x="517" y="259"/>
      <point x="517" y="176"/>
      <point x="517" y="259" type="curve"/>
      <point x="364" y="259"/>
      <point x="210" y="259"/>
      <point x="57" y="259" type="curve"/>
      <point x="57" y="176"/>
      <point x="57" y="259"/>
    </contour>
    <contour>
      <point x="57" y="398" type="curve"/>
      <point x="210" y="398"/>
      <point x="364" y="398"/>
      <point x="517" y="398" type="curve"/>
      <point x="517" y="481"/>
      <point x="517" y="398"/>
      <point x="517" y="481" type="curve"/>
      <point x="364" y="481"/>
      <point x="210" y="481"/>
      <point x="57" y="481" type="curve"/>
      <point x="57" y="398"/>
      <point x="57" y="481"/>
    </contour>
  </outline>
</glyph>
<glyph name="greater" format="1">
  <advance width="533"/>
  <unicode hex="003E"/>
  <outline>
    <contour>
      <point x="55" y="-8" type="curve"/>
      <point x="204" y="82"/>
      <point x="353" y="172"/>
      <point x="501" y="262" type="curve"/>
      <point x="501" y="350"/>
      <point x="501" y="262"/>
      <point x="501" y="350" type="curve"/>
      <point x="353" y="260"/>
      <point x="204" y="170"/>
      <point x="55" y="80" type="curve"/>
      <point x="55" y="-8"/>
      <point x="55" y="80"/>
    </contour>
    <contour>
      <point x="48" y="526" type="curve"/>
      <point x="199" y="438"/>
      <point x="350" y="350"/>
      <point x="501" y="262" type="curve"/>
      <point x="501" y="350"/>
      <point x="501" y="262"/>
      <point x="501" y="350" type="curve"/>
      <point x="350" y="438"/>
      <point x="199" y="526"/>
      <point x="48" y="614" type="curve"/>
      <point x="48" y="526"/>
      <point x="48" y="614"/>
    </contour>
  </outline>
</glyph>
<glyph name="question" format="1">
  <advance width="445"/>
  <unicode hex="003F"/>
  <outline>
    <contour>
      <point x="169" y="364" type="curve"/>
      <point x="169" y="327"/>
      <point x="169" y="258"/>
      <point x="169" y="221" type="curve"/>
      <point x="261" y="221"/>
      <point x="169" y="221"/>
      <point x="261" y="221" type="curve"/>
      <point x="261" y="258"/>
      <point x="261" y="327"/>
      <point x="261" y="364" type="curve"/>
      <point x="169" y="364"/>
      <point x="261" y="364"/>
    </contour>
    <contour>
      <point x="99" y="595" type="line"/>
      <point x="126" y="630"/>
      <point x="156" y="653"/>
      <point x="202" y="653" type="curve"/>
      <point x="274" y="653"/>
      <point x="308" y="595"/>
      <point x="308" y="518" type="curve"/>
      <point x="308" y="430"/>
      <point x="264" y="364"/>
      <point x="180" y="364" type="curve"/>
      <point x="180" y="330"/>
      <point x="179" y="320"/>
      <point x="179" y="287" type="curve"/>
      <point x="320" y="287"/>
      <point x="405" y="380"/>
      <point x="405" y="518" type="curve"/>
      <point x="405" y="650"/>
      <point x="329" y="737"/>
      <point x="207" y="737" type="curve"/>
      <point x="133" y="737"/>
      <point x="81" y="708"/>
      <point x="44" y="658" type="curve"/>
    </contour>
    <contour>
      <point x="270" y="44" type="curve"/>
      <point x="270" y="79"/>
      <point x="247" y="97"/>
      <point x="215" y="97" type="curve"/>
      <point x="183" y="97"/>
      <point x="162" y="77"/>
      <point x="162" y="44" type="curve"/>
      <point x="270" y="44"/>
      <point x="162" y="44"/>
      <point x="270" y="44" type="curve"/>
      <point x="270" y="9"/>
      <point x="247" y="-8"/>
      <point x="215" y="-8" type="curve"/>
      <point x="182" y="-8"/>
      <point x="162" y="10"/>
      <point x="162" y="44" type="curve"/>
      <point x="270" y="44"/>
      <point x="162" y="44"/>
    </contour>
  </outline>
</glyph>
<glyph name="at" format="1">
  <advance width="680"/>
  <unicode hex="0040"/>
  <outline>
    <contour>
      <point x="449" y="-40" type="curve"/>
      <point x="418" y="-62"/>
      <point x="392" y="-70"/>
      <point x="353" y="-70" type="curve"/>
      <point x="208" y="-70"/>
      <point x="136" y="46"/>
      <point x="136" y="205" type="curve"/>
      <point x="136" y="358"/>
      <point x="205" y="471"/>
      <point x="345" y="471" type="curve"/>
      <point x="479" y="471"/>
      <point x="544" y="359"/>
      <point x="544" y="211" type="curve"/>
      <point x="544" y="151"/>
      <point x="544" y="97"/>
      <point x="515" y="97" type="curve"/>
      <point x="485" y="97"/>
      <point x="486" y="148"/>
      <point x="486" y="209" type="curve"/>
      <point x="486" y="317"/>
      <point x="440" y="396"/>
      <point x="340" y="396" type="curve"/>
      <point x="233" y="396"/>
      <point x="191" y="320"/>
      <point x="191" y="207" type="curve"/>
      <point x="191" y="92"/>
      <point x="227" y="10"/>
      <point x="332" y="10" type="curve"/>
      <point x="427" y="10"/>
      <point x="460" y="89"/>
      <point x="471" y="193" type="curve"/>
      <point x="408" y="208"/>
      <point x="471" y="193"/>
      <point x="408" y="208" type="curve"/>
      <point x="397" y="149"/>
      <point x="396" y="89"/>
      <point x="343" y="89" type="curve"/>
      <point x="292" y="89"/>
      <point x="280" y="144"/>
      <point x="280" y="211" type="curve"/>
      <point x="280" y="269"/>
      <point x="288" y="317"/>
      <point x="335" y="317" type="curve"/>
      <point x="390" y="317"/>
      <point x="394" y="267"/>
      <point x="394" y="205" type="curve"/>
      <point x="394" y="103"/>
      <point x="416" y="22"/>
      <point x="507" y="22" type="curve"/>
      <point x="604" y="22"/>
      <point x="630" y="106"/>
      <point x="630" y="215" type="curve"/>
      <point x="630" y="415"/>
      <point x="536" y="553"/>
      <point x="347" y="553" type="curve"/>
      <point x="147" y="553"/>
      <point x="46" y="412"/>
      <point x="46" y="201" type="curve"/>
      <point x="46" y="-8"/>
      <point x="151" y="-149"/>
      <point x="349" y="-149" type="curve"/>
      <point x="407" y="-149"/>
      <point x="441" y="-140"/>
      <point x="489" y="-107" type="curve"/>
      <point x="449" y="-40"/>
      <point x="489" y="-107"/>
    </contour>
  </outline>
</glyph>
<glyph name="B" format="1">
  <advance width="525"/>
  <unicode hex="0042"/>
  <outline>
    <contour>
      <point x="131" y="643" type="curve"/>
      <point x="179" y="643"/>
      <point x="211" y="643"/>
      <point x="258" y="643" type="curve"/>
      <point x="319" y="643"/>
      <point x="347" y="602"/>
      <point x="347" y="543" type="curve"/>
      <point x="347" y="486"/>
      <point x="320" y="445"/>
      <point x="263" y="445" type="curve"/>
      <point x="214" y="445"/>
      <point x="181" y="445"/>
      <point x="131" y="445" type="curve"/>
      <point x="131" y="416"/>
      <point x="131" y="396"/>
      <point x="131" y="366" type="curve"/>
      <point x="168" y="366"/>
      <point x="193" y="366"/>
      <point x="230" y="366" type="curve"/>
      <point x="340" y="366"/>
      <point x="446" y="419"/>
      <point x="446" y="539" type="curve"/>
      <point x="446" y="653"/>
      <point x="379" y="722"/>
      <point x="265" y="722" type="curve"/>
      <point x="214" y="722"/>
      <point x="182" y="722"/>
      <point x="131" y="722" type="curve"/>
      <point x="131" y="692"/>
      <point x="131" y="673"/>
    </contour>
    <contour>
      <point x="192" y="0" type="curve"/>
      <point x="192" y="241"/>
      <point x="192" y="481"/>
      <point x="192" y="722" type="curve"/>
      <point x="87" y="722"/>
      <point x="192" y="722"/>
      <point x="87" y="722" type="curve"/>
      <point x="87" y="481"/>
      <point x="87" y="241"/>
      <point x="87" y="0" type="curve"/>
      <point x="192" y="0"/>
      <point x="87" y="0"/>
    </contour>
    <contour>
      <point x="131" y="366" type="curve"/>
      <point x="181" y="366"/>
      <point x="214" y="366"/>
      <point x="263" y="366" type="curve"/>
      <point x="347" y="366"/>
      <point x="381" y="304"/>
      <point x="381" y="219" type="curve"/>
      <point x="381" y="136"/>
      <point x="343" y="79"/>
      <point x="262" y="79" type="curve"/>
      <point x="212" y="79"/>
      <point x="181" y="79"/>
      <point x="131" y="79" type="curve"/>
      <point x="131" y="49"/>
      <point x="131" y="30"/>
      <point x="131" y="0" type="curve"/>
      <point x="183" y="0"/>
      <point x="216" y="0"/>
      <point x="268" y="0" type="curve"/>
      <point x="402" y="0"/>
      <point x="482" y="82"/>
      <point x="482" y="217" type="curve"/>
      <point x="482" y="366"/>
      <point x="375" y="445"/>
      <point x="230" y="445" type="curve"/>
      <point x="193" y="445"/>
      <point x="168" y="445"/>
      <point x="131" y="445" type="curve"/>
      <point x="131" y="416"/>
      <point x="131" y="396"/>
    </contour>
  </outline>
</glyph>
<glyph name="C" format="1">
  <advance width="543"/>
  <unicode hex="0043"/>
  <outline>
    <contour>
      <point x="514" y="654" type="curve"/>
      <point x="461" y="696"/>
      <point x="397" y="727"/>
      <point x="323" y="727" type="curve"/>
      <point x="127" y="727"/>
      <point x="49" y="566"/>
      <point x="49" y="345" type="curve"/>
      <point x="49" y="142"/>
      <point x="124" y="-5"/>
      <point x="309" y="-5" type="curve"/>
      <point x="405" y="-5"/>
      <point x="468" y="31"/>
      <point x="527" y="98" type="curve"/>
      <point x="467" y="157"/>
      <point x="526" y="98"/>
      <point x="467" y="157" type="curve"/>
      <point x="422" y="109"/>
      <point x="381" y="78"/>
      <point x="313" y="78" type="curve"/>
      <point x="183" y="78"/>
      <point x="149" y="198"/>
      <point x="149" y="348" type="curve"/>
      <point x="149" y="512"/>
      <point x="182" y="644"/>
      <point x="319" y="644" type="curve"/>
      <point x="374" y="644"/>
      <point x="421" y="622"/>
      <point x="459" y="592" type="curve"/>
      <point x="514" y="654"/>
      <point x="459" y="592"/>
    </contour>
    <contour>
      <point x="317" y="796" type="move" name="top"/>
    </contour>
    <contour>
      <point x="336" y="1" type="move" name="bottom"/>
    </contour>
  </outline>
</glyph>
<glyph name="D" format="1">
  <advance width="607"/>
  <unicode hex="0044"/>
  <outline>
    <contour>
      <point x="87" y="722" type="curve"/>
      <point x="87" y="481"/>
      <point x="87" y="241"/>
      <point x="87" y="0" type="curve"/>
      <point x="187" y="0"/>
      <point x="87" y="0"/>
      <point x="187" y="0" type="curve"/>
      <point x="187" y="241"/>
      <point x="187" y="481"/>
      <point x="187" y="722" type="curve"/>
      <point x="87" y="722"/>
      <point x="187" y="722"/>
    </contour>
    <contour>
      <point x="138" y="0" type="curve"/>
      <point x="185" y="0"/>
      <point x="226" y="0"/>
      <point x="274" y="0" type="curve"/>
      <point x="473" y="0"/>
      <point x="557" y="141"/>
      <point x="557" y="355" type="curve"/>
      <point x="557" y="575"/>
      <point x="474" y="722"/>
      <point x="269" y="722" type="curve"/>
      <point x="224" y="722"/>
      <point x="184" y="722"/>
      <point x="138" y="722" type="curve"/>
      <point x="138" y="648"/>
      <point x="138" y="717"/>
      <point x="138" y="643" type="curve"/>
      <point x="183" y="643"/>
      <point x="221" y="643"/>
      <point x="265" y="643" type="curve"/>
      <point x="415" y="643"/>
      <point x="457" y="521"/>
      <point x="457" y="353" type="curve"/>
      <point x="457" y="196"/>
      <point x="420" y="79"/>
      <point x="283" y="79" type="curve"/>
      <point x="233" y="79"/>
      <point x="189" y="79"/>
      <point x="138" y="79" type="curve"/>
      <point x="138" y="5"/>
      <point x="138" y="74"/>
    </contour>
    <contour>
      <point x="247" y="796" type="move" name="top"/>
    </contour>
  </outline>
</glyph>
<glyph name="F" format="1">
  <advance width="451"/>
  <unicode hex="0046"/>
  <outline>
    <contour>
      <point x="140" y="333" type="curve"/>
      <point x="219" y="333"/>
      <point x="297" y="333"/>
      <point x="376" y="333" type="curve"/>
      <point x="376" y="413"/>
      <point x="376" y="333"/>
      <point x="376" y="413" type="curve"/>
      <point x="297" y="413"/>
      <point x="219" y="413"/>
      <point x="140" y="413" type="curve"/>
      <point x="140" y="333"/>
      <point x="140" y="413"/>
    </contour>
    <contour>
      <point x="187" y="0" type="curve"/>
      <point x="187" y="722" type="line"/>
      <point x="87" y="722"/>
      <point x="187" y="722"/>
      <point x="87" y="722" type="curve"/>
      <point x="87" y="481"/>
      <point x="87" y="241"/>
      <point x="87" y="0" type="curve"/>
      <point x="187" y="0"/>
      <point x="87" y="0"/>
    </contour>
    <contour>
      <point x="129" y="643" type="curve"/>
      <point x="229" y="643"/>
      <point x="329" y="643"/>
      <point x="429" y="643" type="curve"/>
      <point x="429" y="722"/>
      <point x="429" y="643"/>
      <point x="429" y="722" type="curve"/>
      <point x="329" y="722"/>
      <point x="229" y="722"/>
      <point x="129" y="722" type="curve"/>
      <point x="129" y="643"/>
      <point x="129" y="722"/>
    </contour>
  </outline>
</glyph>
<glyph name="G" format="1">
  <advance width="620"/>
  <unicode hex="0047"/>
  <outline>
    <contour>
      <point x="539" y="352" type="curve"/>
      <point x="486" y="352"/>
      <point x="432" y="352"/>
      <point x="378" y="352" type="curve"/>
      <point x="378" y="273"/>
      <point x="378" y="352"/>
      <point x="378" y="273" type="curve"/>
      <point x="432" y="273"/>
      <point x="486" y="273"/>
      <point x="539" y="273" type="curve"/>
      <point x="539" y="352"/>
      <point x="539" y="273"/>
    </contour>
    <contour>
      <point x="566" y="78" type="curve"/>
      <point x="566" y="170"/>
      <point x="566" y="261"/>
      <point x="566" y="352" type="curve"/>
      <point x="474" y="352"/>
      <point x="566" y="352"/>
      <point x="474" y="352" type="curve"/>
      <point x="474" y="261"/>
      <point x="474" y="170"/>
      <point x="474" y="78" type="curve"/>
      <point x="566" y="78"/>
      <point x="474" y="78"/>
    </contour>
    <contour>
      <point x="554" y="644" type="curve"/>
      <point x="486" y="700"/>
      <point x="418" y="727"/>
      <point x="330" y="727" type="curve"/>
      <point x="134" y="727"/>
      <point x="48" y="576"/>
      <point x="48" y="362" type="curve"/>
      <point x="48" y="144"/>
      <point x="139" y="-5"/>
      <point x="338" y="-5" type="curve"/>
      <point x="432" y="-5"/>
      <point x="490" y="24"/>
      <point x="566" y="78" type="curve"/>
      <point x="515" y="139"/>
      <point x="566" y="78"/>
      <point x="515" y="139" type="curve"/>
      <point x="463" y="99"/>
      <point x="410" y="78"/>
      <point x="338" y="78" type="curve"/>
      <point x="193" y="78"/>
      <point x="149" y="204"/>
      <point x="149" y="370" type="curve"/>
      <point x="149" y="524"/>
      <point x="194" y="644"/>
      <point x="330" y="644" type="curve"/>
      <point x="399" y="644"/>
      <point x="450" y="621"/>
      <point x="503" y="577" type="curve"/>
      <point x="554" y="644"/>
      <point x="503" y="577"/>
    </contour>
    <contour>
      <point x="327" y="796" type="move" name="top"/>
    </contour>
    <contour>
      <point x="363" y="-28" type="move" name="bottom"/>
    </contour>
  </outline>
</glyph>
<glyph name="H" format="1">
  <advance width="638"/>
  <unicode hex="0048"/>
  <outline>
    <contour>
      <point x="187" y="0" type="curve"/>
      <point x="187" y="722" type="line"/>
      <point x="87" y="722"/>
      <point x="187" y="722"/>
      <point x="87" y="722" type="curve"/>
      <point x="87" y="481"/>
      <point x="87" y="241"/>
      <point x="87" y="0" type="curve"/>
      <point x="187" y="0"/>
      <point x="87" y="0"/>
    </contour>
    <contour>
      <point x="499" y="402" type="curve"/>
      <point x="378" y="402"/>
      <point x="258" y="402"/>
      <point x="137" y="402" type="curve"/>
      <point x="137" y="323"/>
      <point x="137" y="402"/>
      <point x="137" y="323" type="curve"/>
      <point x="258" y="323"/>
      <point x="378" y="323"/>
      <point x="499" y="323" type="curve"/>
      <point x="499" y="402"/>
      <point x="499" y="323"/>
    </contour>
    <contour>
      <point x="551" y="0" type="curve"/>
      <point x="551" y="220"/>
      <point x="551" y="502"/>
      <point x="551" y="722" type="curve"/>
      <point x="450" y="722"/>
      <point x="551" y="722"/>
      <point x="450" y="722" type="curve"/>
      <point x="450" y="0" type="line"/>
      <point x="551" y="0"/>
      <point x="450" y="0"/>
    </contour>
  </outline>
</glyph>
<glyph name="I" format="1">
  <advance width="274"/>
  <unicode hex="0049"/>
  <outline>
    <contour>
      <point x="187" y="0" type="curve"/>
      <point x="187" y="241"/>
      <point x="187" y="481"/>
      <point x="187" y="722" type="curve"/>
      <point x="87" y="722"/>
      <point x="187" y="722"/>
      <point x="87" y="722" type="curve"/>
      <point x="87" y="481"/>
      <point x="87" y="241"/>
      <point x="87" y="0" type="curve"/>
      <point x="187" y="0"/>
      <point x="87" y="0"/>
    </contour>
    <contour>
      <point x="139" y="796" type="move" name="top"/>
    </contour>
    <contour>
      <point x="180" y="3" type="move" name="bottom"/>
    </contour>
  </outline>
</glyph>
<glyph name="J" format="1">
  <advance width="368"/>
  <unicode hex="004A"/>
  <outline>
    <contour>
      <point x="4" y="43" type="curve"/>
      <point x="30" y="20"/>
      <point x="65" y="-4"/>
      <point x="112" y="-4" type="curve"/>
      <point x="239" y="-4"/>
      <point x="287" y="84"/>
      <point x="287" y="235" type="curve"/>
      <point x="287" y="404"/>
      <point x="287" y="552"/>
      <point x="287" y="722" type="curve"/>
      <point x="192" y="722"/>
      <point x="282" y="722"/>
      <point x="187" y="722" type="curve"/>
      <point x="187" y="552"/>
      <point x="187" y="404"/>
      <point x="187" y="235" type="curve"/>
      <point x="187" y="149"/>
      <point x="183" y="76"/>
      <point x="112" y="76" type="curve"/>
      <point x="85" y="76"/>
      <point x="69" y="91"/>
      <point x="51" y="105" type="curve"/>
      <point x="7" y="46"/>
      <point x="48" y="101"/>
    </contour>
  </outline>
</glyph>
<glyph name="K" format="1">
  <advance width="553"/>
  <unicode hex="004B"/>
  <outline>
    <contour>
      <point x="412" y="722" type="curve"/>
      <point x="172" y="380" type="line"/>
      <point x="282" y="380"/>
      <point x="180" y="380"/>
      <point x="290" y="380" type="curve"/>
      <point x="529" y="722" type="line"/>
      <point x="452" y="722"/>
      <point x="489" y="722"/>
    </contour>
    <contour>
      <point x="187" y="0" type="curve"/>
      <point x="187" y="722" type="line"/>
      <point x="87" y="722"/>
      <point x="187" y="722"/>
      <point x="87" y="722" type="curve"/>
      <point x="87" y="481"/>
      <point x="87" y="241"/>
      <point x="87" y="0" type="curve"/>
      <point x="187" y="0"/>
      <point x="87" y="0"/>
    </contour>
    <contour>
      <point x="545" y="0" type="curve"/>
      <point x="290" y="380" type="line"/>
      <point x="180" y="380"/>
      <point x="282" y="380"/>
      <point x="172" y="380" type="curve"/>
      <point x="429" y="0" type="line"/>
      <point x="515" y="0"/>
      <point x="459" y="0"/>
    </contour>
    <contour>
      <point x="310" y="-28" type="move" name="bottom"/>
    </contour>
  </outline>
</glyph>
<glyph name="L" format="1">
  <advance width="457"/>
  <unicode hex="004C"/>
  <outline>
    <contour>
      <point x="187" y="0" type="curve"/>
      <point x="187" y="241"/>
      <point x="187" y="481"/>
      <point x="187" y="722" type="curve"/>
      <point x="87" y="722"/>
      <point x="187" y="722"/>
      <point x="87" y="722" type="curve"/>
      <point x="87" y="481"/>
      <point x="87" y="241"/>
      <point x="87" y="0" type="curve"/>
      <point x="187" y="0"/>
      <point x="87" y="0"/>
    </contour>
    <contour>
      <point x="136" y="0" type="curve"/>
      <point x="239" y="0"/>
      <point x="342" y="0"/>
      <point x="445" y="0" type="curve"/>
      <point x="445" y="79"/>
      <point x="445" y="0"/>
      <point x="445" y="79" type="curve"/>
      <point x="342" y="79"/>
      <point x="239" y="79"/>
      <point x="136" y="79" type="curve"/>
      <point x="136" y="0"/>
      <point x="136" y="79"/>
    </contour>
    <contour>
      <point x="137" y="796" type="move" name="top"/>
    </contour>
    <contour>
      <point x="271" y="-26" type="move" name="bottom"/>
    </contour>
  </outline>
</glyph>
<glyph name="M" format="1">
  <advance width="723"/>
  <unicode hex="004D"/>
  <outline>
    <contour>
      <point x="665" y="0" type="curve"/>
      <point x="649" y="241"/>
      <point x="631" y="481"/>
      <point x="616" y="722" type="curve"/>
      <point x="524" y="722"/>
      <point x="616" y="722"/>
      <point x="524" y="722" type="curve"/>
      <point x="539" y="481"/>
      <point x="550" y="241"/>
      <point x="564" y="0" type="curve"/>
      <point x="665" y="0"/>
      <point x="564" y="0"/>
    </contour>
    <contour>
      <point x="148" y="0" type="curve"/>
      <point x="162" y="241"/>
      <point x="175" y="481"/>
      <point x="189" y="722" type="curve"/>
      <point x="104" y="722"/>
      <point x="189" y="722"/>
      <point x="104" y="722" type="curve"/>
      <point x="89" y="481"/>
      <point x="75" y="241"/>
      <point x="61" y="0" type="curve"/>
      <point x="148" y="0"/>
      <point x="61" y="0"/>
    </contour>
    <contour>
      <point x="397" y="0" type="curve"/>
      <point x="329" y="241"/>
      <point x="259" y="481"/>
      <point x="191" y="722" type="curve"/>
      <point x="106" y="722"/>
      <point x="191" y="722"/>
      <point x="106" y="722" type="curve"/>
      <point x="174" y="481"/>
      <point x="242" y="241"/>
      <point x="311" y="0" type="curve"/>
      <point x="397" y="0"/>
      <point x="311" y="0"/>
    </contour>
    <contour>
      <point x="404" y="0" type="curve"/>
      <point x="471" y="241"/>
      <point x="539" y="481"/>
      <point x="605" y="722" type="curve"/>
      <point x="520" y="722"/>
      <point x="605" y="722"/>
      <point x="520" y="722" type="curve"/>
      <point x="452" y="481"/>
      <point x="384" y="241"/>
      <point x="317" y="0" type="curve"/>
      <point x="404" y="0"/>
      <point x="317" y="0"/>
    </contour>
  </outline>
</glyph>
<glyph name="N" format="1">
  <advance width="670"/>
  <unicode hex="004E"/>
  <outline>
    <contour>
      <point x="584" y="0" type="curve"/>
      <point x="453" y="241"/>
      <point x="322" y="481"/>
      <point x="192" y="722" type="curve"/>
      <point x="86" y="722"/>
      <point x="192" y="722"/>
      <point x="87" y="722" type="curve"/>
      <point x="217" y="481"/>
      <point x="348" y="241"/>
      <point x="479" y="0" type="curve"/>
      <point x="584" y="0"/>
      <point x="478" y="0"/>
    </contour>
    <contour>
      <point x="483" y="722" type="curve"/>
      <point x="483" y="481"/>
      <point x="483" y="241"/>
      <point x="483" y="0" type="curve"/>
      <point x="583" y="0"/>
      <point x="483" y="0"/>
      <point x="583" y="0" type="curve"/>
      <point x="583" y="241"/>
      <point x="583" y="481"/>
      <point x="583" y="722" type="curve"/>
      <point x="483" y="722"/>
      <point x="583" y="722"/>
    </contour>
    <contour>
      <point x="188" y="0" type="curve"/>
      <point x="188" y="241"/>
      <point x="188" y="481"/>
      <point x="188" y="722" type="curve"/>
      <point x="87" y="722"/>
      <point x="188" y="722"/>
      <point x="87" y="722" type="curve"/>
      <point x="87" y="481"/>
      <point x="87" y="241"/>
      <point x="87" y="0" type="curve"/>
      <point x="188" y="0"/>
      <point x="87" y="0"/>
    </contour>
    <contour>
      <point x="338" y="796" type="move" name="top"/>
    </contour>
    <contour>
      <point x="376" y="-28" type="move" name="bottom"/>
    </contour>
  </outline>
</glyph>
<glyph name="P" format="1">
  <advance width="488"/>
  <unicode hex="0050"/>
  <outline>
    <contour>
      <point x="123" y="308" type="curve"/>
      <point x="167" y="279"/>
      <point x="214" y="262"/>
      <point x="269" y="262" type="curve"/>
      <point x="385" y="264"/>
      <point x="453" y="348"/>
      <point x="453" y="482" type="curve"/>
      <point x="453" y="622"/>
      <point x="374" y="722"/>
      <point x="239" y="722" type="curve"/>
      <point x="206" y="722"/>
      <point x="173" y="722"/>
      <point x="140" y="722" type="curve"/>
      <point x="140" y="643"/>
      <point x="140" y="722"/>
      <point x="140" y="643" type="curve"/>
      <point x="169" y="643"/>
      <point x="197" y="643"/>
      <point x="226" y="643" type="curve"/>
      <point x="311" y="643"/>
      <point x="352" y="574"/>
      <point x="352" y="485" type="curve"/>
      <point x="352" y="403"/>
      <point x="326" y="338"/>
      <point x="256" y="338" type="curve"/>
      <point x="215" y="338"/>
      <point x="189" y="352"/>
      <point x="155" y="374" type="curve"/>
      <point x="124" y="310"/>
      <point x="155" y="373"/>
    </contour>
    <contour>
      <point x="187" y="0" type="curve"/>
      <point x="187" y="241"/>
      <point x="187" y="481"/>
      <point x="187" y="722" type="curve"/>
      <point x="87" y="722"/>
      <point x="187" y="722"/>
      <point x="87" y="722" type="curve"/>
      <point x="87" y="481"/>
      <point x="87" y="241"/>
      <point x="87" y="0" type="curve"/>
      <point x="187" y="0"/>
      <point x="87" y="0"/>
    </contour>
  </outline>
</glyph>
<glyph name="Q" format="1">
  <advance width="647"/>
  <unicode hex="0051"/>
  <outline>
    <contour>
      <point x="275" y="19" type="curve"/>
      <point x="346" y="-145"/>
      <point x="442" y="-221"/>
      <point x="608" y="-221" type="curve"/>
      <point x="608" y="-138"/>
      <point x="608" y="-221"/>
      <point x="608" y="-138" type="curve"/>
      <point x="482" y="-138"/>
      <point x="417" y="-69"/>
      <point x="361" y="58" type="curve"/>
      <point x="275" y="19"/>
      <point x="361" y="58"/>
    </contour>
    <contour>
      <point x="149" y="360" type="curve"/>
      <point x="149" y="511"/>
      <point x="178" y="640"/>
      <point x="309" y="640" type="curve"/>
      <point x="440" y="640"/>
      <point x="473" y="513"/>
      <point x="473" y="361" type="curve"/>
      <point x="473" y="210"/>
      <point x="446" y="78"/>
      <point x="315" y="78" type="curve"/>
      <point x="182" y="78"/>
      <point x="149" y="207"/>
      <point x="149" y="360" type="curve"/>
      <point x="49" y="360"/>
      <point x="149" y="360"/>
      <point x="49" y="360" type="curve"/>
      <point x="49" y="155"/>
      <point x="126" y="-5"/>
      <point x="311" y="-5" type="curve"/>
      <point x="498" y="-5"/>
      <point x="574" y="158"/>
      <point x="574" y="365" type="curve"/>
      <point x="574" y="569"/>
      <point x="501" y="730"/>
      <point x="316" y="730" type="curve"/>
      <point x="128" y="730"/>
      <point x="49" y="567"/>
      <point x="49" y="360" type="curve"/>
      <point x="149" y="360"/>
      <point x="49" y="360"/>
    </contour>
  </outline>
</glyph>
<glyph name="R" format="1">
  <advance width="530"/>
  <unicode hex="0052"/>
  <outline>
    <contour>
      <point x="233" y="354" type="curve"/>
      <point x="296" y="236"/>
      <point x="358" y="118"/>
      <point x="421" y="0" type="curve"/>
      <point x="526" y="0"/>
      <point x="423" y="0"/>
      <point x="528" y="0" type="curve"/>
      <point x="466" y="118"/>
      <point x="403" y="236"/>
      <point x="341" y="354" type="curve"/>
      <point x="235" y="354"/>
      <point x="339" y="354"/>
    </contour>
    <contour>
      <point x="187" y="0" type="curve"/>
      <point x="187" y="241"/>
      <point x="187" y="481"/>
      <point x="187" y="722" type="curve"/>
      <point x="87" y="722"/>
      <point x="187" y="722"/>
      <point x="87" y="722" type="curve"/>
      <point x="87" y="481"/>
      <point x="87" y="241"/>
      <point x="87" y="0" type="curve"/>
      <point x="187" y="0"/>
      <point x="87" y="0"/>
    </contour>
    <contour>
      <point x="139" y="312" type="curve"/>
      <point x="183" y="312"/>
      <point x="227" y="312"/>
      <point x="271" y="312" type="curve"/>
      <point x="395" y="312"/>
      <point x="466" y="392"/>
      <point x="466" y="525" type="curve"/>
      <point x="466" y="649"/>
      <point x="395" y="722"/>
      <point x="273" y="722" type="curve"/>
      <point x="227" y="722"/>
      <point x="185" y="722"/>
      <point x="139" y="722" type="curve"/>
      <point x="139" y="643"/>
      <point x="139" y="722"/>
      <point x="139" y="643" type="curve"/>
      <point x="179" y="643"/>
      <point x="215" y="643"/>
      <point x="255" y="643" type="curve"/>
      <point x="328" y="643"/>
      <point x="365" y="593"/>
      <point x="365" y="518" type="curve"/>
      <point x="365" y="444"/>
      <point x="337" y="392"/>
      <point x="269" y="392" type="curve"/>
      <point x="226" y="392"/>
      <point x="182" y="392"/>
      <point x="139" y="392" type="curve"/>
      <point x="139" y="312"/>
      <point x="139" y="392"/>
    </contour>
    <contour>
      <point x="235" y="796" type="move" name="top"/>
    </contour>
    <contour>
      <point x="340" y="-29" type="move" name="bottom"/>
    </contour>
  </outline>
</glyph>
<glyph name="S" format="1">
  <advance width="453"/>
  <unicode hex="0053"/>
  <outline>
    <contour>
      <point x="43" y="55" type="curve"/>
      <point x="91" y="16"/>
      <point x="142" y="-5"/>
      <point x="210" y="-5" type="curve"/>
      <point x="332" y="-5"/>
      <point x="417" y="65"/>
      <point x="417" y="185" type="curve"/>
      <point x="417" y="293"/>
      <point x="349" y="351"/>
      <point x="256" y="408" type="curve"/>
      <point x="194" y="446"/>
      <point x="143" y="487"/>
      <point x="143" y="548" type="curve"/>
      <point x="141" y="602"/>
      <point x="171" y="645"/>
      <point x="222" y="645" type="curve"/>
      <point x="267" y="645"/>
      <point x="306" y="619"/>
      <point x="332" y="599" type="curve"/>
      <point x="376" y="658"/>
      <point x="335" y="603"/>
      <point x="379" y="662" type="curve"/>
      <point x="332" y="700"/>
      <point x="287" y="720"/>
      <point x="224" y="720" type="curve"/>
      <point x="114" y="720"/>
      <point x="42" y="653"/>
      <point x="42" y="544" type="curve"/>
      <point x="42" y="443"/>
      <point x="106" y="386"/>
      <point x="193" y="334" type="curve"/>
      <point x="260" y="292"/>
      <point x="316" y="249"/>
      <point x="316" y="185" type="curve"/>
      <point x="316" y="130"/>
      <point x="275" y="78"/>
      <point x="215" y="78" type="curve"/>
      <point x="166" y="78"/>
      <point x="133" y="102"/>
      <point x="98" y="130" type="curve"/>
      <point x="46" y="59"/>
      <point x="95" y="125"/>
    </contour>
    <contour>
      <point x="224" y="796" type="move" name="top"/>
    </contour>
    <contour>
      <point x="250" y="-24" type="move" name="bottom"/>
    </contour>
  </outline>
</glyph>
<glyph name="T" format="1">
  <advance width="477"/>
  <unicode hex="0054"/>
  <outline>
    <contour>
      <point x="289" y="0" type="curve"/>
      <point x="289" y="237"/>
      <point x="289" y="473"/>
      <point x="289" y="710" type="curve"/>
      <point x="188" y="710"/>
      <point x="289" y="710"/>
      <point x="188" y="710" type="curve"/>
      <point x="187" y="473"/>
      <point x="188" y="237"/>
      <point x="188" y="0" type="curve"/>
      <point x="289" y="0"/>
      <point x="188" y="0"/>
    </contour>
    <contour>
      <point x="11" y="638" type="curve"/>
      <point x="162" y="638"/>
      <point x="314" y="638"/>
      <point x="465" y="638" type="curve"/>
      <point x="465" y="725"/>
      <point x="465" y="635"/>
      <point x="465" y="722" type="curve"/>
      <point x="314" y="722"/>
      <point x="162" y="722"/>
      <point x="11" y="722" type="curve"/>
      <point x="11" y="635"/>
      <point x="11" y="725"/>
    </contour>
    <contour>
      <point x="238" y="796" type="move" name="top"/>
    </contour>
    <contour>
      <point x="279" y="-28" type="move" name="bottom"/>
    </contour>
  </outline>
</glyph>
<glyph name="V" format="1">
  <advance width="535"/>
  <unicode hex="0056"/>
  <outline>
    <contour>
      <point x="422" y="722" type="curve"/>
      <point x="357" y="480"/>
      <point x="292" y="242"/>
      <point x="229" y="0" type="curve"/>
      <point x="332" y="0"/>
      <point x="218" y="0"/>
      <point x="322" y="0" type="curve"/>
      <point x="390" y="241"/>
      <point x="457" y="481"/>
      <point x="525" y="722" type="curve"/>
      <point x="422" y="722"/>
      <point x="525" y="722"/>
    </contour>
    <contour>
      <point x="7" y="722" type="curve"/>
      <point x="76" y="481"/>
      <point x="145" y="241"/>
      <point x="214" y="0" type="curve"/>
      <point x="317" y="0"/>
      <point x="205" y="0"/>
      <point x="309" y="0" type="curve"/>
      <point x="244" y="242"/>
      <point x="178" y="482"/>
      <point x="111" y="722" type="curve"/>
      <point x="7" y="722"/>
      <point x="111" y="722"/>
    </contour>
  </outline>
</glyph>
<glyph name="W" format="1">
  <advance width="692"/>
  <unicode hex="0057"/>
  <outline>
    <contour>
      <point x="245" y="0" type="curve"/>
      <point x="295" y="241"/>
      <point x="343" y="481"/>
      <point x="392" y="722" type="curve"/>
      <point x="307" y="722"/>
      <point x="393" y="722"/>
      <point x="307" y="722" type="curve"/>
      <point x="262" y="482"/>
      <point x="216" y="242"/>
      <point x="170" y="0" type="curve"/>
      <point x="251" y="0"/>
      <point x="164" y="0"/>
    </contour>
    <contour>
      <point x="313" y="722" type="curve"/>
      <point x="357" y="481"/>
      <point x="400" y="241"/>
      <point x="445" y="0" type="curve"/>
      <point x="526" y="0"/>
      <point x="437" y="0"/>
      <point x="518" y="0" type="curve"/>
      <point x="477" y="244"/>
      <point x="438" y="481"/>
      <point x="398" y="722" type="curve"/>
      <point x="312" y="722"/>
      <point x="398" y="722"/>
    </contour>
    <contour>
      <point x="25" y="722" type="curve"/>
      <point x="70" y="481"/>
      <point x="115" y="241"/>
      <point x="159" y="0" type="curve"/>
      <point x="241" y="0"/>
      <point x="160" y="0"/>
      <point x="242" y="0" type="curve"/>
      <point x="199" y="241"/>
      <point x="156" y="481"/>
      <point x="113" y="722" type="curve"/>
      <point x="25" y="722"/>
      <point x="113" y="722"/>
    </contour>
    <contour>
      <point x="583" y="722" type="curve"/>
      <point x="538" y="481"/>
      <point x="494" y="241"/>
      <point x="449" y="0" type="curve"/>
      <point x="531" y="0"/>
      <point x="449" y="0"/>
      <point x="531" y="0" type="curve"/>
      <point x="577" y="241"/>
      <point x="624" y="481"/>
      <point x="671" y="722" type="curve"/>
      <point x="583" y="722"/>
      <point x="671" y="722"/>
    </contour>
  </outline>
</glyph>
<glyph name="X" format="1">
  <advance width="490"/>
  <unicode hex="0058"/>
  <outline>
    <contour>
      <point x="371" y="722" type="curve"/>
      <point x="249" y="481"/>
      <point x="127" y="241"/>
      <point x="5" y="0" type="curve"/>
      <point x="106" y="0"/>
      <point x="5" y="0"/>
      <point x="106" y="0" type="curve"/>
      <point x="227" y="241"/>
      <point x="348" y="481"/>
      <point x="469" y="722" type="curve"/>
      <point x="371" y="722"/>
      <point x="469" y="722"/>
    </contour>
    <contour>
      <point x="23" y="722" type="curve"/>
      <point x="143" y="481"/>
      <point x="263" y="241"/>
      <point x="383" y="0" type="curve"/>
      <point x="483" y="0"/>
      <point x="383" y="0"/>
      <point x="483" y="0" type="curve"/>
      <point x="362" y="241"/>
      <point x="242" y="481"/>
      <point x="121" y="722" type="curve"/>
      <point x="23" y="722"/>
      <point x="121" y="722"/>
    </contour>
  </outline>
</glyph>
<glyph name="Y" format="1">
  <advance width="476"/>
  <unicode hex="0059"/>
  <outline>
    <contour>
      <point x="14" y="722" type="curve"/>
      <point x="72" y="594"/>
      <point x="127" y="468"/>
      <point x="183" y="337" type="curve"/>
      <point x="286" y="337"/>
      <point x="169" y="337"/>
      <point x="272" y="337" type="curve"/>
      <point x="221" y="468"/>
      <point x="171" y="592"/>
      <point x="117" y="722" type="curve"/>
      <point x="14" y="722"/>
      <point x="117" y="722"/>
    </contour>
    <contour>
      <point x="369" y="722" type="curve"/>
      <point x="310" y="591"/>
      <point x="257" y="468"/>
      <point x="198" y="337" type="curve"/>
      <point x="301" y="337"/>
      <point x="190" y="337"/>
      <point x="293" y="337" type="curve"/>
      <point x="353" y="467"/>
      <point x="411" y="594"/>
      <point x="472" y="722" type="curve"/>
      <point x="369" y="722"/>
      <point x="472" y="722"/>
    </contour>
    <contour>
      <point x="293" y="0" type="curve"/>
      <point x="293" y="115"/>
      <point x="293" y="225"/>
      <point x="293" y="340" type="curve"/>
      <point x="183" y="340"/>
      <point x="293" y="340"/>
      <point x="183" y="340" type="curve"/>
      <point x="183" y="225"/>
      <point x="183" y="115"/>
      <point x="183" y="0" type="curve"/>
      <point x="293" y="0"/>
      <point x="183" y="0"/>
    </contour>
    <contour>
      <point x="243" y="796" type="move" name="top"/>
    </contour>
  </outline>
</glyph>
<glyph name="Z" format="1">
  <advance width="520"/>
  <unicode hex="005A"/>
  <outline>
    <contour>
      <point x="50" y="643" type="curve"/>
      <point x="168" y="643"/>
      <point x="321" y="643"/>
      <point x="440" y="643" type="curve"/>
      <point x="432" y="651"/>
      <point x="418" y="650"/>
      <point x="410" y="658" type="curve"/>
      <point x="403" y="664"/>
      <point x="405" y="677"/>
      <point x="397" y="684" type="curve"/>
      <point x="392" y="676"/>
      <point x="381" y="681"/>
      <point x="376" y="673" type="curve"/>
      <point x="23" y="79" type="line"/>
      <point x="23" y="38"/>
      <point x="23" y="79"/>
      <point x="23" y="38" type="curve"/>
      <point x="23" y="0"/>
      <point x="23" y="38"/>
      <point x="23" y="0" type="curve"/>
      <point x="59" y="0"/>
      <point x="23" y="0"/>
      <point x="59" y="0" type="curve"/>
      <point x="483" y="0"/>
      <point x="361" y="0"/>
      <point x="503" y="0" type="curve"/>
      <point x="503" y="79"/>
      <point x="503" y="0"/>
      <point x="503" y="79" type="curve"/>
      <point x="361" y="79"/>
      <point x="200" y="79"/>
      <point x="59" y="79" type="curve"/>
      <point x="66" y="73"/>
      <point x="77" y="73"/>
      <point x="85" y="67" type="curve"/>
      <point x="93" y="59"/>
      <point x="92" y="46"/>
      <point x="100" y="38" type="curve"/>
      <point x="105" y="46"/>
      <point x="117" y="41"/>
      <point x="122" y="49" type="curve"/>
      <point x="480" y="643" type="line"/>
      <point x="480" y="684"/>
      <point x="480" y="643"/>
      <point x="480" y="684" type="curve"/>
      <point x="480" y="722"/>
      <point x="480" y="684"/>
      <point x="480" y="722" type="curve"/>
      <point x="440" y="722"/>
      <point x="480" y="722"/>
      <point x="440" y="722" type="curve"/>
      <point x="321" y="722"/>
      <point x="168" y="722"/>
      <point x="50" y="722" type="curve"/>
      <point x="50" y="643"/>
      <point x="50" y="722"/>
    </contour>
    <contour>
      <point x="267" y="796" type="move" name="top"/>
    </contour>
  </outline>
</glyph>
<glyph name="bracketleft" format="1">
  <advance width="262"/>
  <unicode hex="005B"/>
  <outline>
    <contour>
      <point x="227" y="770" type="curve"/>
      <point x="190" y="770"/>
      <point x="153" y="770"/>
      <point x="115" y="770" type="curve"/>
      <point x="104" y="770"/>
      <point x="80" y="770"/>
      <point x="70" y="770" type="curve"/>
      <point x="70" y="758"/>
      <point x="70" y="744"/>
      <point x="70" y="732" type="curve"/>
      <point x="70" y="461"/>
      <point x="70" y="190"/>
      <point x="70" y="-81" type="curve"/>
      <point x="70" y="-93"/>
      <point x="70" y="-101"/>
      <point x="70" y="-117" type="curve"/>
      <point x="80" y="-117"/>
      <point x="103" y="-117"/>
      <point x="114" y="-117" type="curve"/>
      <point x="152" y="-117"/>
      <point x="189" y="-117"/>
      <point x="227" y="-117" type="curve"/>
      <point x="227" y="-30"/>
      <point x="227" y="-117"/>
      <point x="227" y="-30" type="curve"/>
      <point x="189" y="-30"/>
      <point x="152" y="-30"/>
      <point x="114" y="-30" type="curve"/>
      <point x="170" y="-30"/>
      <point x="114" y="-30"/>
      <point x="170" y="-30" type="curve"/>
      <point x="170" y="-81"/>
      <point x="170" y="-30"/>
      <point x="170" y="-81" type="curve"/>
      <point x="170" y="190"/>
      <point x="170" y="461"/>
      <point x="170" y="732" type="curve"/>
      <point x="170" y="683"/>
      <point x="170" y="732"/>
      <point x="170" y="683" type="curve"/>
      <point x="115" y="683"/>
      <point x="170" y="683"/>
      <point x="115" y="683" type="curve"/>
      <point x="153" y="683"/>
      <point x="190" y="683"/>
      <point x="227" y="683" type="curve"/>
      <point x="227" y="770"/>
      <point x="227" y="683"/>
    </contour>
  </outline>
</glyph>
<glyph name="backslash" format="1">
  <advance width="440"/>
  <unicode hex="005C"/>
  <outline>
    <contour>
      <point x="416" y="-68" type="curve"/>
      <point x="321" y="236"/>
      <point x="225" y="540"/>
      <point x="129" y="844" type="curve"/>
      <point x="24" y="844"/>
      <point x="129" y="844"/>
      <point x="24" y="844" type="curve"/>
      <point x="120" y="540"/>
      <point x="215" y="236"/>
      <point x="311" y="-68" type="curve"/>
      <point x="416" y="-68"/>
      <point x="311" y="-68"/>
    </contour>
  </outline>
</glyph>
<glyph name="bracketright" format="1">
  <advance width="262"/>
  <unicode hex="005D"/>
  <outline>
    <contour>
      <point x="36" y="683" type="curve"/>
      <point x="73" y="683"/>
      <point x="111" y="683"/>
      <point x="148" y="683" type="curve"/>
      <point x="139" y="692"/>
      <point x="125" y="693"/>
      <point x="116" y="703" type="curve"/>
      <point x="108" y="712"/>
      <point x="101" y="723"/>
      <point x="93" y="732" type="curve"/>
      <point x="93" y="461"/>
      <point x="92" y="190"/>
      <point x="93" y="-81" type="curve"/>
      <point x="101" y="-70"/>
      <point x="110" y="-61"/>
      <point x="119" y="-52" type="curve"/>
      <point x="127" y="-42"/>
      <point x="141" y="-40"/>
      <point x="149" y="-30" type="curve"/>
      <point x="111" y="-30"/>
      <point x="73" y="-30"/>
      <point x="36" y="-30" type="curve"/>
      <point x="35" y="-117"/>
      <point x="36" y="-30"/>
      <point x="35" y="-117" type="curve"/>
      <point x="73" y="-117"/>
      <point x="111" y="-117"/>
      <point x="149" y="-117" type="curve"/>
      <point x="194" y="-117"/>
      <point x="149" y="-117"/>
      <point x="194" y="-117" type="curve"/>
      <point x="194" y="-81"/>
      <point x="194" y="-117"/>
      <point x="194" y="-81" type="curve"/>
      <point x="193" y="190"/>
      <point x="194" y="461"/>
      <point x="194" y="732" type="curve"/>
      <point x="194" y="770"/>
      <point x="194" y="732"/>
      <point x="194" y="770" type="curve"/>
      <point x="148" y="770"/>
      <point x="194" y="770"/>
      <point x="148" y="770" type="curve"/>
      <point x="111" y="770"/>
      <point x="73" y="770"/>
      <point x="36" y="770" type="curve"/>
      <point x="36" y="683"/>
      <point x="36" y="770"/>
    </contour>
  </outline>
</glyph>
<glyph name="asciicircum" format="1">
  <advance width="437"/>
  <unicode hex="005E"/>
  <outline>
    <contour>
      <point x="141" y="458" type="curve"/>
      <point x="183" y="564"/>
      <point x="226" y="669"/>
      <point x="269" y="774" type="curve"/>
      <point x="168" y="774"/>
      <point x="269" y="774"/>
      <point x="168" y="774" type="curve"/>
      <point x="125" y="669"/>
      <point x="82" y="564"/>
      <point x="40" y="458" type="curve"/>
      <point x="141" y="458"/>
      <point x="40" y="458"/>
    </contour>
    <contour>
      <point x="397" y="458" type="curve"/>
      <point x="355" y="561"/>
      <point x="310" y="670"/>
      <point x="269" y="774" type="curve"/>
      <point x="168" y="774"/>
      <point x="269" y="774"/>
      <point x="168" y="774" type="curve"/>
      <point x="210" y="670"/>
      <point x="254" y="561"/>
      <point x="296" y="458" type="curve"/>
      <point x="397" y="458"/>
      <point x="296" y="458"/>
    </contour>
  </outline>
</glyph>
<glyph name="grave" format="1">
  <advance width="329"/>
  <unicode hex="0060"/>
  <outline>
    <contour>
      <point x="253" y="591" type="line"/>
      <point x="176" y="757" type="line"/>
      <point x="52" y="757" type="line"/>
      <point x="158" y="591" type="line"/>
    </contour>
    <contour>
      <point x="204" y="590" type="move" name="_top"/>
    </contour>
  </outline>
</glyph>
<glyph name="b" format="1">
  <advance width="526"/>
  <unicode hex="0062"/>
  <outline>
    <contour>
      <point x="151" y="369" type="curve"/>
      <point x="171" y="405"/>
      <point x="215" y="456"/>
      <point x="275" y="456" type="curve"/>
      <point x="360" y="456"/>
      <point x="382" y="365"/>
      <point x="382" y="264" type="curve"/>
      <point x="382" y="167"/>
      <point x="357" y="77"/>
      <point x="277" y="77" type="curve"/>
      <point x="226" y="77"/>
      <point x="187" y="109"/>
      <point x="157" y="155" type="curve"/>
      <point x="105" y="119"/>
      <point x="158" y="153"/>
      <point x="106" y="117" type="curve"/>
      <point x="147" y="48"/>
      <point x="200" y="-5"/>
      <point x="286" y="-5" type="curve"/>
      <point x="419" y="-5"/>
      <point x="482" y="116"/>
      <point x="482" y="268" type="curve"/>
      <point x="482" y="418"/>
      <point x="421" y="538"/>
      <point x="288" y="538" type="curve"/>
      <point x="198" y="538"/>
      <point x="139" y="469"/>
      <point x="108" y="408" type="curve"/>
      <point x="151" y="371"/>
      <point x="108" y="405"/>
    </contour>
    <contour>
      <point x="174" y="0" type="curve"/>
      <point x="174" y="267"/>
      <point x="174" y="533"/>
      <point x="174" y="800" type="curve"/>
      <point x="73" y="800"/>
      <point x="174" y="800"/>
      <point x="73" y="800" type="curve"/>
      <point x="73" y="533"/>
      <point x="73" y="267"/>
      <point x="73" y="0" type="curve"/>
      <point x="174" y="0"/>
      <point x="73" y="0"/>
    </contour>
  </outline>
</glyph>
<glyph name="d" format="1">
  <advance width="531"/>
  <unicode hex="0064"/>
  <outline>
    <contour>
      <point x="410" y="446" type="curve"/>
      <point x="373" y="503"/>
      <point x="316" y="535"/>
      <point x="245" y="535" type="curve"/>
      <point x="104" y="535"/>
      <point x="44" y="412"/>
      <point x="44" y="263" type="curve"/>
      <point x="44" y="116"/>
      <point x="108" y="-2"/>
      <point x="243" y="-2" type="curve"/>
      <point x="323" y="-2"/>
      <point x="377" y="43"/>
      <point x="410" y="118" type="curve"/>
      <point x="373" y="173"/>
      <point x="410" y="118"/>
      <point x="373" y="173" type="curve"/>
      <point x="350" y="118"/>
      <point x="316" y="77"/>
      <point x="261" y="77" type="curve"/>
      <point x="173" y="77"/>
      <point x="144" y="166"/>
      <point x="144" y="267" type="curve"/>
      <point x="144" y="368"/>
      <point x="176" y="456"/>
      <point x="264" y="456" type="curve"/>
      <point x="312" y="456"/>
      <point x="350" y="428"/>
      <point x="373" y="387" type="curve"/>
      <point x="410" y="446"/>
      <point x="373" y="387"/>
    </contour>
    <contour>
      <point x="458" y="0" type="curve"/>
      <point x="458" y="267"/>
      <point x="458" y="533"/>
      <point x="458" y="800" type="curve"/>
      <point x="353" y="800"/>
      <point x="458" y="800"/>
      <point x="353" y="800" type="curve"/>
      <point x="353" y="533"/>
      <point x="353" y="267"/>
      <point x="353" y="0" type="curve"/>
      <point x="458" y="0"/>
      <point x="353" y="0"/>
    </contour>
  </outline>
</glyph>
<glyph name="f" format="1">
  <advance width="343"/>
  <unicode hex="0066"/>
  <outline>
    <contour>
      <point x="22" y="454" type="curve"/>
      <point x="320" y="454" type="line"/>
      <point x="320" y="533"/>
      <point x="320" y="454"/>
      <point x="320" y="533" type="curve"/>
      <point x="22" y="533" type="line"/>
      <point x="22" y="454"/>
      <point x="22" y="533"/>
    </contour>
    <contour>
      <point x="208" y="0" type="curve"/>
      <point x="208" y="617" type="line"/>
      <point x="208" y="676"/>
      <point x="213" y="729"/>
      <point x="265" y="729" type="curve"/>
      <point x="285" y="729"/>
      <point x="303" y="720"/>
      <point x="319" y="709" type="curve"/>
      <point x="360" y="772"/>
      <point x="319" y="709"/>
      <point x="360" y="772" type="curve"/>
      <point x="332" y="791"/>
      <point x="299" y="805"/>
      <point x="265" y="805" type="curve"/>
      <point x="161" y="805"/>
      <point x="107" y="725"/>
      <point x="108" y="617" type="curve"/>
      <point x="108" y="0" type="line"/>
      <point x="208" y="0"/>
      <point x="108" y="0"/>
    </contour>
  </outline>
</glyph>
<glyph name="g" format="1">
  <advance width="449"/>
  <unicode hex="0067"/>
  <outline>
    <contour>
      <point x="315" y="452" type="curve"/>
      <point x="424" y="517" type="line"/>
      <point x="419" y="524"/>
      <point x="387" y="582"/>
      <point x="382" y="589" type="curve"/>
      <point x="261" y="515" type="line"/>
      <point x="315" y="452"/>
      <point x="261" y="515"/>
    </contour>
    <contour>
      <point x="147" y="344" type="curve"/>
      <point x="147" y="405"/>
      <point x="170" y="459"/>
      <point x="225" y="459" type="curve"/>
      <point x="281" y="459"/>
      <point x="300" y="405"/>
      <point x="300" y="344" type="curve"/>
      <point x="300" y="287"/>
      <point x="279" y="236"/>
      <point x="224" y="236" type="curve"/>
      <point x="172" y="236"/>
      <point x="147" y="285"/>
      <point x="147" y="344" type="curve"/>
      <point x="46" y="340"/>
      <point x="147" y="344"/>
      <point x="46" y="340" type="curve"/>
      <point x="46" y="233"/>
      <point x="114" y="157"/>
      <point x="220" y="157" type="curve"/>
      <point x="329" y="157"/>
      <point x="401" y="235"/>
      <point x="401" y="347" type="curve"/>
      <point x="401" y="458"/>
      <point x="333" y="537"/>
      <point x="225" y="537" type="curve"/>
      <point x="113" y="537"/>
      <point x="46" y="454"/>
      <point x="46" y="340" type="curve"/>
      <point x="147" y="344"/>
      <point x="46" y="340"/>
    </contour>
    <contour>
      <point x="127" y="240" type="curve"/>
      <point x="80" y="207"/>
      <point x="49" y="169"/>
      <point x="49" y="111" type="curve"/>
      <point x="49" y="25"/>
      <point x="121" y="-17"/>
      <point x="212" y="-27" type="curve"/>
      <point x="284" y="-34"/>
      <point x="345" y="-58"/>
      <point x="345" y="-128" type="curve"/>
      <point x="345" y="-193"/>
      <point x="292" y="-226"/>
      <point x="223" y="-226" type="curve"/>
      <point x="158" y="-226"/>
      <point x="114" y="-181"/>
      <point x="114" y="-115" type="curve"/>
      <point x="114" y="-62"/>
      <point x="131" y="-17"/>
      <point x="175" y="6" type="curve"/>
      <point x="125" y="54"/>
      <point x="175" y="6"/>
      <point x="125" y="54" type="curve"/>
      <point x="55" y="18"/>
      <point x="14" y="-38"/>
      <point x="14" y="-118" type="curve"/>
      <point x="14" y="-235"/>
      <point x="99" y="-305"/>
      <point x="219" y="-305" type="curve"/>
      <point x="342" y="-305"/>
      <point x="438" y="-239"/>
      <point x="437" y="-120" type="curve"/>
      <point x="437" y="-11"/>
      <point x="344" y="37"/>
      <point x="230" y="49" type="curve"/>
      <point x="185" y="53"/>
      <point x="150" y="75"/>
      <point x="150" y="119" type="curve"/>
      <point x="150" y="149"/>
      <point x="157" y="169"/>
      <point x="180" y="188" type="curve"/>
      <point x="127" y="240"/>
      <point x="180" y="188"/>
    </contour>
    <contour>
      <point x="223" y="632" type="move" name="top"/>
    </contour>
  </outline>
</glyph>
<glyph name="h" format="1">
  <advance width="514"/>
  <unicode hex="0068"/>
  <outline>
    <contour>
      <point x="151" y="320" type="curve"/>
      <point x="168" y="384"/>
      <point x="207" y="456"/>
      <point x="271" y="456" type="curve"/>
      <point x="339" y="456"/>
      <point x="346" y="395"/>
      <point x="346" y="320" type="curve"/>
      <point x="346" y="213"/>
      <point x="346" y="107"/>
      <point x="346" y="0" type="curve"/>
      <point x="446" y="0"/>
      <point x="346" y="0"/>
      <point x="446" y="0" type="curve"/>
      <point x="446" y="109"/>
      <point x="446" y="219"/>
      <point x="446" y="328" type="curve"/>
      <point x="446" y="448"/>
      <point x="414" y="535"/>
      <point x="299" y="535" type="curve"/>
      <point x="210" y="535"/>
      <point x="142" y="454"/>
      <point x="123" y="361" type="curve"/>
      <point x="152" y="321"/>
      <point x="122" y="360"/>
    </contour>
    <contour>
      <point x="174" y="0" type="curve"/>
      <point x="174" y="267"/>
      <point x="174" y="533"/>
      <point x="174" y="800" type="curve"/>
      <point x="73" y="800"/>
      <point x="174" y="800"/>
      <point x="73" y="800" type="curve"/>
      <point x="73" y="533"/>
      <point x="73" y="267"/>
      <point x="73" y="0" type="curve"/>
      <point x="174" y="0"/>
      <point x="73" y="0"/>
    </contour>
  </outline>
</glyph>
<glyph name="i" format="1">
  <advance width="245"/>
  <unicode hex="0069"/>
  <outline>
    <contour>
      <point x="176" y="0" type="curve"/>
      <point x="176" y="178"/>
      <point x="176" y="355"/>
      <point x="176" y="533" type="curve"/>
      <point x="70" y="533"/>
      <point x="176" y="533"/>
      <point x="70" y="533" type="curve"/>
      <point x="70" y="355"/>
      <point x="70" y="178"/>
      <point x="70" y="0" type="curve"/>
      <point x="176" y="0"/>
      <point x="70" y="0"/>
    </contour>
    <contour>
      <point x="174" y="681" type="curve"/>
      <point x="174" y="716"/>
      <point x="151" y="734"/>
      <point x="119" y="734" type="curve"/>
      <point x="86" y="734"/>
      <point x="65" y="715"/>
      <point x="65" y="681" type="curve"/>
      <point x="174" y="681"/>
      <point x="65" y="681"/>
      <point x="174" y="681" type="curve"/>
      <point x="174" y="645"/>
      <point x="151" y="629"/>
      <point x="119" y="629" type="curve"/>
      <point x="86" y="629"/>
      <point x="65" y="647"/>
      <point x="65" y="681" type="curve"/>
      <point x="174" y="681"/>
      <point x="65" y="681"/>
    </contour>
    <contour>
      <point x="119" y="632" type="move" name="top"/>
    </contour>
    <contour>
      <point x="169" y="3" type="move" name="bottom"/>
    </contour>
  </outline>
</glyph>
<glyph name="j" format="1">
  <advance width="227"/>
  <unicode hex="006A"/>
  <outline>
    <contour>
      <point x="-16" y="-303" type="curve"/>
      <point x="-9" y="-304"/>
      <point x="1" y="-305"/>
      <point x="10" y="-305" type="curve"/>
      <point x="108" y="-305"/>
      <point x="170" y="-229"/>
      <point x="170" y="-128" type="curve"/>
      <point x="170" y="93"/>
      <point x="170" y="313"/>
      <point x="170" y="534" type="curve"/>
      <point x="69" y="534"/>
      <point x="170" y="534"/>
      <point x="69" y="534" type="curve"/>
      <point x="69" y="313"/>
      <point x="69" y="93"/>
      <point x="69" y="-128" type="curve"/>
      <point x="69" y="-177"/>
      <point x="58" y="-228"/>
      <point x="14" y="-228" type="curve"/>
      <point x="9" y="-228"/>
      <point x="5" y="-227"/>
      <point x="-1" y="-226" type="curve"/>
      <point x="-16" y="-302"/>
      <point x="-2" y="-228"/>
    </contour>
    <contour>
      <point x="173" y="676" type="curve"/>
      <point x="173" y="712"/>
      <point x="150" y="730"/>
      <point x="118" y="730" type="curve"/>
      <point x="85" y="730"/>
      <point x="64" y="710"/>
      <point x="64" y="676" type="curve"/>
      <point x="173" y="676"/>
      <point x="64" y="676"/>
      <point x="173" y="676" type="curve"/>
      <point x="173" y="641"/>
      <point x="150" y="624"/>
      <point x="118" y="624" type="curve"/>
      <point x="85" y="624"/>
      <point x="64" y="642"/>
      <point x="64" y="676" type="curve"/>
      <point x="173" y="676"/>
      <point x="64" y="676"/>
    </contour>
  </outline>
</glyph>
<glyph name="k" format="1">
  <advance width="488"/>
  <unicode hex="006B"/>
  <outline>
    <contour>
      <point x="174" y="0" type="curve"/>
      <point x="174" y="800" type="line"/>
      <point x="73" y="800"/>
      <point x="174" y="800"/>
      <point x="73" y="800" type="curve"/>
      <point x="73" y="533"/>
      <point x="73" y="267"/>
      <point x="73" y="0" type="curve"/>
      <point x="174" y="0"/>
      <point x="73" y="0"/>
    </contour>
    <contour>
      <point x="335" y="533" type="curve"/>
      <point x="154" y="275" type="line"/>
      <point x="254" y="275"/>
      <point x="165" y="275"/>
      <point x="265" y="275" type="curve"/>
      <point x="451" y="533" type="line"/>
      <point x="364" y="533"/>
      <point x="422" y="533"/>
    </contour>
    <contour>
      <point x="469" y="0" type="curve"/>
      <point x="265" y="275" type="line"/>
      <point x="165" y="275"/>
      <point x="254" y="275"/>
      <point x="154" y="275" type="curve"/>
      <point x="355" y="0" type="line"/>
      <point x="434" y="0"/>
      <point x="390" y="0"/>
    </contour>
    <contour>
      <point x="312" y="-28" type="move" name="bottom"/>
    </contour>
  </outline>
</glyph>
<glyph name="m" format="1">
  <advance width="728"/>
  <unicode hex="006D"/>
  <outline>
    <contour>
      <point x="394" y="301" type="curve"/>
      <point x="414" y="375"/>
      <point x="435" y="456"/>
      <point x="497" y="456" type="curve"/>
      <point x="565" y="456"/>
      <point x="559" y="399"/>
      <point x="559" y="320" type="curve"/>
      <point x="559" y="213"/>
      <point x="559" y="107"/>
      <point x="559" y="0" type="curve"/>
      <point x="660" y="0"/>
      <point x="559" y="0"/>
      <point x="660" y="0" type="curve"/>
      <point x="660" y="109"/>
      <point x="660" y="219"/>
      <point x="660" y="328" type="curve"/>
      <point x="660" y="453"/>
      <point x="650" y="538"/>
      <point x="532" y="538" type="curve"/>
      <point x="440" y="538"/>
      <point x="390" y="454"/>
      <point x="367" y="346" type="curve"/>
      <point x="397" y="302"/>
      <point x="363" y="344"/>
    </contour>
    <contour>
      <point x="151" y="301" type="curve"/>
      <point x="168" y="374"/>
      <point x="190" y="457"/>
      <point x="254" y="457" type="curve"/>
      <point x="321" y="457"/>
      <point x="316" y="399"/>
      <point x="316" y="320" type="curve"/>
      <point x="316" y="213"/>
      <point x="316" y="107"/>
      <point x="316" y="0" type="curve"/>
      <point x="417" y="0"/>
      <point x="316" y="0"/>
      <point x="417" y="0" type="curve"/>
      <point x="417" y="109"/>
      <point x="417" y="219"/>
      <point x="417" y="328" type="curve"/>
      <point x="417" y="453"/>
      <point x="407" y="538"/>
      <point x="289" y="538" type="curve"/>
      <point x="196" y="538"/>
      <point x="148" y="455"/>
      <point x="124" y="346" type="curve"/>
      <point x="154" y="302"/>
      <point x="121" y="344"/>
    </contour>
    <contour>
      <point x="174" y="0" type="curve"/>
      <point x="174" y="178"/>
      <point x="174" y="355"/>
      <point x="174" y="533" type="curve"/>
      <point x="73" y="533"/>
      <point x="174" y="533"/>
      <point x="73" y="533" type="curve"/>
      <point x="73" y="355"/>
      <point x="73" y="178"/>
      <point x="73" y="0" type="curve"/>
      <point x="174" y="0"/>
      <point x="73" y="0"/>
    </contour>
  </outline>
</glyph>
<glyph name="n" format="1">
  <advance width="513"/>
  <unicode hex="006E"/>
  <outline>
    <contour>
      <point x="153" y="290" type="curve"/>
      <point x="165" y="376"/>
      <point x="207" y="456"/>
      <point x="268" y="456" type="curve"/>
      <point x="334" y="456"/>
      <point x="345" y="395"/>
      <point x="345" y="320" type="curve"/>
      <point x="345" y="213"/>
      <point x="345" y="107"/>
      <point x="345" y="0" type="curve"/>
      <point x="446" y="0"/>
      <point x="345" y="0"/>
      <point x="446" y="0" type="curve"/>
      <point x="446" y="109"/>
      <point x="446" y="219"/>
      <point x="446" y="328" type="curve"/>
      <point x="446" y="448"/>
      <point x="417" y="538"/>
      <point x="304" y="538" type="curve"/>
      <point x="213" y="538"/>
      <point x="142" y="461"/>
      <point x="123" y="337" type="curve"/>
      <point x="154" y="292"/>
      <point x="122" y="335"/>
    </contour>
    <contour>
      <point x="174" y="0" type="curve"/>
      <point x="174" y="178"/>
      <point x="174" y="355"/>
      <point x="174" y="533" type="curve"/>
      <point x="73" y="533"/>
      <point x="174" y="533"/>
      <point x="73" y="533" type="curve"/>
      <point x="73" y="355"/>
      <point x="73" y="178"/>
      <point x="73" y="0" type="curve"/>
      <point x="174" y="0"/>
      <point x="73" y="0"/>
    </contour>
    <contour>
      <point x="262" y="632" type="move" name="top"/>
    </contour>
    <contour>
      <point x="300" y="-26" type="move" name="bottom"/>
    </contour>
  </outline>
</glyph>
<glyph name="o" format="1">
  <advance width="504"/>
  <unicode hex="006F"/>
  <outline>
    <contour>
      <point x="138" y="266" type="curve"/>
      <point x="138" y="367"/>
      <point x="159" y="456"/>
      <point x="247" y="456" type="curve"/>
      <point x="338" y="456"/>
      <point x="359" y="367"/>
      <point x="359" y="265" type="curve"/>
      <point x="359" y="162"/>
      <point x="340" y="77"/>
      <point x="254" y="77" type="curve"/>
      <point x="157" y="78"/>
      <point x="138" y="162"/>
      <point x="138" y="266" type="curve"/>
      <point x="129" y="266"/>
      <point x="52" y="266"/>
      <point x="44" y="266" type="curve"/>
      <point x="44" y="109"/>
      <point x="105" y="-5"/>
      <point x="250" y="-5" type="curve"/>
      <point x="396" y="-5"/>
      <point x="460" y="107"/>
      <point x="460" y="265" type="curve"/>
      <point x="460" y="423"/>
      <point x="398" y="538"/>
      <point x="252" y="538" type="curve"/>
      <point x="106" y="538"/>
      <point x="44" y="423"/>
      <point x="44" y="266" type="curve"/>
      <point x="52" y="266"/>
      <point x="129" y="266"/>
    </contour>
    <contour>
      <point x="250" y="632" type="move" name="top"/>
    </contour>
  </outline>
</glyph>
<glyph name="p" format="1">
  <advance width="530"/>
  <unicode hex="0070"/>
  <outline>
    <contour>
      <point x="152" y="335" type="curve"/>
      <point x="168" y="392"/>
      <point x="215" y="457"/>
      <point x="273" y="457" type="curve"/>
      <point x="369" y="457"/>
      <point x="386" y="367"/>
      <point x="386" y="266" type="curve"/>
      <point x="387" y="165"/>
      <point x="367" y="74"/>
      <point x="275" y="74" type="curve"/>
      <point x="222" y="74"/>
      <point x="186" y="104"/>
      <point x="155" y="148" type="curve"/>
      <point x="118" y="105"/>
      <point x="155" y="148"/>
      <point x="118" y="105" type="curve"/>
      <point x="163" y="36"/>
      <point x="216" y="-5"/>
      <point x="295" y="-5" type="curve"/>
      <point x="440" y="-5"/>
      <point x="486" y="122"/>
      <point x="486" y="271" type="curve"/>
      <point x="486" y="414"/>
      <point x="439" y="539"/>
      <point x="296" y="539" type="curve"/>
      <point x="214" y="539"/>
      <point x="153" y="469"/>
      <point x="123" y="401" type="curve"/>
      <point x="152" y="335"/>
      <point x="124" y="401"/>
    </contour>
    <contour>
      <point x="174" y="-300" type="curve"/>
      <point x="174" y="-22"/>
      <point x="174" y="255"/>
      <point x="174" y="533" type="curve"/>
      <point x="73" y="533"/>
      <point x="174" y="533"/>
      <point x="73" y="533" type="curve"/>
      <point x="73" y="255"/>
      <point x="73" y="-22"/>
      <point x="73" y="-300" type="curve"/>
      <point x="174" y="-300"/>
      <point x="73" y="-300"/>
    </contour>
  </outline>
</glyph>
<glyph name="q" format="1">
  <advance width="532"/>
  <unicode hex="0071"/>
  <outline>
    <contour>
      <point x="410" y="409" type="curve"/>
      <point x="376" y="488"/>
      <point x="310" y="538"/>
      <point x="235" y="538" type="curve"/>
      <point x="90" y="538"/>
      <point x="43" y="412"/>
      <point x="44" y="265" type="curve"/>
      <point x="44" y="117"/>
      <point x="96" y="-5"/>
      <point x="240" y="-5" type="curve"/>
      <point x="314" y="-5"/>
      <point x="375" y="54"/>
      <point x="409" y="123" type="curve"/>
      <point x="377" y="167"/>
      <point x="409" y="125"/>
      <point x="377" y="169" type="curve"/>
      <point x="352" y="117"/>
      <point x="309" y="73"/>
      <point x="255" y="73" type="curve"/>
      <point x="165" y="73"/>
      <point x="145" y="166"/>
      <point x="145" y="269" type="curve"/>
      <point x="145" y="367"/>
      <point x="166" y="457"/>
      <point x="253" y="457" type="curve"/>
      <point x="302" y="457"/>
      <point x="344" y="430"/>
      <point x="381" y="363" type="curve"/>
      <point x="404" y="410"/>
      <point x="387" y="362"/>
    </contour>
    <contour>
      <point x="459" y="-300" type="curve"/>
      <point x="459" y="-22"/>
      <point x="459" y="255"/>
      <point x="459" y="533" type="curve"/>
      <point x="354" y="533"/>
      <point x="459" y="533"/>
      <point x="354" y="533" type="curve"/>
      <point x="354" y="255"/>
      <point x="354" y="-22"/>
      <point x="354" y="-300" type="curve"/>
      <point x="459" y="-300"/>
      <point x="354" y="-300"/>
    </contour>
  </outline>
</glyph>
<glyph name="r" format="1">
  <advance width="324"/>
  <unicode hex="0072"/>
  <outline>
    <contour>
      <point x="174" y="0" type="curve"/>
      <point x="174" y="178"/>
      <point x="174" y="355"/>
      <point x="174" y="533" type="curve"/>
      <point x="73" y="533"/>
      <point x="174" y="533"/>
      <point x="73" y="533" type="curve"/>
      <point x="73" y="355"/>
      <point x="73" y="178"/>
      <point x="73" y="0" type="curve"/>
      <point x="174" y="0"/>
      <point x="73" y="0"/>
    </contour>
    <contour>
      <point x="152" y="315" type="curve"/>
      <point x="178" y="420"/>
      <point x="241" y="456"/>
      <point x="313" y="456" type="curve"/>
      <point x="313" y="540"/>
      <point x="313" y="454"/>
      <point x="313" y="538" type="curve"/>
      <point x="218" y="538"/>
      <point x="146" y="460"/>
      <point x="115" y="357" type="curve"/>
      <point x="151" y="317"/>
      <point x="118" y="353"/>
    </contour>
    <contour>
      <point x="131" y="632" type="move" name="top"/>
    </contour>
    <contour>
      <point x="165" y="-27" type="move" name="bottom"/>
    </contour>
  </outline>
</glyph>
<glyph name="s" format="1">
  <advance width="392"/>
  <unicode hex="0073"/>
  <outline>
    <contour>
      <point x="35" y="48" type="curve"/>
      <point x="86" y="16"/>
      <point x="137" y="-5"/>
      <point x="194" y="-5" type="curve"/>
      <point x="297" y="-5"/>
      <point x="360" y="51"/>
      <point x="360" y="151" type="curve"/>
      <point x="359" y="243"/>
      <point x="296" y="280"/>
      <point x="208" y="313" type="curve" smooth="yes"/>
      <point x="165" y="331"/>
      <point x="137" y="356"/>
      <point x="137" y="400" type="curve"/>
      <point x="137" y="431"/>
      <point x="155" y="456"/>
      <point x="190" y="456" type="curve"/>
      <point x="223" y="456"/>
      <point x="255" y="440"/>
      <point x="278" y="421" type="curve"/>
      <point x="321" y="488"/>
      <point x="280" y="426"/>
      <point x="323" y="493" type="curve"/>
      <point x="291" y="518"/>
      <point x="241" y="538"/>
      <point x="192" y="538" type="curve"/>
      <point x="102" y="538"/>
      <point x="46" y="487"/>
      <point x="46" y="400" type="curve"/>
      <point x="46" y="314"/>
      <point x="94" y="269"/>
      <point x="176" y="238" type="curve" smooth="yes"/>
      <point x="225" y="219"/>
      <point x="263" y="196"/>
      <point x="263" y="145" type="curve"/>
      <point x="263" y="106"/>
      <point x="238" y="79"/>
      <point x="201" y="79" type="curve"/>
      <point x="158" y="79"/>
      <point x="123" y="95"/>
      <point x="86" y="118" type="curve"/>
      <point x="35" y="48"/>
      <point x="86" y="118"/>
    </contour>
    <contour>
      <point x="196" y="632" type="move" name="top"/>
    </contour>
    <contour>
      <point x="227" y="-27" type="move" name="bottom"/>
    </contour>
  </outline>
</glyph>
<glyph name="t" format="1">
  <advance width="325"/>
  <unicode hex="0074"/>
  <outline>
    <contour>
      <point x="24" y="453" type="curve"/>
      <point x="311" y="453" type="line"/>
      <point x="311" y="532"/>
      <point x="311" y="453"/>
      <point x="311" y="532" type="curve"/>
      <point x="24" y="532" type="line"/>
      <point x="24" y="453"/>
      <point x="24" y="532"/>
    </contour>
    <contour>
      <point x="276" y="97" type="curve"/>
      <point x="260" y="85"/>
      <point x="249" y="78"/>
      <point x="230" y="78" type="curve"/>
      <point x="190" y="78"/>
      <point x="187" y="116"/>
      <point x="187" y="164" type="curve"/>
      <point x="187" y="680" type="line"/>
      <point x="95" y="622"/>
      <point x="178" y="672"/>
      <point x="86" y="614" type="curve"/>
      <point x="86" y="160" type="line"/>
      <point x="86" y="59"/>
      <point x="125" y="-6"/>
      <point x="216" y="-6" type="curve"/>
      <point x="256" y="-6"/>
      <point x="283" y="7"/>
      <point x="317" y="29" type="curve"/>
      <point x="276" y="97"/>
      <point x="317" y="29"/>
    </contour>
    <contour>
      <point x="248" y="-24" type="move" name="bottom"/>
    </contour>
  </outline>
</glyph>
<glyph name="v" format="1">
  <advance width="463"/>
  <unicode hex="0076"/>
  <outline>
    <contour>
      <point x="19" y="533" type="curve"/>
      <point x="70" y="355"/>
      <point x="121" y="178"/>
      <point x="172" y="0" type="curve"/>
      <point x="266" y="0"/>
      <point x="172" y="0"/>
      <point x="266" y="0" type="curve"/>
      <point x="216" y="177"/>
      <point x="172" y="356"/>
      <point x="122" y="533" type="curve"/>
      <point x="19" y="533"/>
      <point x="122" y="533"/>
    </contour>
    <contour>
      <point x="347" y="533" type="curve"/>
      <point x="194" y="0" type="line"/>
      <point x="289" y="0"/>
      <point x="194" y="0"/>
      <point x="289" y="0" type="curve"/>
      <point x="343" y="178"/>
      <point x="396" y="355"/>
      <point x="449" y="533" type="curve"/>
      <point x="347" y="533"/>
      <point x="449" y="533"/>
    </contour>
  </outline>
</glyph>
<glyph name="w" format="1">
  <advance width="683"/>
  <unicode hex="0077"/>
  <outline>
    <contour>
      <point x="241" y="0" type="curve"/>
      <point x="291" y="178"/>
      <point x="340" y="355"/>
      <point x="390" y="533" type="curve"/>
      <point x="301" y="533"/>
      <point x="390" y="533"/>
      <point x="301" y="533" type="curve"/>
      <point x="252" y="355"/>
      <point x="203" y="178"/>
      <point x="155" y="0" type="curve"/>
      <point x="241" y="0"/>
      <point x="155" y="0"/>
    </contour>
    <contour>
      <point x="577" y="533" type="curve"/>
      <point x="531" y="355"/>
      <point x="486" y="178"/>
      <point x="441" y="0" type="curve"/>
      <point x="526" y="0"/>
      <point x="441" y="0"/>
      <point x="526" y="0" type="curve"/>
      <point x="573" y="178"/>
      <point x="620" y="355"/>
      <point x="666" y="533" type="curve"/>
      <point x="577" y="533"/>
      <point x="666" y="533"/>
    </contour>
    <contour>
      <point x="306" y="533" type="curve"/>
      <point x="350" y="355"/>
      <point x="395" y="178"/>
      <point x="440" y="0" type="curve"/>
      <point x="526" y="0"/>
      <point x="440" y="0"/>
      <point x="526" y="0" type="curve"/>
      <point x="482" y="178"/>
      <point x="437" y="355"/>
      <point x="393" y="533" type="curve"/>
      <point x="306" y="533"/>
      <point x="393" y="533"/>
    </contour>
    <contour>
      <point x="21" y="533" type="curve"/>
      <point x="65" y="355"/>
      <point x="110" y="178"/>
      <point x="154" y="0" type="curve"/>
      <point x="240" y="0"/>
      <point x="154" y="0"/>
      <point x="240" y="0" type="curve"/>
      <point x="196" y="178"/>
      <point x="152" y="355"/>
      <point x="108" y="533" type="curve"/>
      <point x="21" y="533"/>
      <point x="108" y="533"/>
    </contour>
  </outline>
</glyph>
<glyph name="x" format="1">
  <advance width="461"/>
  <unicode hex="0078"/>
  <outline>
    <contour>
      <point x="448" y="0" type="curve"/>
      <point x="413" y="63"/>
      <point x="155" y="470"/>
      <point x="120" y="533" type="curve"/>
      <point x="15" y="533"/>
      <point x="120" y="533"/>
      <point x="15" y="533" type="curve"/>
      <point x="50" y="470"/>
      <point x="308" y="63"/>
      <point x="342" y="0" type="curve"/>
      <point x="448" y="0"/>
      <point x="342" y="0"/>
    </contour>
    <contour>
      <point x="345" y="533" type="curve"/>
      <point x="309" y="470"/>
      <point x="47" y="63"/>
      <point x="12" y="0" type="curve"/>
      <point x="117" y="0"/>
      <point x="12" y="0"/>
      <point x="117" y="0" type="curve"/>
      <point x="151" y="63"/>
      <point x="412" y="470"/>
      <point x="447" y="533" type="curve"/>
      <point x="345" y="533"/>
      <point x="447" y="533"/>
    </contour>
  </outline>
</glyph>
<glyph name="y" format="1">
  <advance width="487"/>
  <unicode hex="0079"/>
  <outline>
    <contour>
      <point x="289" y="-13" type="curve"/>
      <point x="251" y="107"/>
      <point x="156" y="413"/>
      <point x="118" y="533" type="curve"/>
      <point x="14" y="533"/>
      <point x="118" y="533"/>
      <point x="14" y="533" type="curve"/>
      <point x="56" y="414"/>
      <point x="154" y="103"/>
      <point x="196" y="-16" type="curve"/>
      <point x="289" y="-16"/>
      <point x="196" y="-13"/>
    </contour>
    <contour>
      <point x="192" y="-300" type="curve"/>
      <point x="257" y="-121"/>
      <point x="416" y="354"/>
      <point x="481" y="533" type="curve"/>
      <point x="378" y="533"/>
      <point x="481" y="533"/>
      <point x="378" y="533" type="curve"/>
      <point x="313" y="354"/>
      <point x="153" y="-121"/>
      <point x="88" y="-300" type="curve"/>
      <point x="192" y="-300"/>
      <point x="88" y="-300"/>
    </contour>
    <contour>
      <point x="251" y="632" type="move" name="top"/>
    </contour>
  </outline>
</glyph>
<glyph name="braceleft" format="1">
  <advance width="233"/>
  <unicode hex="007B"/>
  <outline>
    <contour>
      <point x="196" y="-35" type="curve"/>
      <point x="156" y="-35"/>
      <point x="157" y="7"/>
      <point x="157" y="52" type="curve"/>
      <point x="157" y="106"/>
      <point x="157" y="159"/>
      <point x="157" y="213" type="curve"/>
      <point x="157" y="309"/>
      <point x="115" y="382"/>
      <point x="27" y="382" type="curve"/>
      <point x="27" y="299"/>
      <point x="27" y="382"/>
      <point x="27" y="299" type="curve"/>
      <point x="62" y="299"/>
      <point x="65" y="262"/>
      <point x="65" y="221" type="curve"/>
      <point x="65" y="166"/>
      <point x="65" y="110"/>
      <point x="65" y="56" type="curve"/>
      <point x="65" y="-42"/>
      <point x="106" y="-114"/>
      <point x="196" y="-114" type="curve"/>
      <point x="196" y="-35"/>
      <point x="196" y="-114"/>
    </contour>
    <contour>
      <point x="196" y="794" type="curve"/>
      <point x="106" y="794"/>
      <point x="65" y="723"/>
      <point x="65" y="627" type="curve"/>
      <point x="65" y="570"/>
      <point x="65" y="513"/>
      <point x="65" y="456" type="curve"/>
      <point x="65" y="416"/>
      <point x="61" y="382"/>
      <point x="27" y="382" type="curve"/>
      <point x="27" y="299"/>
      <point x="27" y="382"/>
      <point x="27" y="299" type="curve"/>
      <point x="116" y="299"/>
      <point x="157" y="371"/>
      <point x="157" y="468" type="curve"/>
      <point x="157" y="521"/>
      <point x="157" y="574"/>
      <point x="157" y="627" type="curve"/>
      <point x="157" y="673"/>
      <point x="155" y="714"/>
      <point x="196" y="714" type="curve"/>
      <point x="196" y="794"/>
      <point x="196" y="714"/>
    </contour>
  </outline>
</glyph>
<glyph name="asciitilde" format="1">
  <advance width="557"/>
  <unicode hex="007E"/>
  <outline>
    <contour>
      <point x="417" y="367" type="curve"/>
      <point x="407" y="328"/>
      <point x="395" y="285"/>
      <point x="365" y="285" type="curve"/>
      <point x="340" y="285"/>
      <point x="327" y="297"/>
      <point x="312" y="315" type="curve"/>
      <point x="276" y="354"/>
      <point x="248" y="376"/>
      <point x="196" y="376" type="curve"/>
      <point x="111" y="376"/>
      <point x="78" y="321"/>
      <point x="59" y="236" type="curve"/>
      <point x="95" y="224"/>
      <point x="104" y="220"/>
      <point x="140" y="209" type="curve"/>
      <point x="149" y="252"/>
      <point x="161" y="292"/>
      <point x="194" y="292" type="curve"/>
      <point x="218" y="292"/>
      <point x="230" y="281"/>
      <point x="246" y="264" type="curve"/>
      <point x="283" y="224"/>
      <point x="311" y="203"/>
      <point x="365" y="202" type="curve"/>
      <point x="448" y="202"/>
      <point x="475" y="261"/>
      <point x="497" y="343" type="curve"/>
      <point x="461" y="353"/>
      <point x="453" y="357"/>
    </contour>
  </outline>
</glyph>
<glyph name="exclamdown" format="1">
  <advance width="247"/>
  <unicode hex="00A1"/>
  <outline>
    <contour>
      <point x="74" y="299" type="line"/>
      <point x="66" y="-194" type="line"/>
      <point x="182" y="-195" type="line"/>
      <point x="175" y="298" type="line"/>
    </contour>
    <contour>
      <point x="72" y="484" type="curve"/>
      <point x="72" y="449"/>
      <point x="94" y="431"/>
      <point x="126" y="431" type="curve"/>
      <point x="158" y="431"/>
      <point x="179" y="450"/>
      <point x="179" y="483" type="curve"/>
      <point x="72" y="484"/>
      <point x="179" y="483"/>
      <point x="72" y="484" type="curve"/>
      <point x="72" y="519"/>
      <point x="94" y="535"/>
      <point x="126" y="535" type="curve"/>
      <point x="159" y="535"/>
      <point x="179" y="517"/>
      <point x="179" y="483" type="curve"/>
      <point x="72" y="484"/>
      <point x="179" y="483"/>
    </contour>
  </outline>
</glyph>
<glyph name="cent" format="1">
  <advance width="515"/>
  <unicode hex="00A2"/>
  <outline>
    <contour>
      <point x="326" y="-53" type="curve"/>
      <point x="326" y="-13"/>
      <point x="326" y="27"/>
      <point x="326" y="67" type="curve"/>
      <point x="225" y="67"/>
      <point x="326" y="67"/>
      <point x="225" y="67" type="curve"/>
      <point x="225" y="27"/>
      <point x="225" y="-13"/>
      <point x="225" y="-53" type="curve"/>
      <point x="326" y="-53"/>
      <point x="225" y="-53"/>
    </contour>
    <contour>
      <point x="241" y="778" type="curve"/>
      <point x="241" y="742"/>
      <point x="241" y="706"/>
      <point x="241" y="670" type="curve"/>
      <point x="341" y="670"/>
      <point x="241" y="670"/>
      <point x="341" y="670" type="curve"/>
      <point x="341" y="706"/>
      <point x="341" y="742"/>
      <point x="341" y="778" type="curve"/>
      <point x="241" y="778"/>
      <point x="341" y="778"/>
    </contour>
    <contour>
      <point x="475" y="608" type="curve"/>
      <point x="419" y="663"/>
      <point x="370" y="684"/>
      <point x="297" y="684" type="curve"/>
      <point x="126" y="684"/>
      <point x="42" y="549"/>
      <point x="42" y="364" type="curve"/>
      <point x="42" y="186"/>
      <point x="108" y="48"/>
      <point x="271" y="48" type="curve"/>
      <point x="356" y="48"/>
      <point x="415" y="77"/>
      <point x="473" y="147" type="curve"/>
      <point x="411" y="205"/>
      <point x="473" y="147"/>
      <point x="411" y="205" type="curve"/>
      <point x="371" y="163"/>
      <point x="338" y="131"/>
      <point x="280" y="131" type="curve"/>
      <point x="173" y="131"/>
      <point x="142" y="240"/>
      <point x="142" y="368" type="curve"/>
      <point x="142" y="496"/>
      <point x="184" y="601"/>
      <point x="288" y="601" type="curve"/>
      <point x="343" y="601"/>
      <point x="378" y="581"/>
      <point x="417" y="544" type="curve"/>
      <point x="475" y="608"/>
      <point x="417" y="544"/>
    </contour>
  </outline>
</glyph>
<glyph name="sterling" format="1">
  <advance width="403"/>
  <unicode hex="00A3"/>
  <outline>
    <contour>
      <point x="341" y="79" type="curve"/>
      <point x="242" y="79"/>
      <point x="139" y="79"/>
      <point x="41" y="79" type="curve"/>
      <point x="41" y="0"/>
      <point x="41" y="79"/>
      <point x="41" y="0" type="curve"/>
      <point x="139" y="0"/>
      <point x="242" y="0"/>
      <point x="341" y="0" type="curve"/>
      <point x="341" y="79"/>
      <point x="341" y="0"/>
    </contour>
    <contour>
      <point x="301" y="415" type="curve"/>
      <point x="223" y="415"/>
      <point x="137" y="415"/>
      <point x="59" y="415" type="curve"/>
      <point x="59" y="336"/>
      <point x="59" y="415"/>
      <point x="59" y="336" type="curve"/>
      <point x="137" y="336"/>
      <point x="223" y="336"/>
      <point x="301" y="336" type="curve"/>
      <point x="301" y="415"/>
      <point x="301" y="336"/>
    </contour>
    <contour>
      <point x="364" y="666" type="curve"/>
      <point x="328" y="707"/>
      <point x="295" y="722"/>
      <point x="247" y="722" type="curve"/>
      <point x="93" y="722"/>
      <point x="73" y="558"/>
      <point x="105" y="367" type="curve"/>
      <point x="128" y="219"/>
      <point x="136" y="79"/>
      <point x="41" y="79" type="curve"/>
      <point x="41" y="0"/>
      <point x="41" y="79"/>
      <point x="41" y="0" type="curve"/>
      <point x="211" y="0"/>
      <point x="227" y="178"/>
      <point x="194" y="384" type="curve"/>
      <point x="173" y="518"/>
      <point x="163" y="646"/>
      <point x="242" y="646" type="curve"/>
      <point x="273" y="646"/>
      <point x="291" y="629"/>
      <point x="313" y="609" type="curve"/>
      <point x="364" y="666"/>
      <point x="313" y="609"/>
    </contour>
  </outline>
</glyph>
<glyph name="currency" format="1">
  <advance width="574"/>
  <unicode hex="00A4"/>
  <outline>
    <contour>
      <point x="225" y="315" type="curve"/>
      <point x="225" y="370"/>
      <point x="236" y="421"/>
      <point x="285" y="421" type="curve"/>
      <point x="336" y="421"/>
      <point x="347" y="374"/>
      <point x="347" y="315" type="curve"/>
      <point x="347" y="257"/>
      <point x="338" y="202"/>
      <point x="288" y="202" type="curve"/>
      <point x="235" y="202"/>
      <point x="225" y="254"/>
      <point x="225" y="315" type="curve"/>
      <point x="124" y="315"/>
      <point x="230" y="315"/>
      <point x="129" y="315" type="curve"/>
      <point x="129" y="203"/>
      <point x="183" y="124"/>
      <point x="288" y="124" type="curve"/>
      <point x="393" y="124"/>
      <point x="445" y="206"/>
      <point x="445" y="317" type="curve"/>
      <point x="445" y="423"/>
      <point x="394" y="499"/>
      <point x="294" y="499" type="curve"/>
      <point x="188" y="499"/>
      <point x="129" y="424"/>
      <point x="129" y="315" type="curve"/>
      <point x="230" y="315"/>
      <point x="124" y="315"/>
    </contour>
    <contour>
      <point x="369" y="370" type="line"/>
      <point x="521" y="512" type="line"/>
      <point x="448" y="584" type="line"/>
      <point x="307" y="433" type="line"/>
    </contour>
    <contour>
      <point x="312" y="198" type="line"/>
      <point x="453" y="47" type="line"/>
      <point x="526" y="119" type="line"/>
      <point x="374" y="260" type="line"/>
    </contour>
    <contour>
      <point x="201" y="260" type="line"/>
      <point x="49" y="119" type="line"/>
      <point x="121" y="46" type="line"/>
      <point x="263" y="198" type="line"/>
    </contour>
    <contour>
      <point x="269" y="434" type="line"/>
      <point x="128" y="585" type="line"/>
      <point x="55" y="513" type="line"/>
      <point x="207" y="371" type="line"/>
    </contour>
  </outline>
</glyph>
<glyph name="yen" format="1">
  <advance width="519"/>
  <unicode hex="00A5"/>
  <outline>
    <contour>
      <point x="422" y="403" type="curve"/>
      <point x="370" y="403"/>
      <point x="319" y="403"/>
      <point x="268" y="403" type="curve"/>
      <point x="268" y="315"/>
      <point x="268" y="403"/>
      <point x="268" y="315" type="curve"/>
      <point x="319" y="315"/>
      <point x="370" y="315"/>
      <point x="422" y="315" type="curve"/>
      <point x="422" y="403"/>
      <point x="422" y="315"/>
    </contour>
    <contour>
      <point x="247" y="403" type="curve"/>
      <point x="196" y="403"/>
      <point x="145" y="403"/>
      <point x="95" y="403" type="curve"/>
      <point x="95" y="315"/>
      <point x="95" y="403"/>
      <point x="95" y="315" type="curve"/>
      <point x="145" y="315"/>
      <point x="196" y="315"/>
      <point x="247" y="315" type="curve"/>
      <point x="247" y="403"/>
      <point x="247" y="315"/>
    </contour>
    <contour>
      <point x="422" y="267" type="curve"/>
      <point x="313" y="267"/>
      <point x="204" y="267"/>
      <point x="95" y="267" type="curve"/>
      <point x="95" y="181"/>
      <point x="95" y="267"/>
      <point x="95" y="181" type="curve"/>
      <point x="204" y="181"/>
      <point x="313" y="181"/>
      <point x="422" y="181" type="curve"/>
      <point x="422" y="267"/>
      <point x="422" y="181"/>
    </contour>
    <contour>
      <point x="33" y="722" type="curve"/>
      <point x="91" y="594"/>
      <point x="146" y="468"/>
      <point x="202" y="337" type="curve"/>
      <point x="305" y="337"/>
      <point x="188" y="337"/>
      <point x="290" y="337" type="curve"/>
      <point x="239" y="468"/>
      <point x="189" y="592"/>
      <point x="136" y="722" type="curve"/>
      <point x="33" y="722"/>
      <point x="136" y="722"/>
    </contour>
    <contour>
      <point x="387" y="722" type="curve"/>
      <point x="329" y="591"/>
      <point x="276" y="468"/>
      <point x="217" y="337" type="curve"/>
      <point x="319" y="337"/>
      <point x="209" y="337"/>
      <point x="312" y="337" type="curve"/>
      <point x="372" y="467"/>
      <point x="430" y="594"/>
      <point x="490" y="722" type="curve"/>
      <point x="387" y="722"/>
      <point x="490" y="722"/>
    </contour>
    <contour>
      <point x="312" y="0" type="curve"/>
      <point x="312" y="115"/>
      <point x="312" y="225"/>
      <point x="312" y="340" type="curve"/>
      <point x="202" y="340"/>
      <point x="312" y="340"/>
      <point x="202" y="340" type="curve"/>
      <point x="202" y="225"/>
      <point x="202" y="115"/>
      <point x="202" y="0" type="curve"/>
      <point x="312" y="0"/>
      <point x="202" y="0"/>
    </contour>
  </outline>
</glyph>
<glyph name="section" format="1">
  <advance width="426"/>
  <unicode hex="00A7"/>
  <outline>
    <contour>
      <point x="341" y="702" type="curve"/>
      <point x="299" y="734"/>
      <point x="267" y="749"/>
      <point x="217" y="749" type="curve"/>
      <point x="125" y="749"/>
      <point x="69" y="693"/>
      <point x="69" y="606" type="curve"/>
      <point x="69" y="528"/>
      <point x="109" y="478"/>
      <point x="181" y="447" type="curve"/>
      <point x="232" y="424"/>
      <point x="284" y="410"/>
      <point x="284" y="361" type="curve"/>
      <point x="284" y="310"/>
      <point x="260" y="275"/>
      <point x="210" y="263" type="curve"/>
      <point x="270" y="199"/>
      <point x="210" y="263"/>
      <point x="270" y="199" type="curve"/>
      <point x="348" y="222"/>
      <point x="385" y="280"/>
      <point x="385" y="361" type="curve"/>
      <point x="384" y="450"/>
      <point x="316" y="487"/>
      <point x="231" y="522" type="curve"/>
      <point x="193" y="538"/>
      <point x="164" y="564"/>
      <point x="164" y="606" type="curve"/>
      <point x="164" y="640"/>
      <point x="181" y="671"/>
      <point x="217" y="671" type="curve"/>
      <point x="252" y="671"/>
      <point x="268" y="658"/>
      <point x="293" y="640" type="curve"/>
      <point x="341" y="702"/>
      <point x="293" y="640"/>
    </contour>
    <contour>
      <point x="157" y="523" type="curve"/>
      <point x="84" y="494"/>
      <point x="44" y="444"/>
      <point x="44" y="366" type="curve"/>
      <point x="44" y="281"/>
      <point x="100" y="236"/>
      <point x="181" y="203" type="curve"/>
      <point x="225" y="184"/>
      <point x="266" y="168"/>
      <point x="266" y="121" type="curve"/>
      <point x="266" y="82"/>
      <point x="248" y="51"/>
      <point x="214" y="51" type="curve"/>
      <point x="175" y="51"/>
      <point x="154" y="68"/>
      <point x="125" y="94" type="curve"/>
      <point x="69" y="38"/>
      <point x="125" y="94"/>
      <point x="69" y="38" type="curve"/>
      <point x="114" y="-8"/>
      <point x="154" y="-27"/>
      <point x="212" y="-27" type="curve"/>
      <point x="304" y="-27"/>
      <point x="363" y="29"/>
      <point x="363" y="121" type="curve"/>
      <point x="362" y="200"/>
      <point x="319" y="248"/>
      <point x="245" y="278" type="curve"/>
      <point x="194" y="300"/>
      <point x="145" y="316"/>
      <point x="145" y="366" type="curve"/>
      <point x="145" y="413"/>
      <point x="164" y="446"/>
      <point x="207" y="464" type="curve"/>
      <point x="157" y="523"/>
      <point x="207" y="464"/>
    </contour>
  </outline>
</glyph>
<glyph name="dieresis" format="1">
  <advance width="378"/>
  <unicode hex="00A8"/>
  <outline>
    <contour>
      <point x="158" y="670" type="curve"/>
      <point x="158" y="704"/>
      <point x="135" y="722"/>
      <point x="104" y="722" type="curve"/>
      <point x="71" y="722"/>
      <point x="51" y="703"/>
      <point x="51" y="670" type="curve"/>
      <point x="158" y="670"/>
      <point x="51" y="670"/>
      <point x="158" y="670" type="curve"/>
      <point x="158" y="634"/>
      <point x="136" y="618"/>
      <point x="104" y="618" type="curve"/>
      <point x="71" y="618"/>
      <point x="51" y="635"/>
      <point x="51" y="670" type="curve"/>
      <point x="158" y="670"/>
      <point x="51" y="670"/>
    </contour>
    <contour>
      <point x="317" y="670" type="curve"/>
      <point x="317" y="704"/>
      <point x="294" y="722"/>
      <point x="262" y="722" type="curve"/>
      <point x="230" y="722"/>
      <point x="209" y="703"/>
      <point x="209" y="670" type="curve"/>
      <point x="317" y="670"/>
      <point x="209" y="670"/>
      <point x="317" y="670" type="curve"/>
      <point x="317" y="634"/>
      <point x="295" y="618"/>
      <point x="262" y="618" type="curve"/>
      <point x="229" y="618"/>
      <point x="209" y="635"/>
      <point x="209" y="670" type="curve"/>
      <point x="317" y="670"/>
      <point x="209" y="670"/>
    </contour>
    <contour>
      <point x="183" y="623" type="move" name="_top"/>
    </contour>
  </outline>
</glyph>
<glyph name="copyright" format="1">
  <advance width="624"/>
  <unicode hex="00A9"/>
  <outline>
    <contour>
      <point x="129" y="322" type="curve"/>
      <point x="129" y="463"/>
      <point x="187" y="581"/>
      <point x="314" y="581" type="curve"/>
      <point x="438" y="581"/>
      <point x="494" y="461"/>
      <point x="494" y="321" type="curve"/>
      <point x="494" y="184"/>
      <point x="441" y="67"/>
      <point x="320" y="67" type="curve"/>
      <point x="194" y="67"/>
      <point x="129" y="182"/>
      <point x="129" y="322" type="curve"/>
      <point x="46" y="322"/>
      <point x="131" y="322"/>
      <point x="48" y="322" type="curve"/>
      <point x="48" y="143"/>
      <point x="146" y="2"/>
      <point x="316" y="2" type="curve"/>
      <point x="483" y="2"/>
      <point x="573" y="144"/>
      <point x="573" y="324" type="curve"/>
      <point x="573" y="503"/>
      <point x="481" y="645"/>
      <point x="314" y="645" type="curve"/>
      <point x="144" y="645"/>
      <point x="48" y="504"/>
      <point x="48" y="322" type="curve"/>
      <point x="131" y="322"/>
      <point x="46" y="322"/>
    </contour>
    <contour>
      <point x="431" y="445" type="curve"/>
      <point x="399" y="491"/>
      <point x="364" y="507"/>
      <point x="320" y="507" type="curve"/>
      <point x="218" y="507"/>
      <point x="172" y="429"/>
      <point x="172" y="322" type="curve"/>
      <point x="172" y="217"/>
      <point x="211" y="141"/>
      <point x="307" y="141" type="curve"/>
      <point x="359" y="141"/>
      <point x="395" y="152"/>
      <point x="430" y="201" type="curve"/>
      <point x="378" y="239"/>
      <point x="430" y="201"/>
      <point x="378" y="239" type="curve"/>
      <point x="358" y="219"/>
      <point x="341" y="206"/>
      <point x="311" y="206" type="curve"/>
      <point x="257" y="206"/>
      <point x="248" y="261"/>
      <point x="248" y="325" type="curve"/>
      <point x="248" y="389"/>
      <point x="260" y="442"/>
      <point x="316" y="442" type="curve"/>
      <point x="339" y="442"/>
      <point x="356" y="435"/>
      <point x="373" y="416" type="curve"/>
      <point x="436" y="447"/>
      <point x="367" y="414"/>
    </contour>
  </outline>
</glyph>
<glyph name="ordfeminine" format="1">
  <advance width="342"/>
  <unicode hex="00AA"/>
  <outline>
    <contour>
      <point x="278" y="426" type="curve"/>
      <point x="278" y="510"/>
      <point x="278" y="585"/>
      <point x="278" y="669" type="curve"/>
      <point x="278" y="736"/>
      <point x="234" y="769"/>
      <point x="168" y="769" type="curve"/>
      <point x="120" y="769"/>
      <point x="87" y="748"/>
      <point x="61" y="720" type="curve"/>
      <point x="85" y="679"/>
      <point x="65" y="716"/>
      <point x="89" y="675" type="curve"/>
      <point x="105" y="693"/>
      <point x="125" y="713"/>
      <point x="159" y="713" type="curve"/>
      <point x="191" y="713"/>
      <point x="210" y="693"/>
      <point x="210" y="660" type="curve"/>
      <point x="210" y="578"/>
      <point x="210" y="507"/>
      <point x="210" y="426" type="curve"/>
      <point x="272" y="426"/>
      <point x="215" y="426"/>
    </contour>
    <contour>
      <point x="242" y="643" type="curve"/>
      <point x="207" y="638"/>
      <point x="185" y="635"/>
      <point x="150" y="629" type="curve"/>
      <point x="87" y="619"/>
      <point x="45" y="589"/>
      <point x="45" y="526" type="curve"/>
      <point x="45" y="463"/>
      <point x="79" y="424"/>
      <point x="142" y="424" type="curve"/>
      <point x="203" y="424"/>
      <point x="227" y="472"/>
      <point x="261" y="518" type="curve"/>
      <point x="230" y="544"/>
      <point x="258" y="521"/>
      <point x="227" y="547" type="curve"/>
      <point x="210" y="509"/>
      <point x="196" y="477"/>
      <point x="158" y="477" type="curve"/>
      <point x="125" y="477"/>
      <point x="111" y="498"/>
      <point x="111" y="530" type="curve"/>
      <point x="111" y="557"/>
      <point x="128" y="577"/>
      <point x="152" y="582" type="curve"/>
      <point x="189" y="588"/>
      <point x="208" y="591"/>
      <point x="245" y="598" type="curve"/>
      <point x="243" y="639"/>
      <point x="245" y="602"/>
    </contour>
  </outline>
</glyph>
<glyph name="guillemotleft" format="1">
  <advance width="446"/>
  <unicode hex="00AB"/>
  <outline>
    <contour>
      <point x="207" y="457" type="curve"/>
      <point x="180" y="435"/>
      <point x="68" y="356"/>
      <point x="40" y="333" type="curve"/>
      <point x="40" y="246"/>
      <point x="40" y="320"/>
      <point x="40" y="233" type="curve"/>
      <point x="68" y="256"/>
      <point x="180" y="342"/>
      <point x="207" y="364" type="curve"/>
      <point x="207" y="451"/>
      <point x="207" y="371"/>
    </contour>
    <contour>
      <point x="208" y="204" type="curve"/>
      <point x="181" y="226"/>
      <point x="68" y="311"/>
      <point x="40" y="333" type="curve"/>
      <point x="40" y="246"/>
      <point x="40" y="320"/>
      <point x="40" y="233" type="curve"/>
      <point x="68" y="211"/>
      <point x="181" y="133"/>
      <point x="208" y="111" type="curve"/>
      <point x="208" y="197"/>
      <point x="208" y="118"/>
    </contour>
    <contour>
      <point x="381" y="457" type="curve"/>
      <point x="354" y="435"/>
      <point x="242" y="356"/>
      <point x="214" y="333" type="curve"/>
      <point x="214" y="246"/>
      <point x="214" y="320"/>
      <point x="214" y="233" type="curve"/>
      <point x="242" y="256"/>
      <point x="354" y="342"/>
      <point x="381" y="364" type="curve"/>
      <point x="381" y="451"/>
      <point x="381" y="371"/>
    </contour>
    <contour>
      <point x="382" y="204" type="curve"/>
      <point x="354" y="226"/>
      <point x="242" y="311"/>
      <point x="214" y="333" type="curve"/>
      <point x="214" y="246"/>
      <point x="214" y="320"/>
      <point x="214" y="233" type="curve"/>
      <point x="242" y="211"/>
      <point x="354" y="133"/>
      <point x="382" y="111" type="curve"/>
      <point x="382" y="197"/>
      <point x="382" y="118"/>
    </contour>
  </outline>
</glyph>
<glyph name="logicalnot" format="1">
  <advance width="537"/>
  <unicode hex="00AC"/>
  <outline>
    <contour>
      <point x="67" y="270" type="curve"/>
      <point x="466" y="270" type="line"/>
      <point x="466" y="356"/>
      <point x="466" y="270"/>
      <point x="466" y="356" type="curve"/>
      <point x="67" y="356" type="line"/>
      <point x="67" y="270"/>
      <point x="67" y="356"/>
    </contour>
    <contour>
      <point x="466" y="143" type="curve"/>
      <point x="466" y="356" type="line"/>
      <point x="366" y="356"/>
      <point x="467" y="356"/>
      <point x="366" y="356" type="curve"/>
      <point x="366" y="143" type="line"/>
      <point x="467" y="143"/>
      <point x="366" y="143"/>
    </contour>
  </outline>
</glyph>
<glyph name="registered" format="1">
  <advance width="640"/>
  <unicode hex="00AE"/>
  <outline>
    <contour>
      <point x="121" y="321" type="curve"/>
      <point x="121" y="471"/>
      <point x="185" y="586"/>
      <point x="323" y="586" type="curve"/>
      <point x="459" y="586"/>
      <point x="520" y="469"/>
      <point x="520" y="319" type="curve"/>
      <point x="520" y="173"/>
      <point x="461" y="59"/>
      <point x="329" y="59" type="curve"/>
      <point x="191" y="59"/>
      <point x="121" y="171"/>
      <point x="121" y="321" type="curve"/>
      <point x="89" y="321"/>
      <point x="82" y="321"/>
      <point x="51" y="321" type="curve"/>
      <point x="51" y="135"/>
      <point x="148" y="1"/>
      <point x="325" y="1" type="curve"/>
      <point x="500" y="1"/>
      <point x="589" y="137"/>
      <point x="589" y="322" type="curve"/>
      <point x="589" y="508"/>
      <point x="498" y="644"/>
      <point x="323" y="644" type="curve"/>
      <point x="146" y="644"/>
      <point x="51" y="508"/>
      <point x="51" y="321" type="curve"/>
      <point x="82" y="321"/>
      <point x="89" y="321"/>
    </contour>
    <contour>
      <point x="302" y="317" type="curve"/>
      <point x="309" y="298"/>
      <point x="366" y="163"/>
      <point x="374" y="144" type="curve"/>
      <point x="414" y="144"/>
      <point x="403" y="144"/>
      <point x="444" y="144" type="curve"/>
      <point x="436" y="162"/>
      <point x="379" y="292"/>
      <point x="371" y="312" type="curve"/>
      <point x="281" y="312"/>
      <point x="392" y="317"/>
    </contour>
    <contour>
      <point x="300" y="144" type="curve"/>
      <point x="300" y="244"/>
      <point x="300" y="401"/>
      <point x="300" y="501" type="curve"/>
      <point x="251" y="501"/>
      <point x="278" y="503"/>
      <point x="225" y="503" type="curve"/>
      <point x="225" y="402"/>
      <point x="225" y="244"/>
      <point x="225" y="144" type="curve"/>
      <point x="276" y="144"/>
      <point x="242" y="144"/>
    </contour>
    <contour>
      <point x="268" y="278" type="curve"/>
      <point x="282" y="278"/>
      <point x="296" y="278"/>
      <point x="309" y="278" type="curve"/>
      <point x="384" y="278"/>
      <point x="430" y="316"/>
      <point x="430" y="392" type="curve"/>
      <point x="430" y="459"/>
      <point x="391" y="503"/>
      <point x="326" y="503" type="curve"/>
      <point x="320" y="503"/>
      <point x="241" y="503"/>
      <point x="235" y="503" type="curve"/>
      <point x="226" y="463"/>
      <point x="308" y="503"/>
      <point x="225" y="437" type="curve"/>
      <point x="254" y="437"/>
      <point x="283" y="437"/>
      <point x="311" y="437" type="curve"/>
      <point x="340" y="437"/>
      <point x="358" y="419"/>
      <point x="358" y="389" type="curve"/>
      <point x="358" y="361"/>
      <point x="346" y="343"/>
      <point x="321" y="343" type="curve"/>
      <point x="303" y="343"/>
      <point x="285" y="343"/>
      <point x="268" y="343" type="curve"/>
      <point x="268" y="278"/>
      <point x="268" y="343"/>
    </contour>
  </outline>
</glyph>
<glyph name="macron" format="1">
  <advance width="276"/>
  <unicode hex="00AF"/>
  <outline>
    <contour>
      <point x="195" y="683" type="curve"/>
      <point x="140" y="683"/>
      <point x="84" y="683"/>
      <point x="30" y="683" type="curve"/>
      <point x="30" y="605"/>
      <point x="30" y="683"/>
      <point x="30" y="605" type="curve"/>
      <point x="84" y="605"/>
      <point x="140" y="605"/>
      <point x="195" y="605" type="curve"/>
      <point x="195" y="683"/>
      <point x="195" y="605"/>
    </contour>
    <contour>
      <point x="113" y="605" type="move" name="_top"/>
    </contour>
  </outline>
</glyph>
<glyph name="degree" format="1">
  <advance width="388"/>
  <unicode hex="00B0"/>
  <outline>
    <contour>
      <point x="343" y="556" type="curve"/>
      <point x="343" y="662"/>
      <point x="294" y="737"/>
      <point x="193" y="737" type="curve"/>
      <point x="93" y="737"/>
      <point x="46" y="662"/>
      <point x="46" y="557" type="curve"/>
      <point x="82" y="557"/>
      <point x="92" y="557"/>
      <point x="128" y="557" type="curve"/>
      <point x="128" y="616"/>
      <point x="140" y="665"/>
      <point x="192" y="665" type="curve"/>
      <point x="244" y="665"/>
      <point x="257" y="616"/>
      <point x="257" y="556" type="curve"/>
      <point x="257" y="495"/>
      <point x="247" y="444"/>
      <point x="194" y="444" type="curve"/>
      <point x="140" y="444"/>
      <point x="128" y="496"/>
      <point x="128" y="557" type="curve"/>
      <point x="92" y="557"/>
      <point x="82" y="557"/>
      <point x="46" y="557" type="curve"/>
      <point x="46" y="449"/>
      <point x="92" y="372"/>
      <point x="194" y="372" type="curve"/>
      <point x="296" y="372"/>
      <point x="343" y="448"/>
    </contour>
  </outline>
</glyph>
<glyph name="plusminus" format="1">
  <advance width="615"/>
  <unicode hex="00B1"/>
  <outline>
    <contour>
      <point x="54" y="43" type="line"/>
      <point x="561" y="43" type="line"/>
      <point x="561" y="129" type="line"/>
      <point x="54" y="129" type="line"/>
    </contour>
    <contour>
      <point x="54" y="270" type="curve"/>
      <point x="561" y="270" type="line"/>
      <point x="561" y="356"/>
      <point x="561" y="270"/>
      <point x="561" y="356" type="curve"/>
      <point x="54" y="356" type="line"/>
      <point x="54" y="270"/>
      <point x="54" y="356"/>
    </contour>
    <contour>
      <point x="355" y="44" type="curve"/>
      <point x="355" y="582" type="line"/>
      <point x="254" y="582"/>
      <point x="361" y="582"/>
      <point x="260" y="582" type="curve"/>
      <point x="260" y="44" type="line"/>
      <point x="361" y="44"/>
      <point x="254" y="44"/>
    </contour>
  </outline>
</glyph>
<glyph name="twosuperior" format="1">
  <advance width="375"/>
  <unicode hex="00B2"/>
  <outline>
    <contour>
      <point x="46" y="357" type="curve"/>
      <point x="136" y="357"/>
      <point x="241" y="357"/>
      <point x="322" y="357" type="curve"/>
      <point x="322" y="390"/>
      <point x="322" y="383"/>
      <point x="322" y="421" type="curve"/>
      <point x="236" y="421"/>
      <point x="131" y="421"/>
      <point x="46" y="421" type="curve"/>
      <point x="46" y="357"/>
      <point x="46" y="421"/>
    </contour>
    <contour>
      <point x="125" y="658" type="curve"/>
      <point x="135" y="690"/>
      <point x="148" y="718"/>
      <point x="182" y="718" type="curve"/>
      <point x="216" y="718"/>
      <point x="230" y="688"/>
      <point x="230" y="649" type="curve"/>
      <point x="230" y="610"/>
      <point x="209" y="587"/>
      <point x="183" y="558" type="curve"/>
      <point x="138" y="512"/>
      <point x="92" y="467"/>
      <point x="46" y="421" type="curve"/>
      <point x="50" y="357"/>
      <point x="46" y="421"/>
      <point x="50" y="357" type="curve"/>
      <point x="109" y="407"/>
      <point x="185" y="456"/>
      <point x="236" y="507" type="curve"/>
      <point x="278" y="553"/>
      <point x="309" y="589"/>
      <point x="309" y="652" type="curve"/>
      <point x="309" y="731"/>
      <point x="262" y="782"/>
      <point x="185" y="782" type="curve"/>
      <point x="124" y="782"/>
      <point x="84" y="754"/>
      <point x="65" y="680" type="curve"/>
      <point x="125" y="658"/>
      <point x="65" y="680"/>
    </contour>
    <contour>
      <point x="194" y="783" type="move" name="_top"/>
    </contour>
    <contour>
      <point x="176" y="357" type="move" name="_bottom"/>
    </contour>
  </outline>
</glyph>
<glyph name="threesuperior" format="1">
  <advance width="334"/>
  <unicode hex="00B3"/>
  <outline>
    <contour>
      <point x="95" y="682" type="curve"/>
      <point x="108" y="699"/>
      <point x="123" y="715"/>
      <point x="146" y="715" type="curve"/>
      <point x="178" y="715"/>
      <point x="195" y="691"/>
      <point x="195" y="657" type="curve"/>
      <point x="195" y="618"/>
      <point x="159" y="600"/>
      <point x="116" y="596" type="curve"/>
      <point x="116" y="541"/>
      <point x="116" y="596"/>
      <point x="116" y="541" type="curve"/>
      <point x="206" y="544"/>
      <point x="277" y="581"/>
      <point x="277" y="662" type="curve"/>
      <point x="277" y="737"/>
      <point x="229" y="780"/>
      <point x="154" y="780" type="curve"/>
      <point x="110" y="780"/>
      <point x="70" y="757"/>
      <point x="45" y="723" type="curve"/>
      <point x="95" y="682"/>
      <point x="45" y="723"/>
    </contour>
    <contour>
      <point x="44" y="385" type="curve"/>
      <point x="73" y="363"/>
      <point x="103" y="350"/>
      <point x="139" y="350" type="curve"/>
      <point x="229" y="348"/>
      <point x="289" y="391"/>
      <point x="289" y="477" type="curve"/>
      <point x="289" y="560"/>
      <point x="210" y="584"/>
      <point x="116" y="588" type="curve"/>
      <point x="116" y="539"/>
      <point x="116" y="588"/>
      <point x="116" y="539" type="curve"/>
      <point x="167" y="536"/>
      <point x="206" y="515"/>
      <point x="206" y="473" type="curve"/>
      <point x="206" y="437"/>
      <point x="184" y="412"/>
      <point x="147" y="414" type="curve"/>
      <point x="124" y="414"/>
      <point x="103" y="420"/>
      <point x="85" y="434" type="curve"/>
      <point x="44" y="385"/>
      <point x="85" y="434"/>
    </contour>
    <contour>
      <point x="167" y="780" type="move" name="_top"/>
    </contour>
    <contour>
      <point x="161" y="350" type="move" name="_bottom"/>
    </contour>
  </outline>
</glyph>
<glyph name="paragraph" format="1">
  <advance width="649"/>
  <unicode hex="00B6"/>
  <outline>
    <contour>
      <point x="348" y="643" type="curve"/>
      <point x="484" y="643"/>
      <point x="348" y="643"/>
      <point x="484" y="643" type="curve"/>
      <point x="484" y="722"/>
      <point x="484" y="643"/>
      <point x="484" y="722" type="curve"/>
      <point x="438" y="722"/>
      <point x="393" y="722"/>
      <point x="348" y="722" type="curve"/>
      <point x="348" y="643"/>
      <point x="348" y="722"/>
    </contour>
    <contour>
      <point x="331" y="374" type="curve"/>
      <point x="297" y="352"/>
      <point x="271" y="338"/>
      <point x="230" y="338" type="curve"/>
      <point x="161" y="338"/>
      <point x="134" y="402"/>
      <point x="134" y="481" type="curve"/>
      <point x="134" y="572"/>
      <point x="176" y="643"/>
      <point x="260" y="643" type="curve"/>
      <point x="289" y="643"/>
      <point x="317" y="643"/>
      <point x="346" y="643" type="curve"/>
      <point x="346" y="722"/>
      <point x="346" y="643"/>
      <point x="346" y="722" type="curve"/>
      <point x="313" y="722"/>
      <point x="280" y="722"/>
      <point x="247" y="722" type="curve"/>
      <point x="112" y="722"/>
      <point x="33" y="623"/>
      <point x="33" y="484" type="curve"/>
      <point x="33" y="350"/>
      <point x="109" y="264"/>
      <point x="238" y="262" type="curve"/>
      <point x="286" y="262"/>
      <point x="325" y="283"/>
      <point x="363" y="308" type="curve"/>
      <point x="331" y="373"/>
      <point x="362" y="310"/>
    </contour>
    <contour>
      <point x="399" y="0" type="curve"/>
      <point x="399" y="241"/>
      <point x="399" y="481"/>
      <point x="399" y="722" type="curve"/>
      <point x="299" y="722"/>
      <point x="399" y="722"/>
      <point x="299" y="722" type="curve"/>
      <point x="299" y="481"/>
      <point x="299" y="241"/>
      <point x="299" y="0" type="curve"/>
      <point x="399" y="0"/>
      <point x="299" y="0"/>
    </contour>
    <contour>
      <point x="576" y="0" type="curve"/>
      <point x="576" y="241"/>
      <point x="576" y="481"/>
      <point x="576" y="722" type="curve"/>
      <point x="475" y="722"/>
      <point x="576" y="722"/>
      <point x="475" y="722" type="curve"/>
      <point x="475" y="481"/>
      <point x="475" y="241"/>
      <point x="475" y="0" type="curve"/>
      <point x="576" y="0"/>
      <point x="475" y="0"/>
    </contour>
  </outline>
</glyph>
<glyph name="periodcentered" format="1">
  <advance width="215"/>
  <unicode hex="00B7"/>
  <outline>
    <contour>
      <point x="161" y="440" type="curve"/>
      <point x="161" y="475"/>
      <point x="138" y="492"/>
      <point x="107" y="492" type="curve"/>
      <point x="74" y="492"/>
      <point x="54" y="473"/>
      <point x="54" y="440" type="curve"/>
      <point x="161" y="440"/>
      <point x="54" y="440"/>
      <point x="161" y="440" type="curve"/>
      <point x="161" y="405"/>
      <point x="139" y="388"/>
      <point x="107" y="388" type="curve"/>
      <point x="74" y="388"/>
      <point x="54" y="406"/>
      <point x="54" y="440" type="curve"/>
      <point x="161" y="440"/>
      <point x="54" y="440"/>
    </contour>
  </outline>
</glyph>
<glyph name="cedilla" format="1">
  <advance width="279"/>
  <unicode hex="00B8"/>
  <outline>
    <contour>
      <point x="117" y="113" type="curve"/>
      <point x="107" y="90"/>
      <point x="78" y="18"/>
      <point x="68" y="-5" type="curve"/>
      <point x="137" y="-68"/>
      <point x="68" y="-5"/>
      <point x="137" y="-68" type="curve"/>
      <point x="148" y="-41"/>
      <point x="183" y="32"/>
      <point x="195" y="58" type="curve"/>
      <point x="117" y="113"/>
      <point x="195" y="58"/>
    </contour>
    <contour>
      <point x="137" y="-68" type="curve"/>
      <point x="143" y="-62"/>
      <point x="148" y="-58"/>
      <point x="157" y="-58" type="curve"/>
      <point x="171" y="-58"/>
      <point x="176" y="-70"/>
      <point x="176" y="-86" type="curve"/>
      <point x="176" y="-106"/>
      <point x="163" y="-117"/>
      <point x="143" y="-117" type="curve"/>
      <point x="125" y="-117"/>
      <point x="110" y="-113"/>
      <point x="95" y="-102" type="curve"/>
      <point x="57" y="-159"/>
      <point x="95" y="-102"/>
      <point x="57" y="-159" type="curve"/>
      <point x="82" y="-178"/>
      <point x="106" y="-185"/>
      <point x="138" y="-185" type="curve"/>
      <point x="200" y="-185"/>
      <point x="240" y="-149"/>
      <point x="240" y="-85" type="curve"/>
      <point x="240" y="-24"/>
      <point x="205" y="16"/>
      <point x="147" y="16" type="curve"/>
      <point x="117" y="16"/>
      <point x="95" y="11"/>
      <point x="68" y="-5" type="curve"/>
      <point x="137" y="-68"/>
      <point x="68" y="-5"/>
    </contour>
    <contour>
      <point x="189" y="58" type="move" name="_bottom"/>
    </contour>
  </outline>
</glyph>
<glyph name="onesuperior" format="1">
  <advance width="259"/>
  <unicode hex="00B9"/>
  <outline>
    <contour>
      <point x="64" y="630" type="line"/>
      <point x="189" y="769" type="line"/>
      <point x="108" y="773" type="line"/>
      <point x="16" y="678" type="line"/>
    </contour>
    <contour>
      <point x="190" y="357" type="curve"/>
      <point x="190" y="773" type="line"/>
      <point x="108" y="773" type="line"/>
      <point x="108" y="357" type="line"/>
      <point x="159" y="357"/>
      <point x="128" y="357"/>
    </contour>
    <contour>
      <point x="141" y="772" type="move" name="_top"/>
    </contour>
    <contour>
      <point x="149" y="358" type="move" name="_bottom"/>
    </contour>
  </outline>
</glyph>
<glyph name="ordmasculine" format="1">
  <advance width="346"/>
  <unicode hex="00BA"/>
  <outline>
    <contour>
      <point x="105" y="598" type="curve"/>
      <point x="105" y="658"/>
      <point x="117" y="712"/>
      <point x="172" y="712" type="curve"/>
      <point x="224" y="712"/>
      <point x="237" y="658"/>
      <point x="237" y="597" type="curve"/>
      <point x="237" y="532"/>
      <point x="226" y="477"/>
      <point x="176" y="477" type="curve"/>
      <point x="116" y="477"/>
      <point x="105" y="532"/>
      <point x="105" y="598" type="curve"/>
      <point x="96" y="598"/>
      <point x="50" y="598"/>
      <point x="41" y="598" type="curve"/>
      <point x="41" y="496"/>
      <point x="81" y="422"/>
      <point x="174" y="422" type="curve"/>
      <point x="264" y="422"/>
      <point x="305" y="495"/>
      <point x="305" y="597" type="curve"/>
      <point x="305" y="696"/>
      <point x="265" y="767"/>
      <point x="174" y="767" type="curve"/>
      <point x="81" y="767"/>
      <point x="41" y="696"/>
      <point x="41" y="598" type="curve"/>
      <point x="50" y="598"/>
      <point x="96" y="598"/>
    </contour>
  </outline>
</glyph>
<glyph name="guillemotright" format="1">
  <advance width="450"/>
  <unicode hex="00BB"/>
  <outline>
    <contour>
      <point x="241" y="457" type="curve"/>
      <point x="268" y="435"/>
      <point x="380" y="356"/>
      <point x="408" y="333" type="curve"/>
      <point x="408" y="246"/>
      <point x="408" y="320"/>
      <point x="408" y="233" type="curve"/>
      <point x="380" y="256"/>
      <point x="268" y="342"/>
      <point x="241" y="364" type="curve"/>
      <point x="241" y="451"/>
      <point x="241" y="371"/>
    </contour>
    <contour>
      <point x="241" y="204" type="curve"/>
      <point x="268" y="226"/>
      <point x="380" y="311"/>
      <point x="408" y="333" type="curve"/>
      <point x="408" y="246"/>
      <point x="408" y="320"/>
      <point x="408" y="233" type="curve"/>
      <point x="380" y="211"/>
      <point x="268" y="133"/>
      <point x="241" y="111" type="curve"/>
      <point x="241" y="197"/>
      <point x="241" y="118"/>
    </contour>
    <contour>
      <point x="67" y="457" type="curve"/>
      <point x="94" y="435"/>
      <point x="207" y="356"/>
      <point x="234" y="333" type="curve"/>
      <point x="234" y="246"/>
      <point x="234" y="320"/>
      <point x="234" y="233" type="curve"/>
      <point x="207" y="256"/>
      <point x="94" y="342"/>
      <point x="67" y="364" type="curve"/>
      <point x="67" y="451"/>
      <point x="67" y="371"/>
    </contour>
    <contour>
      <point x="67" y="204" type="curve"/>
      <point x="94" y="226"/>
      <point x="207" y="311"/>
      <point x="234" y="333" type="curve"/>
      <point x="234" y="246"/>
      <point x="234" y="320"/>
      <point x="234" y="233" type="curve"/>
      <point x="207" y="211"/>
      <point x="94" y="133"/>
      <point x="67" y="111" type="curve"/>
      <point x="67" y="197"/>
      <point x="67" y="118"/>
    </contour>
  </outline>
</glyph>
<glyph name="onequarter" format="1">
  <advance width="786"/>
  <unicode hex="00BC"/>
  <outline>
    <contour>
      <point x="278" y="-56" type="line"/>
      <point x="591" y="725" type="line"/>
      <point x="497" y="725" type="line"/>
      <point x="185" y="-56" type="line"/>
    </contour>
    <contour>
      <point x="74" y="583" type="line"/>
      <point x="199" y="722" type="line"/>
      <point x="118" y="726" type="line"/>
      <point x="26" y="631" type="line"/>
    </contour>
    <contour>
      <point x="200" y="310" type="curve"/>
      <point x="200" y="726" type="line"/>
      <point x="118" y="726" type="line"/>
      <point x="118" y="310" type="line"/>
      <point x="169" y="310"/>
      <point x="138" y="310"/>
    </contour>
    <contour>
      <point x="752" y="123" type="line"/>
      <point x="451" y="123" type="line"/>
      <point x="451" y="59" type="line"/>
      <point x="752" y="59" type="line"/>
    </contour>
    <contour>
      <point x="483" y="63" type="line"/>
      <point x="666" y="365" type="line"/>
      <point x="606" y="379" type="line"/>
      <point x="451" y="123" type="line"/>
    </contour>
    <contour>
      <point x="688" y="-51" type="line"/>
      <point x="688" y="379" type="line"/>
      <point x="606" y="379" type="line"/>
      <point x="606" y="-51" type="line"/>
    </contour>
  </outline>
</glyph>
<glyph name="onehalf" format="1">
  <advance width="855"/>
  <unicode hex="00BD"/>
  <outline>
    <contour>
      <point x="309" y="-56" type="line"/>
      <point x="622" y="725" type="line"/>
      <point x="528" y="725" type="line"/>
      <point x="216" y="-56" type="line"/>
    </contour>
    <contour>
      <point x="74" y="583" type="line"/>
      <point x="199" y="722" type="line"/>
      <point x="118" y="726" type="line"/>
      <point x="26" y="631" type="line"/>
    </contour>
    <contour>
      <point x="200" y="310" type="curve"/>
      <point x="200" y="726" type="line"/>
      <point x="118" y="726" type="line"/>
      <point x="118" y="310" type="line"/>
      <point x="169" y="310"/>
      <point x="138" y="310"/>
    </contour>
    <contour>
      <point x="542" y="-52" type="curve"/>
      <point x="631" y="-52"/>
      <point x="737" y="-52"/>
      <point x="818" y="-52" type="curve"/>
      <point x="818" y="-19"/>
      <point x="818" y="-26"/>
      <point x="818" y="12" type="curve"/>
      <point x="732" y="12"/>
      <point x="627" y="12"/>
      <point x="542" y="12" type="curve"/>
      <point x="542" y="-52"/>
      <point x="542" y="12"/>
    </contour>
    <contour>
      <point x="621" y="249" type="curve"/>
      <point x="631" y="281"/>
      <point x="644" y="309"/>
      <point x="678" y="309" type="curve"/>
      <point x="712" y="309"/>
      <point x="726" y="279"/>
      <point x="726" y="240" type="curve"/>
      <point x="726" y="201"/>
      <point x="705" y="178"/>
      <point x="679" y="149" type="curve"/>
      <point x="634" y="103"/>
      <point x="588" y="58"/>
      <point x="542" y="12" type="curve"/>
      <point x="546" y="-52"/>
      <point x="542" y="12"/>
      <point x="546" y="-52" type="curve"/>
      <point x="605" y="-2"/>
      <point x="681" y="47"/>
      <point x="732" y="98" type="curve"/>
      <point x="773" y="144"/>
      <point x="805" y="180"/>
      <point x="805" y="243" type="curve"/>
      <point x="805" y="322"/>
      <point x="758" y="373"/>
      <point x="681" y="373" type="curve"/>
      <point x="620" y="373"/>
      <point x="579" y="345"/>
      <point x="561" y="271" type="curve"/>
      <point x="621" y="249"/>
      <point x="561" y="271"/>
    </contour>
  </outline>
</glyph>
<glyph name="threequarters" format="1">
  <advance width="822"/>
  <unicode hex="00BE"/>
  <outline>
    <contour>
      <point x="319" y="-56" type="line"/>
      <point x="632" y="725" type="line"/>
      <point x="538" y="725" type="line"/>
      <point x="226" y="-56" type="line"/>
    </contour>
    <contour>
      <point x="89" y="627" type="curve"/>
      <point x="103" y="644"/>
      <point x="117" y="660"/>
      <point x="140" y="660" type="curve"/>
      <point x="172" y="660"/>
      <point x="189" y="636"/>
      <point x="189" y="601" type="curve"/>
      <point x="189" y="563"/>
      <point x="153" y="545"/>
      <point x="110" y="541" type="curve"/>
      <point x="110" y="486"/>
      <point x="110" y="541"/>
      <point x="110" y="486" type="curve"/>
      <point x="200" y="489"/>
      <point x="271" y="525"/>
      <point x="271" y="607" type="curve"/>
      <point x="271" y="682"/>
      <point x="223" y="725"/>
      <point x="148" y="725" type="curve"/>
      <point x="104" y="725"/>
      <point x="64" y="702"/>
      <point x="40" y="668" type="curve"/>
      <point x="89" y="627"/>
      <point x="40" y="668"/>
    </contour>
    <contour>
      <point x="38" y="330" type="curve"/>
      <point x="67" y="308"/>
      <point x="98" y="295"/>
      <point x="134" y="295" type="curve"/>
      <point x="224" y="293"/>
      <point x="283" y="336"/>
      <point x="283" y="421" type="curve"/>
      <point x="283" y="505"/>
      <point x="204" y="529"/>
      <point x="110" y="533" type="curve"/>
      <point x="110" y="484"/>
      <point x="110" y="533"/>
      <point x="110" y="484" type="curve"/>
      <point x="161" y="481"/>
      <point x="200" y="460"/>
      <point x="200" y="418" type="curve"/>
      <point x="200" y="382"/>
      <point x="178" y="357"/>
      <point x="141" y="359" type="curve"/>
      <point x="119" y="359"/>
      <point x="98" y="365"/>
      <point x="79" y="379" type="curve"/>
      <point x="38" y="330"/>
      <point x="79" y="379"/>
    </contour>
    <contour>
      <point x="793" y="123" type="line"/>
      <point x="492" y="123" type="line"/>
      <point x="492" y="59" type="line"/>
      <point x="793" y="59" type="line"/>
    </contour>
    <contour>
      <point x="525" y="63" type="line"/>
      <point x="707" y="365" type="line"/>
      <point x="647" y="379" type="line"/>
      <point x="492" y="123" type="line"/>
    </contour>
    <contour>
      <point x="729" y="-51" type="line"/>
      <point x="729" y="379" type="line"/>
      <point x="647" y="379" type="line"/>
      <point x="647" y="-51" type="line"/>
    </contour>
  </outline>
</glyph>
<glyph name="questiondown" format="1">
  <advance width="444"/>
  <unicode hex="00BF"/>
  <outline>
    <contour>
      <point x="275" y="368" type="curve"/>
      <point x="275" y="405"/>
      <point x="275" y="474"/>
      <point x="275" y="511" type="curve"/>
      <point x="183" y="511"/>
      <point x="275" y="511"/>
      <point x="183" y="511" type="curve"/>
      <point x="183" y="474"/>
      <point x="183" y="405"/>
      <point x="183" y="368" type="curve"/>
      <point x="275" y="368"/>
      <point x="183" y="368"/>
    </contour>
    <contour>
      <point x="345" y="137" type="line"/>
      <point x="318" y="102"/>
      <point x="288" y="79"/>
      <point x="242" y="79" type="curve"/>
      <point x="170" y="79"/>
      <point x="136" y="137"/>
      <point x="136" y="213" type="curve"/>
      <point x="136" y="302"/>
      <point x="180" y="368"/>
      <point x="264" y="368" type="curve"/>
      <point x="264" y="402"/>
      <point x="265" y="411"/>
      <point x="265" y="445" type="curve"/>
      <point x="124" y="445"/>
      <point x="39" y="352"/>
      <point x="39" y="213" type="curve"/>
      <point x="39" y="82"/>
      <point x="115" y="-5"/>
      <point x="237" y="-5" type="curve"/>
      <point x="311" y="-5"/>
      <point x="363" y="23"/>
      <point x="400" y="74" type="curve"/>
    </contour>
    <contour>
      <point x="174" y="688" type="curve"/>
      <point x="174" y="653"/>
      <point x="198" y="635"/>
      <point x="229" y="635" type="curve"/>
      <point x="261" y="635"/>
      <point x="282" y="654"/>
      <point x="282" y="688" type="curve"/>
      <point x="174" y="688"/>
      <point x="282" y="688"/>
      <point x="174" y="688" type="curve"/>
      <point x="174" y="723"/>
      <point x="197" y="739"/>
      <point x="229" y="739" type="curve"/>
      <point x="262" y="739"/>
      <point x="282" y="722"/>
      <point x="282" y="688" type="curve"/>
      <point x="174" y="688"/>
      <point x="282" y="688"/>
    </contour>
  </outline>
</glyph>
<glyph name="Acircumflex" format="1">
  <advance width="538"/>
  <unicode hex="00C2"/>
  <outline>
    <contour>
      <point x="383" y="288" type="curve"/>
      <point x="308" y="288"/>
      <point x="232" y="288"/>
      <point x="157" y="288" type="curve"/>
      <point x="115" y="204"/>
      <point x="157" y="288"/>
      <point x="115" y="204" type="curve"/>
      <point x="215" y="204"/>
      <point x="315" y="204"/>
      <point x="415" y="204" type="curve"/>
      <point x="383" y="288"/>
      <point x="415" y="204"/>
    </contour>
    <contour>
      <point x="523" y="0" type="curve"/>
      <point x="457" y="241"/>
      <point x="386" y="481"/>
      <point x="320" y="722" type="curve"/>
      <point x="228" y="722"/>
      <point x="320" y="722"/>
      <point x="228" y="722" type="curve"/>
      <point x="293" y="482"/>
      <point x="353" y="240"/>
      <point x="418" y="0" type="curve"/>
      <point x="523" y="0"/>
      <point x="418" y="0"/>
    </contour>
    <contour>
      <point x="108" y="0" type="curve"/>
      <point x="181" y="240"/>
      <point x="246" y="482"/>
      <point x="319" y="722" type="curve"/>
      <point x="227" y="722"/>
      <point x="319" y="722"/>
      <point x="227" y="722" type="curve"/>
      <point x="153" y="480"/>
      <point x="72" y="242"/>
      <point x="-2" y="0" type="curve"/>
      <point x="108" y="0"/>
      <point x="-2" y="0"/>
    </contour>
    <contour>
      <point x="208" y="796" type="line"/>
      <point x="313" y="962" type="line"/>
      <point x="190" y="962" type="line"/>
      <point x="112" y="796" type="line"/>
    </contour>
    <contour>
      <point x="430" y="796" type="line"/>
      <point x="352" y="962" type="line"/>
      <point x="229" y="962" type="line"/>
      <point x="335" y="796" type="line"/>
    </contour>
  </outline>
</glyph>
<glyph name="Atilde" format="1">
  <advance width="538"/>
  <unicode hex="00C3"/>
  <outline>
    <contour>
      <point x="383" y="288" type="curve"/>
      <point x="308" y="288"/>
      <point x="232" y="288"/>
      <point x="157" y="288" type="curve"/>
      <point x="115" y="204"/>
      <point x="157" y="288"/>
      <point x="115" y="204" type="curve"/>
      <point x="215" y="204"/>
      <point x="315" y="204"/>
      <point x="415" y="204" type="curve"/>
      <point x="383" y="288"/>
      <point x="415" y="204"/>
    </contour>
    <contour>
      <point x="523" y="0" type="curve"/>
      <point x="457" y="241"/>
      <point x="386" y="481"/>
      <point x="320" y="722" type="curve"/>
      <point x="228" y="722"/>
      <point x="320" y="722"/>
      <point x="228" y="722" type="curve"/>
      <point x="293" y="482"/>
      <point x="353" y="240"/>
      <point x="418" y="0" type="curve"/>
      <point x="523" y="0"/>
      <point x="418" y="0"/>
    </contour>
    <contour>
      <point x="108" y="0" type="curve"/>
      <point x="181" y="240"/>
      <point x="246" y="482"/>
      <point x="319" y="722" type="curve"/>
      <point x="227" y="722"/>
      <point x="319" y="722"/>
      <point x="227" y="722" type="curve"/>
      <point x="153" y="480"/>
      <point x="72" y="242"/>
      <point x="-2" y="0" type="curve"/>
      <point x="108" y="0"/>
      <point x="-2" y="0"/>
    </contour>
    <contour>
      <point x="374" y="964" type="curve"/>
      <point x="360" y="923"/>
      <point x="350" y="901"/>
      <point x="329" y="901" type="curve"/>
      <point x="302" y="901"/>
      <point x="290" y="912"/>
      <point x="272" y="931" type="curve"/>
      <point x="249" y="955"/>
      <point x="235" y="969"/>
      <point x="204" y="969" type="curve"/>
      <point x="139" y="969"/>
      <point x="113" y="904"/>
      <point x="97" y="841" type="curve"/>
      <point x="171" y="799"/>
      <point x="97" y="841"/>
      <point x="171" y="799" type="curve"/>
      <point x="187" y="844"/>
      <point x="199" y="866"/>
      <point x="225" y="866" type="curve"/>
      <point x="248" y="866"/>
      <point x="258" y="853"/>
      <point x="272" y="837" type="curve"/>
      <point x="298" y="810"/>
      <point x="315" y="795"/>
      <point x="351" y="795" type="curve"/>
      <point x="415" y="795"/>
      <point x="433" y="858"/>
      <point x="455" y="924" type="curve"/>
      <point x="374" y="964"/>
      <point x="455" y="924"/>
    </contour>
  </outline>
</glyph>
<glyph name="Adieresis" format="1">
  <advance width="538"/>
  <unicode hex="00C4"/>
  <outline>
    <contour>
      <point x="383" y="288" type="curve"/>
      <point x="308" y="288"/>
      <point x="232" y="288"/>
      <point x="157" y="288" type="curve"/>
      <point x="115" y="204"/>
      <point x="157" y="288"/>
      <point x="115" y="204" type="curve"/>
      <point x="215" y="204"/>
      <point x="315" y="204"/>
      <point x="415" y="204" type="curve"/>
      <point x="383" y="288"/>
      <point x="415" y="204"/>
    </contour>
    <contour>
      <point x="523" y="0" type="curve"/>
      <point x="457" y="241"/>
      <point x="386" y="481"/>
      <point x="320" y="722" type="curve"/>
      <point x="228" y="722"/>
      <point x="320" y="722"/>
      <point x="228" y="722" type="curve"/>
      <point x="293" y="482"/>
      <point x="353" y="240"/>
      <point x="418" y="0" type="curve"/>
      <point x="523" y="0"/>
      <point x="418" y="0"/>
    </contour>
    <contour>
      <point x="108" y="0" type="curve"/>
      <point x="181" y="240"/>
      <point x="246" y="482"/>
      <point x="319" y="722" type="curve"/>
      <point x="227" y="722"/>
      <point x="319" y="722"/>
      <point x="227" y="722" type="curve"/>
      <point x="153" y="480"/>
      <point x="72" y="242"/>
      <point x="-2" y="0" type="curve"/>
      <point x="108" y="0"/>
      <point x="-2" y="0"/>
    </contour>
    <contour>
      <point x="246" y="843" type="curve"/>
      <point x="246" y="878"/>
      <point x="223" y="895"/>
      <point x="192" y="895" type="curve"/>
      <point x="159" y="895"/>
      <point x="138" y="876"/>
      <point x="138" y="843" type="curve"/>
      <point x="246" y="843"/>
      <point x="138" y="843"/>
      <point x="246" y="843" type="curve"/>
      <point x="246" y="807"/>
      <point x="224" y="791"/>
      <point x="192" y="791" type="curve"/>
      <point x="159" y="791"/>
      <point x="138" y="809"/>
      <point x="138" y="843" type="curve"/>
      <point x="246" y="843"/>
      <point x="138" y="843"/>
    </contour>
    <contour>
      <point x="405" y="843" type="curve"/>
      <point x="405" y="878"/>
      <point x="382" y="895"/>
      <point x="350" y="895" type="curve"/>
      <point x="318" y="895"/>
      <point x="297" y="876"/>
      <point x="297" y="843" type="curve"/>
      <point x="405" y="843"/>
      <point x="297" y="843"/>
      <point x="405" y="843" type="curve"/>
      <point x="405" y="807"/>
      <point x="382" y="791"/>
      <point x="350" y="791" type="curve"/>
      <point x="317" y="791"/>
      <point x="297" y="809"/>
      <point x="297" y="843" type="curve"/>
      <point x="405" y="843"/>
      <point x="297" y="843"/>
    </contour>
  </outline>
</glyph>
<glyph name="Aring" format="1">
  <advance width="538"/>
  <unicode hex="00C5"/>
  <outline>
    <contour>
      <point x="383" y="288" type="curve"/>
      <point x="308" y="288"/>
      <point x="232" y="288"/>
      <point x="157" y="288" type="curve"/>
      <point x="115" y="204"/>
      <point x="157" y="288"/>
      <point x="115" y="204" type="curve"/>
      <point x="215" y="204"/>
      <point x="315" y="204"/>
      <point x="415" y="204" type="curve"/>
      <point x="383" y="288"/>
      <point x="415" y="204"/>
    </contour>
    <contour>
      <point x="523" y="0" type="curve"/>
      <point x="457" y="241"/>
      <point x="386" y="481"/>
      <point x="320" y="722" type="curve"/>
      <point x="228" y="722"/>
      <point x="320" y="722"/>
      <point x="228" y="722" type="curve"/>
      <point x="293" y="482"/>
      <point x="353" y="240"/>
      <point x="418" y="0" type="curve"/>
      <point x="523" y="0"/>
      <point x="418" y="0"/>
    </contour>
    <contour>
      <point x="108" y="0" type="curve"/>
      <point x="181" y="240"/>
      <point x="246" y="482"/>
      <point x="319" y="722" type="curve"/>
      <point x="227" y="722"/>
      <point x="319" y="722"/>
      <point x="227" y="722" type="curve"/>
      <point x="153" y="480"/>
      <point x="72" y="242"/>
      <point x="-2" y="0" type="curve"/>
      <point x="108" y="0"/>
      <point x="-2" y="0"/>
    </contour>
    <contour>
      <point x="148" y="931" type="curve"/>
      <point x="148" y="850"/>
      <point x="192" y="794"/>
      <point x="271" y="794" type="curve"/>
      <point x="350" y="794"/>
      <point x="395" y="849"/>
      <point x="395" y="931" type="curve"/>
      <point x="395" y="1012"/>
      <point x="349" y="1067"/>
      <point x="269" y="1067" type="curve"/>
      <point x="191" y="1067"/>
      <point x="148" y="1012"/>
      <point x="148" y="931" type="curve"/>
      <point x="237" y="931"/>
      <point x="141" y="931"/>
      <point x="230" y="931" type="curve"/>
      <point x="230" y="964"/>
      <point x="235" y="995"/>
      <point x="269" y="995" type="curve"/>
      <point x="302" y="995"/>
      <point x="309" y="965"/>
      <point x="309" y="931" type="curve"/>
      <point x="309" y="898"/>
      <point x="304" y="867"/>
      <point x="271" y="867" type="curve"/>
      <point x="237" y="867"/>
      <point x="230" y="898"/>
      <point x="230" y="931" type="curve"/>
      <point x="141" y="931"/>
      <point x="237" y="931"/>
    </contour>
  </outline>
</glyph>
<glyph name="AE" format="1">
  <advance width="743"/>
  <unicode hex="00C6"/>
  <outline>
    <contour>
      <point x="368" y="277" type="curve"/>
      <point x="293" y="277"/>
      <point x="235" y="277"/>
      <point x="160" y="277" type="curve"/>
      <point x="119" y="193"/>
      <point x="160" y="277"/>
      <point x="119" y="193" type="curve"/>
      <point x="219" y="193"/>
      <point x="301" y="193"/>
      <point x="400" y="193" type="curve"/>
      <point x="368" y="277"/>
      <point x="400" y="193"/>
    </contour>
    <contour>
      <point x="100" y="0" type="curve"/>
      <point x="446" y="722" type="line"/>
      <point x="354" y="722"/>
      <point x="446" y="722"/>
      <point x="354" y="722" type="curve"/>
      <point x="-10" y="0" type="line"/>
      <point x="100" y="0"/>
      <point x="-10" y="0"/>
    </contour>
    <contour>
      <point x="408" y="333" type="curve"/>
      <point x="488" y="333"/>
      <point x="569" y="333"/>
      <point x="649" y="333" type="curve"/>
      <point x="649" y="413"/>
      <point x="649" y="333"/>
      <point x="649" y="413" type="curve"/>
      <point x="569" y="413"/>
      <point x="488" y="413"/>
      <point x="408" y="413" type="curve"/>
      <point x="408" y="333"/>
      <point x="408" y="413"/>
    </contour>
    <contour>
      <point x="397" y="643" type="curve"/>
      <point x="497" y="643"/>
      <point x="595" y="643"/>
      <point x="695" y="643" type="curve"/>
      <point x="695" y="722"/>
      <point x="695" y="643"/>
      <point x="695" y="722" type="curve"/>
      <point x="595" y="722"/>
      <point x="497" y="722"/>
      <point x="397" y="722" type="curve"/>
      <point x="397" y="643"/>
      <point x="397" y="722"/>
    </contour>
    <contour>
      <point x="455" y="0" type="curve"/>
      <point x="455" y="722" type="line"/>
      <point x="355" y="722"/>
      <point x="455" y="722"/>
      <point x="355" y="722" type="curve"/>
      <point x="355" y="481"/>
      <point x="355" y="241"/>
      <point x="355" y="0" type="curve"/>
      <point x="455" y="0"/>
      <point x="355" y="0"/>
    </contour>
    <contour>
      <point x="397" y="0" type="curve"/>
      <point x="505" y="0"/>
      <point x="612" y="0"/>
      <point x="719" y="0" type="curve"/>
      <point x="719" y="79"/>
      <point x="719" y="0"/>
      <point x="719" y="79" type="curve"/>
      <point x="612" y="79"/>
      <point x="505" y="79"/>
      <point x="397" y="79" type="curve"/>
      <point x="397" y="0"/>
      <point x="397" y="79"/>
    </contour>
  </outline>
</glyph>
<glyph name="Ccedilla" format="1">
  <advance width="543"/>
  <unicode hex="00C7"/>
  <outline>
    <contour>
      <point x="514" y="654" type="curve"/>
      <point x="461" y="696"/>
      <point x="397" y="727"/>
      <point x="323" y="727" type="curve"/>
      <point x="127" y="727"/>
      <point x="49" y="566"/>
      <point x="49" y="345" type="curve"/>
      <point x="49" y="142"/>
      <point x="124" y="-5"/>
      <point x="309" y="-5" type="curve"/>
      <point x="405" y="-5"/>
      <point x="468" y="31"/>
      <point x="527" y="98" type="curve"/>
      <point x="467" y="157"/>
      <point x="526" y="98"/>
      <point x="467" y="157" type="curve"/>
      <point x="422" y="109"/>
      <point x="381" y="78"/>
      <point x="313" y="78" type="curve"/>
      <point x="183" y="78"/>
      <point x="149" y="198"/>
      <point x="149" y="348" type="curve"/>
      <point x="149" y="512"/>
      <point x="182" y="644"/>
      <point x="319" y="644" type="curve"/>
      <point x="374" y="644"/>
      <point x="421" y="622"/>
      <point x="459" y="592" type="curve"/>
      <point x="514" y="654"/>
      <point x="459" y="592"/>
    </contour>
    <contour>
      <point x="264" y="56" type="curve"/>
      <point x="254" y="33"/>
      <point x="224" y="-38"/>
      <point x="214" y="-62" type="curve"/>
      <point x="284" y="-125"/>
      <point x="214" y="-62"/>
      <point x="284" y="-125" type="curve"/>
      <point x="295" y="-98"/>
      <point x="330" y="-25"/>
      <point x="341" y="1" type="curve"/>
      <point x="264" y="56"/>
      <point x="341" y="1"/>
    </contour>
    <contour>
      <point x="284" y="-125" type="curve"/>
      <point x="290" y="-119"/>
      <point x="295" y="-115"/>
      <point x="304" y="-115" type="curve"/>
      <point x="318" y="-115"/>
      <point x="323" y="-126"/>
      <point x="323" y="-143" type="curve"/>
      <point x="323" y="-163"/>
      <point x="310" y="-173"/>
      <point x="290" y="-173" type="curve"/>
      <point x="272" y="-173"/>
      <point x="257" y="-169"/>
      <point x="242" y="-158" type="curve"/>
      <point x="203" y="-216"/>
      <point x="242" y="-158"/>
      <point x="203" y="-216" type="curve"/>
      <point x="229" y="-234"/>
      <point x="253" y="-242"/>
      <point x="285" y="-242" type="curve"/>
      <point x="347" y="-242"/>
      <point x="387" y="-205"/>
      <point x="387" y="-142" type="curve"/>
      <point x="387" y="-81"/>
      <point x="352" y="-40"/>
      <point x="294" y="-40" type="curve"/>
      <point x="263" y="-40"/>
      <point x="241" y="-45"/>
      <point x="214" y="-62" type="curve"/>
      <point x="284" y="-125"/>
      <point x="214" y="-62"/>
    </contour>
  </outline>
</glyph>
<glyph name="Egrave" format="1">
  <advance width="486"/>
  <unicode hex="00C8"/>
  <outline>
    <contour>
      <point x="151" y="333" type="curve"/>
      <point x="231" y="333"/>
      <point x="311" y="333"/>
      <point x="392" y="333" type="curve"/>
      <point x="392" y="413"/>
      <point x="392" y="333"/>
      <point x="392" y="413" type="curve"/>
      <point x="311" y="413"/>
      <point x="231" y="413"/>
      <point x="151" y="413" type="curve"/>
      <point x="151" y="333"/>
      <point x="151" y="413"/>
    </contour>
    <contour>
      <point x="140" y="643" type="curve"/>
      <point x="240" y="643"/>
      <point x="338" y="643"/>
      <point x="438" y="643" type="curve"/>
      <point x="438" y="722"/>
      <point x="438" y="643"/>
      <point x="438" y="722" type="curve"/>
      <point x="338" y="722"/>
      <point x="240" y="722"/>
      <point x="140" y="722" type="curve"/>
      <point x="140" y="643"/>
      <point x="140" y="722"/>
    </contour>
    <contour>
      <point x="198" y="0" type="curve"/>
      <point x="198" y="722" type="line"/>
      <point x="98" y="722"/>
      <point x="198" y="722"/>
      <point x="98" y="722" type="curve"/>
      <point x="98" y="481"/>
      <point x="98" y="241"/>
      <point x="98" y="0" type="curve"/>
      <point x="198" y="0"/>
      <point x="98" y="0"/>
    </contour>
    <contour>
      <point x="140" y="0" type="curve"/>
      <point x="248" y="0"/>
      <point x="355" y="0"/>
      <point x="462" y="0" type="curve"/>
      <point x="462" y="79"/>
      <point x="462" y="0"/>
      <point x="462" y="79" type="curve"/>
      <point x="355" y="79"/>
      <point x="248" y="79"/>
      <point x="140" y="79" type="curve"/>
      <point x="140" y="0"/>
      <point x="140" y="79"/>
    </contour>
    <contour>
      <point x="299" y="797" type="line"/>
      <point x="221" y="963" type="line"/>
      <point x="97" y="963" type="line"/>
      <point x="203" y="797" type="line"/>
    </contour>
  </outline>
</glyph>
<glyph name="Eacute" format="1">
  <advance width="475"/>
  <unicode hex="00C9"/>
  <outline>
    <contour>
      <point x="140" y="333" type="curve"/>
      <point x="220" y="333"/>
      <point x="301" y="333"/>
      <point x="381" y="333" type="curve"/>
      <point x="381" y="413"/>
      <point x="381" y="333"/>
      <point x="381" y="413" type="curve"/>
      <point x="301" y="413"/>
      <point x="220" y="413"/>
      <point x="140" y="413" type="curve"/>
      <point x="140" y="333"/>
      <point x="140" y="413"/>
    </contour>
    <contour>
      <point x="129" y="643" type="curve"/>
      <point x="229" y="643"/>
      <point x="327" y="643"/>
      <point x="427" y="643" type="curve"/>
      <point x="427" y="722"/>
      <point x="427" y="643"/>
      <point x="427" y="722" type="curve"/>
      <point x="327" y="722"/>
      <point x="229" y="722"/>
      <point x="129" y="722" type="curve"/>
      <point x="129" y="643"/>
      <point x="129" y="722"/>
    </contour>
    <contour>
      <point x="187" y="0" type="curve"/>
      <point x="187" y="722" type="line"/>
      <point x="87" y="722"/>
      <point x="187" y="722"/>
      <point x="87" y="722" type="curve"/>
      <point x="87" y="481"/>
      <point x="87" y="241"/>
      <point x="87" y="0" type="curve"/>
      <point x="187" y="0"/>
      <point x="87" y="0"/>
    </contour>
    <contour>
      <point x="129" y="0" type="curve"/>
      <point x="237" y="0"/>
      <point x="344" y="0"/>
      <point x="451" y="0" type="curve"/>
      <point x="451" y="79"/>
      <point x="451" y="0"/>
      <point x="451" y="79" type="curve"/>
      <point x="344" y="79"/>
      <point x="237" y="79"/>
      <point x="129" y="79" type="curve"/>
      <point x="129" y="0"/>
      <point x="129" y="79"/>
    </contour>
    <contour>
      <point x="284" y="795" type="line"/>
      <point x="390" y="961" type="line"/>
      <point x="266" y="961" type="line"/>
      <point x="189" y="795" type="line"/>
    </contour>
  </outline>
</glyph>
<glyph name="Ecircumflex" format="1">
  <advance width="457"/>
  <unicode hex="00CA"/>
  <outline>
    <contour>
      <point x="131" y="333" type="curve"/>
      <point x="211" y="333"/>
      <point x="291" y="333"/>
      <point x="372" y="333" type="curve"/>
      <point x="372" y="413"/>
      <point x="372" y="333"/>
      <point x="372" y="413" type="curve"/>
      <point x="291" y="413"/>
      <point x="211" y="413"/>
      <point x="131" y="413" type="curve"/>
      <point x="131" y="333"/>
      <point x="131" y="413"/>
    </contour>
    <contour>
      <point x="120" y="643" type="curve"/>
      <point x="220" y="643"/>
      <point x="318" y="643"/>
      <point x="418" y="643" type="curve"/>
      <point x="418" y="722"/>
      <point x="418" y="643"/>
      <point x="418" y="722" type="curve"/>
      <point x="318" y="722"/>
      <point x="220" y="722"/>
      <point x="120" y="722" type="curve"/>
      <point x="120" y="643"/>
      <point x="120" y="722"/>
    </contour>
    <contour>
      <point x="178" y="0" type="curve"/>
      <point x="178" y="722" type="line"/>
      <point x="78" y="722"/>
      <point x="178" y="722"/>
      <point x="78" y="722" type="curve"/>
      <point x="78" y="481"/>
      <point x="78" y="241"/>
      <point x="78" y="0" type="curve"/>
      <point x="178" y="0"/>
      <point x="78" y="0"/>
    </contour>
    <contour>
      <point x="120" y="0" type="curve"/>
      <point x="228" y="0"/>
      <point x="335" y="0"/>
      <point x="442" y="0" type="curve"/>
      <point x="442" y="79"/>
      <point x="442" y="0"/>
      <point x="442" y="79" type="curve"/>
      <point x="335" y="79"/>
      <point x="228" y="79"/>
      <point x="120" y="79" type="curve"/>
      <point x="120" y="0"/>
      <point x="120" y="79"/>
    </contour>
    <contour>
      <point x="166" y="796" type="line"/>
      <point x="272" y="962" type="line"/>
      <point x="149" y="962" type="line"/>
      <point x="71" y="796" type="line"/>
    </contour>
    <contour>
      <point x="389" y="796" type="line"/>
      <point x="311" y="962" type="line"/>
      <point x="187" y="962" type="line"/>
      <point x="293" y="796" type="line"/>
    </contour>
  </outline>
</glyph>
<glyph name="Edieresis" format="1">
  <advance width="474"/>
  <unicode hex="00CB"/>
  <outline>
    <contour>
      <point x="139" y="333" type="curve"/>
      <point x="219" y="333"/>
      <point x="299" y="333"/>
      <point x="379" y="333" type="curve"/>
      <point x="379" y="413"/>
      <point x="379" y="333"/>
      <point x="379" y="413" type="curve"/>
      <point x="299" y="413"/>
      <point x="219" y="413"/>
      <point x="139" y="413" type="curve"/>
      <point x="139" y="333"/>
      <point x="139" y="413"/>
    </contour>
    <contour>
      <point x="128" y="643" type="curve"/>
      <point x="227" y="643"/>
      <point x="326" y="643"/>
      <point x="425" y="643" type="curve"/>
      <point x="425" y="722"/>
      <point x="425" y="643"/>
      <point x="425" y="722" type="curve"/>
      <point x="326" y="722"/>
      <point x="227" y="722"/>
      <point x="128" y="722" type="curve"/>
      <point x="128" y="643"/>
      <point x="128" y="722"/>
    </contour>
    <contour>
      <point x="186" y="0" type="curve"/>
      <point x="186" y="722" type="line"/>
      <point x="85" y="722"/>
      <point x="186" y="722"/>
      <point x="85" y="722" type="curve"/>
      <point x="85" y="481"/>
      <point x="85" y="241"/>
      <point x="85" y="0" type="curve"/>
      <point x="186" y="0"/>
      <point x="85" y="0"/>
    </contour>
    <contour>
      <point x="128" y="0" type="curve"/>
      <point x="235" y="0"/>
      <point x="342" y="0"/>
      <point x="450" y="0" type="curve"/>
      <point x="450" y="79"/>
      <point x="450" y="0"/>
      <point x="450" y="79" type="curve"/>
      <point x="342" y="79"/>
      <point x="235" y="79"/>
      <point x="128" y="79" type="curve"/>
      <point x="128" y="0"/>
      <point x="128" y="79"/>
    </contour>
    <contour>
      <point x="213" y="843" type="curve"/>
      <point x="213" y="878"/>
      <point x="189" y="895"/>
      <point x="158" y="895" type="curve"/>
      <point x="126" y="895"/>
      <point x="105" y="876"/>
      <point x="105" y="843" type="curve"/>
      <point x="213" y="843"/>
      <point x="105" y="843"/>
      <point x="213" y="843" type="curve"/>
      <point x="213" y="807"/>
      <point x="190" y="791"/>
      <point x="158" y="791" type="curve"/>
      <point x="125" y="791"/>
      <point x="105" y="809"/>
      <point x="105" y="843" type="curve"/>
      <point x="213" y="843"/>
      <point x="105" y="843"/>
    </contour>
    <contour>
      <point x="371" y="843" type="curve"/>
      <point x="371" y="878"/>
      <point x="348" y="895"/>
      <point x="317" y="895" type="curve"/>
      <point x="284" y="895"/>
      <point x="264" y="876"/>
      <point x="264" y="843" type="curve"/>
      <point x="371" y="843"/>
      <point x="264" y="843"/>
      <point x="371" y="843" type="curve"/>
      <point x="371" y="807"/>
      <point x="349" y="791"/>
      <point x="317" y="791" type="curve"/>
      <point x="284" y="791"/>
      <point x="264" y="809"/>
      <point x="264" y="843" type="curve"/>
      <point x="371" y="843"/>
      <point x="264" y="843"/>
    </contour>
  </outline>
</glyph>
<glyph name="Igrave" format="1">
  <advance width="282"/>
  <unicode hex="00CC"/>
  <outline>
    <contour>
      <point x="195" y="0" type="curve"/>
      <point x="195" y="241"/>
      <point x="195" y="481"/>
      <point x="195" y="722" type="curve"/>
      <point x="94" y="722"/>
      <point x="195" y="722"/>
      <point x="94" y="722" type="curve"/>
      <point x="94" y="481"/>
      <point x="94" y="241"/>
      <point x="94" y="0" type="curve"/>
      <point x="195" y="0"/>
      <point x="94" y="0"/>
    </contour>
    <contour>
      <point x="195" y="797" type="line"/>
      <point x="118" y="963" type="line"/>
      <point x="-6" y="963" type="line"/>
      <point x="100" y="797" type="line"/>
    </contour>
  </outline>
</glyph>
<glyph name="Icircumflex" format="1">
  <advance width="299"/>
  <unicode hex="00CE"/>
  <outline>
    <contour>
      <point x="202" y="0" type="curve"/>
      <point x="202" y="241"/>
      <point x="202" y="481"/>
      <point x="202" y="722" type="curve"/>
      <point x="101" y="722"/>
      <point x="202" y="722"/>
      <point x="101" y="722" type="curve"/>
      <point x="101" y="481"/>
      <point x="101" y="241"/>
      <point x="101" y="0" type="curve"/>
      <point x="202" y="0"/>
      <point x="101" y="0"/>
    </contour>
    <contour>
      <point x="90" y="796" type="line"/>
      <point x="196" y="962" type="line"/>
      <point x="72" y="962" type="line"/>
      <point x="-5" y="796" type="line"/>
    </contour>
    <contour>
      <point x="312" y="796" type="line"/>
      <point x="235" y="962" type="line"/>
      <point x="111" y="962" type="line"/>
      <point x="217" y="796" type="line"/>
    </contour>
  </outline>
</glyph>
<glyph name="Idieresis" format="1">
  <advance width="254"/>
  <unicode hex="00CF"/>
  <outline>
    <contour>
      <point x="179" y="0" type="curve"/>
      <point x="179" y="241"/>
      <point x="179" y="481"/>
      <point x="179" y="722" type="curve"/>
      <point x="79" y="722"/>
      <point x="179" y="722"/>
      <point x="79" y="722" type="curve"/>
      <point x="79" y="481"/>
      <point x="79" y="241"/>
      <point x="79" y="0" type="curve"/>
      <point x="179" y="0"/>
      <point x="79" y="0"/>
    </contour>
    <contour>
      <point x="106" y="843" type="curve"/>
      <point x="106" y="878"/>
      <point x="83" y="895"/>
      <point x="51" y="895" type="curve"/>
      <point x="19" y="895"/>
      <point x="-2" y="876"/>
      <point x="-2" y="843" type="curve"/>
      <point x="106" y="843"/>
      <point x="-2" y="843"/>
      <point x="106" y="843" type="curve"/>
      <point x="106" y="807"/>
      <point x="84" y="791"/>
      <point x="51" y="791" type="curve"/>
      <point x="18" y="791"/>
      <point x="-2" y="809"/>
      <point x="-2" y="843" type="curve"/>
      <point x="106" y="843"/>
      <point x="-2" y="843"/>
    </contour>
    <contour>
      <point x="265" y="843" type="curve"/>
      <point x="265" y="878"/>
      <point x="242" y="895"/>
      <point x="210" y="895" type="curve"/>
      <point x="178" y="895"/>
      <point x="157" y="876"/>
      <point x="157" y="843" type="curve"/>
      <point x="265" y="843"/>
      <point x="157" y="843"/>
      <point x="265" y="843" type="curve"/>
      <point x="265" y="807"/>
      <point x="242" y="791"/>
      <point x="210" y="791" type="curve"/>
      <point x="177" y="791"/>
      <point x="157" y="809"/>
      <point x="157" y="843" type="curve"/>
      <point x="265" y="843"/>
      <point x="157" y="843"/>
    </contour>
  </outline>
</glyph>
<glyph name="Eth" format="1">
  <advance width="605"/>
  <unicode hex="00D0"/>
  <outline>
    <contour>
      <point x="85" y="722" type="curve"/>
      <point x="85" y="481"/>
      <point x="85" y="241"/>
      <point x="85" y="0" type="curve"/>
      <point x="186" y="0"/>
      <point x="85" y="0"/>
      <point x="186" y="0" type="curve"/>
      <point x="186" y="241"/>
      <point x="186" y="481"/>
      <point x="186" y="722" type="curve"/>
      <point x="85" y="722"/>
      <point x="186" y="722"/>
    </contour>
    <contour>
      <point x="137" y="0" type="curve"/>
      <point x="184" y="0"/>
      <point x="225" y="0"/>
      <point x="272" y="0" type="curve"/>
      <point x="472" y="0"/>
      <point x="556" y="141"/>
      <point x="556" y="355" type="curve"/>
      <point x="556" y="575"/>
      <point x="472" y="722"/>
      <point x="268" y="722" type="curve"/>
      <point x="223" y="722"/>
      <point x="182" y="722"/>
      <point x="137" y="722" type="curve"/>
      <point x="137" y="648"/>
      <point x="137" y="717"/>
      <point x="137" y="643" type="curve"/>
      <point x="181" y="643"/>
      <point x="219" y="643"/>
      <point x="263" y="643" type="curve"/>
      <point x="413" y="643"/>
      <point x="455" y="521"/>
      <point x="455" y="353" type="curve"/>
      <point x="455" y="196"/>
      <point x="419" y="79"/>
      <point x="281" y="79" type="curve"/>
      <point x="231" y="79"/>
      <point x="187" y="79"/>
      <point x="137" y="79" type="curve"/>
      <point x="137" y="5"/>
      <point x="137" y="74"/>
    </contour>
    <contour>
      <point x="33" y="332" type="curve"/>
      <point x="119" y="332"/>
      <point x="204" y="332"/>
      <point x="290" y="332" type="curve"/>
      <point x="290" y="418"/>
      <point x="290" y="332"/>
      <point x="290" y="418" type="curve"/>
      <point x="204" y="418"/>
      <point x="119" y="418"/>
      <point x="33" y="418" type="curve"/>
      <point x="33" y="332"/>
      <point x="33" y="418"/>
    </contour>
  </outline>
</glyph>
<glyph name="Ntilde" format="1">
  <advance width="670"/>
  <unicode hex="00D1"/>
  <outline>
    <contour>
      <point x="584" y="0" type="curve"/>
      <point x="453" y="241"/>
      <point x="322" y="481"/>
      <point x="192" y="722" type="curve"/>
      <point x="86" y="722"/>
      <point x="192" y="722"/>
      <point x="87" y="722" type="curve"/>
      <point x="217" y="481"/>
      <point x="348" y="241"/>
      <point x="479" y="0" type="curve"/>
      <point x="584" y="0"/>
      <point x="478" y="0"/>
    </contour>
    <contour>
      <point x="483" y="722" type="curve"/>
      <point x="483" y="481"/>
      <point x="483" y="241"/>
      <point x="483" y="0" type="curve"/>
      <point x="583" y="0"/>
      <point x="483" y="0"/>
      <point x="583" y="0" type="curve"/>
      <point x="583" y="241"/>
      <point x="583" y="481"/>
      <point x="583" y="722" type="curve"/>
      <point x="483" y="722"/>
      <point x="583" y="722"/>
    </contour>
    <contour>
      <point x="188" y="0" type="curve"/>
      <point x="188" y="241"/>
      <point x="188" y="481"/>
      <point x="188" y="722" type="curve"/>
      <point x="87" y="722"/>
      <point x="188" y="722"/>
      <point x="87" y="722" type="curve"/>
      <point x="87" y="481"/>
      <point x="87" y="241"/>
      <point x="87" y="0" type="curve"/>
      <point x="188" y="0"/>
      <point x="87" y="0"/>
    </contour>
    <contour>
      <point x="441" y="964" type="curve"/>
      <point x="427" y="923"/>
      <point x="417" y="901"/>
      <point x="396" y="901" type="curve"/>
      <point x="369" y="901"/>
      <point x="357" y="912"/>
      <point x="339" y="931" type="curve"/>
      <point x="316" y="955"/>
      <point x="302" y="969"/>
      <point x="271" y="969" type="curve"/>
      <point x="206" y="969"/>
      <point x="180" y="904"/>
      <point x="163" y="841" type="curve"/>
      <point x="238" y="799"/>
      <point x="163" y="841"/>
      <point x="238" y="799" type="curve"/>
      <point x="254" y="844"/>
      <point x="266" y="866"/>
      <point x="292" y="866" type="curve"/>
      <point x="315" y="866"/>
      <point x="325" y="853"/>
      <point x="339" y="837" type="curve"/>
      <point x="365" y="810"/>
      <point x="382" y="795"/>
      <point x="418" y="795" type="curve"/>
      <point x="482" y="795"/>
      <point x="500" y="858"/>
      <point x="521" y="924" type="curve"/>
      <point x="441" y="964"/>
      <point x="521" y="924"/>
    </contour>
  </outline>
</glyph>
<glyph name="Oacute" format="1">
  <advance width="621"/>
  <unicode hex="00D3"/>
  <outline>
    <contour>
      <point x="150" y="360" type="curve" name="FullCurve"/>
      <point x="150" y="512"/>
      <point x="175" y="645"/>
      <point x="308" y="645" type="curve" name="FullCurve"/>
      <point x="438" y="645"/>
      <point x="472" y="515"/>
      <point x="472" y="363" type="curve" name="FullCurve"/>
      <point x="472" y="211"/>
      <point x="445" y="78"/>
      <point x="312" y="78" type="curve" name="FullCurve"/>
      <point x="180" y="78"/>
      <point x="150" y="207"/>
      <point x="150" y="360" type="curve" name="FullCurve"/>
      <point x="49" y="360"/>
      <point x="150" y="360"/>
      <point x="49" y="360" type="curve" name="FullCurve"/>
      <point x="49" y="155"/>
      <point x="124" y="-5"/>
      <point x="309" y="-5" type="curve" name="FullCurve"/>
      <point x="496" y="-5"/>
      <point x="572" y="156"/>
      <point x="572" y="363" type="curve" name="FullCurve"/>
      <point x="572" y="566"/>
      <point x="498" y="727"/>
      <point x="313" y="727" type="curve" name="FullCurve"/>
      <point x="126" y="727"/>
      <point x="49" y="566"/>
      <point x="49" y="360" type="curve" name="FullCurve"/>
      <point x="150" y="360"/>
      <point x="49" y="360"/>
    </contour>
    <contour>
      <point x="356" y="795" type="line"/>
      <point x="462" y="961" type="line"/>
      <point x="338" y="961" type="line"/>
      <point x="261" y="795" type="line"/>
    </contour>
  </outline>
</glyph>
<glyph name="Otilde" format="1">
  <advance width="621"/>
  <unicode hex="00D5"/>
  <outline>
    <contour>
      <point x="150" y="360" type="curve" name="FullCurve"/>
      <point x="150" y="512"/>
      <point x="175" y="645"/>
      <point x="308" y="645" type="curve" name="FullCurve"/>
      <point x="438" y="645"/>
      <point x="472" y="515"/>
      <point x="472" y="363" type="curve" name="FullCurve"/>
      <point x="472" y="211"/>
      <point x="445" y="78"/>
      <point x="312" y="78" type="curve" name="FullCurve"/>
      <point x="180" y="78"/>
      <point x="150" y="207"/>
      <point x="150" y="360" type="curve" name="FullCurve"/>
      <point x="49" y="360"/>
      <point x="150" y="360"/>
      <point x="49" y="360" type="curve" name="FullCurve"/>
      <point x="49" y="155"/>
      <point x="124" y="-5"/>
      <point x="309" y="-5" type="curve" name="FullCurve"/>
      <point x="496" y="-5"/>
      <point x="572" y="156"/>
      <point x="572" y="363" type="curve" name="FullCurve"/>
      <point x="572" y="566"/>
      <point x="498" y="727"/>
      <point x="313" y="727" type="curve" name="FullCurve"/>
      <point x="126" y="727"/>
      <point x="49" y="566"/>
      <point x="49" y="360" type="curve" name="FullCurve"/>
      <point x="150" y="360"/>
      <point x="49" y="360"/>
    </contour>
    <contour>
      <point x="414" y="964" type="curve"/>
      <point x="400" y="923"/>
      <point x="390" y="901"/>
      <point x="369" y="901" type="curve"/>
      <point x="342" y="901"/>
      <point x="330" y="912"/>
      <point x="312" y="931" type="curve"/>
      <point x="289" y="955"/>
      <point x="275" y="969"/>
      <point x="244" y="969" type="curve"/>
      <point x="179" y="969"/>
      <point x="153" y="904"/>
      <point x="136" y="841" type="curve"/>
      <point x="211" y="799"/>
      <point x="136" y="841"/>
      <point x="211" y="799" type="curve"/>
      <point x="227" y="844"/>
      <point x="239" y="866"/>
      <point x="265" y="866" type="curve"/>
      <point x="288" y="866"/>
      <point x="298" y="853"/>
      <point x="312" y="837" type="curve"/>
      <point x="338" y="810"/>
      <point x="355" y="795"/>
      <point x="391" y="795" type="curve"/>
      <point x="455" y="795"/>
      <point x="473" y="858"/>
      <point x="494" y="924" type="curve"/>
      <point x="414" y="964"/>
      <point x="494" y="924"/>
    </contour>
  </outline>
</glyph>
<glyph name="multiply" format="1">
  <advance width="559"/>
  <unicode hex="00D7"/>
  <outline>
    <contour>
      <point x="107" y="73" type="line"/>
      <point x="510" y="489" type="line"/>
      <point x="452" y="547" type="line"/>
      <point x="49" y="132" type="line"/>
    </contour>
    <contour>
      <point x="510" y="130" type="line"/>
      <point x="107" y="545" type="line"/>
      <point x="49" y="487" type="line"/>
      <point x="452" y="71" type="line"/>
    </contour>
  </outline>
</glyph>
